<svg width="120" height="120" viewBox="0 0 120 120" fill="none" xmlns="http://www.w3.org/2000/svg">
<path fill-rule="evenodd" clip-rule="evenodd" d="M101.038 90.6002L104.581 93.1727L105.491 84.4927L97.5202 88.0439L101.038 90.6002ZM89.3439 53.7602C91.3127 51.5489 95.0027 52.8164 95.1764 55.7914C95.2264 56.6439 94.9502 57.5152 94.3377 58.2039C91.9614 60.7452 89.6889 63.6152 87.3652 66.2377L87.3664 66.2389C86.1127 67.6477 83.9102 67.7439 82.5514 66.4227L82.4739 66.3452L77.9802 62.3214C75.7639 60.3377 77.0739 56.6714 80.0189 56.5077C80.8689 56.4602 81.7377 56.7389 82.4252 57.3539L84.5827 59.2864L89.3464 53.7614L89.3439 53.7602ZM91.7752 54.9339C91.5102 54.9489 91.2502 55.0677 91.0564 55.2852L91.0552 55.2839L85.5527 61.6652L85.5514 61.6639C85.1314 62.1452 84.4014 62.1952 83.9252 61.7677L80.8989 59.0577C80.2189 58.4489 79.1064 58.9527 79.1589 59.8964C79.1739 60.1652 79.2902 60.4264 79.5039 60.6177L83.9989 64.6427C84.2477 64.8527 84.4364 65.0952 84.9339 65.0664C85.1989 65.0514 85.4589 64.9327 85.6527 64.7152L85.6539 64.7164L92.5577 56.7589C92.7689 56.4964 92.9114 56.3014 92.8889 55.9177C92.8552 55.3414 92.3502 54.9002 91.7752 54.9339ZM87.5739 42.2564L97.6552 46.7564C98.9177 47.3202 99.7102 48.5289 99.7102 49.9089V62.0539C99.7102 62.8552 99.5277 63.5877 99.1527 64.3027C96.5902 69.1839 92.7927 74.7852 87.7114 77.6314C87.5352 77.7302 87.3552 77.8127 87.1727 77.8789V84.1327C87.1727 87.0039 84.8277 89.3489 81.9564 89.3489H38.0439C35.1727 89.3489 32.8277 87.0039 32.8277 84.1327V73.4702C32.8277 71.8414 33.5839 70.3677 34.7864 69.4014C33.5839 68.4364 32.8277 66.9627 32.8277 65.3327V54.6689C32.8277 53.0402 33.5839 51.5652 34.7864 50.6002C33.5839 49.6352 32.8277 48.1602 32.8277 46.5314V35.8677C32.8277 32.9964 35.1727 30.6514 38.0439 30.6514H81.9552C84.8264 30.6514 87.1714 32.9964 87.1714 35.8677V42.1014C87.3064 42.1452 87.4402 42.1964 87.5739 42.2564ZM84.8764 77.8777C84.6939 77.8114 84.5127 77.7289 84.3377 77.6302C81.3464 75.9552 78.8252 73.3389 76.7627 70.5477H38.0439C36.4402 70.5477 35.1239 71.8639 35.1239 73.4677V84.1302C35.1239 85.7339 36.4402 87.0502 38.0439 87.0502H81.9552C83.5589 87.0502 84.8752 85.7339 84.8752 84.1302L84.8764 77.8777ZM75.1839 68.2527C74.5089 67.1989 73.2964 65.1439 72.8627 64.2327C72.5077 63.4852 72.3389 62.8902 72.3389 62.0539V51.7489H38.0439C36.4402 51.7489 35.1239 53.0652 35.1239 54.6689V65.3327C35.1239 66.9364 36.4402 68.2527 38.0439 68.2527H75.1839ZM72.3689 49.4527C72.5239 48.2564 73.2789 47.2539 74.3989 46.7564L84.5364 42.2552C84.6489 42.2052 84.7627 42.1602 84.8777 42.1214V35.8702C84.8777 34.2664 83.5614 32.9502 81.9577 32.9502H38.0439C36.4402 32.9502 35.1239 34.2664 35.1239 35.8702V46.5339C35.1239 48.1377 36.4402 49.4539 38.0439 49.4539L72.3689 49.4527ZM96.7227 48.8452L86.6414 44.3452C86.2464 44.1689 85.8527 44.1689 85.4602 44.3439L75.3227 48.8452C74.5239 49.2002 74.6352 49.9039 74.6352 50.6002V62.0539C74.6352 62.4977 74.7177 62.8552 74.9227 63.2352C75.8189 64.9427 76.9177 66.8327 78.2114 68.6539L79.2927 70.0964C81.0377 72.3002 83.0952 74.3077 85.4577 75.6314C85.8252 75.8377 86.2214 75.8377 86.5902 75.6314C91.2502 73.0202 94.7627 67.7339 97.1252 63.2339C97.3314 62.8427 97.4127 62.5014 97.4127 62.0527V49.9077C97.4139 49.4227 97.1627 49.0427 96.7227 48.8452ZM42.6177 45.2377H49.7264C51.2377 45.2377 51.2377 42.9414 49.7264 42.9414H42.6177C41.1064 42.9414 41.1064 45.2377 42.6177 45.2377ZM42.6177 39.4589H49.7264C51.2377 39.4589 51.2377 37.1627 49.7264 37.1627H42.6177C41.1064 37.1627 41.1064 39.4589 42.6177 39.4589ZM42.6177 82.8377H49.7264C51.2377 82.8377 51.2377 80.5414 49.7264 80.5414H42.6177C41.1064 80.5414 41.1064 82.8377 42.6177 82.8377ZM42.6177 77.0577H49.7264C51.2377 77.0577 51.2377 74.7627 49.7264 74.7627H42.6177C41.1064 74.7627 41.1064 77.0577 42.6177 77.0577ZM42.6177 64.0377H49.7264C51.2377 64.0377 51.2377 61.7414 49.7264 61.7414H42.6177C41.1064 61.7414 41.1064 64.0377 42.6177 64.0377ZM42.6177 58.2589H49.7264C51.2377 58.2589 51.2377 55.9627 49.7264 55.9627H42.6177C41.1064 55.9627 41.1064 58.2589 42.6177 58.2589ZM35.5064 105.491L31.9552 97.5202L26.8277 104.581L35.5064 105.491ZM35.8202 100.574L33.2377 94.7764C32.8739 93.9614 31.7702 93.8739 31.2664 94.5714L31.2652 94.5702L28.2439 98.7302C18.1777 90.4314 11.6677 78.5039 10.3039 65.3889C14.4527 64.5502 16.1277 59.4514 13.2189 56.3177C12.2964 55.3239 10.8239 54.5727 9.37641 54.5727V54.5764C7.88516 54.5314 6.51391 55.0902 5.49891 56.0327C4.50516 56.9552 3.75391 58.4277 3.75391 59.8752H3.75766C3.67891 62.5002 5.47641 64.7864 7.99516 65.3602C9.36641 79.2239 16.2377 91.8527 26.8939 100.589L23.8064 104.841C23.3002 105.539 23.7077 106.583 24.6714 106.659L37.2427 107.978C38.1014 108.066 38.7877 107.188 38.3864 106.334L35.8202 100.574ZM6.05016 59.8752L6.04891 59.8377C6.08391 58.2427 7.56641 56.7864 9.37516 56.8664V56.8689C10.1539 56.8552 11.0327 57.3327 11.5402 57.8777C12.7314 59.1614 12.6564 61.1677 11.3714 62.3602C9.31641 64.2677 5.91891 62.7502 6.04516 59.8739H6.05016V59.8752ZM14.5077 35.5064L22.4789 31.9552L15.4177 26.8277L14.5077 35.5064ZM19.4277 35.8202L25.2252 33.2364C26.0402 32.8727 26.1277 31.7702 25.4302 31.2652L25.4314 31.2639L21.2714 28.2427C29.5702 18.1764 41.4977 11.6664 54.6127 10.3027C55.4514 14.4514 60.5502 16.1264 63.6839 13.2177C64.6777 12.2952 65.4289 10.8227 65.4289 9.37516H65.4252C65.4702 7.88391 64.9114 6.51266 63.9689 5.49766C63.0464 4.50391 61.5739 3.75391 60.1264 3.75391V3.75641C57.5027 3.67766 55.2164 5.47516 54.6414 7.99516C40.7777 9.36766 28.1477 16.2389 19.4127 26.8939L15.1602 23.8052C14.4639 23.3002 13.4189 23.7064 13.3427 24.6702L12.0239 37.2427C11.9352 38.1014 12.8139 38.7877 13.6677 38.3864L19.4277 35.8202ZM60.1252 6.05016L60.1627 6.04891C61.7577 6.08391 63.2139 7.56641 63.1339 9.37641H63.1314C63.1452 10.1552 62.6689 11.0352 62.1227 11.5414C60.8389 12.7327 58.8327 12.6577 57.6402 11.3727C55.7327 9.31766 57.2502 5.92141 60.1264 6.04766L60.1252 6.05016ZM84.4939 14.5077L88.0452 22.4789L93.1727 15.4177L84.4939 14.5077ZM84.1802 19.4264L86.7627 25.2239C87.1264 26.0389 88.2302 26.1264 88.7339 25.4289L88.7352 25.4302L91.7564 21.2702C101.823 29.5677 108.333 41.4964 109.696 54.6114C105.548 55.4502 103.873 60.5489 106.783 63.6827C107.705 64.6764 109.178 65.4277 110.625 65.4277V65.4239C112.116 65.4689 113.488 64.9102 114.503 63.9677C115.496 63.0452 116.248 61.5739 116.248 60.1252H116.244C116.323 57.5002 114.525 55.2139 112.006 54.6414C110.635 40.7777 103.764 28.1477 93.1077 19.4127L96.1964 15.1602C96.7014 14.4639 96.2952 13.4189 95.3314 13.3427L82.7577 12.0239C81.8989 11.9352 81.2127 12.8139 81.6139 13.6677L84.1802 19.4264ZM113.95 60.1252L113.951 60.1627C113.916 61.7577 112.434 63.2139 110.624 63.1339V63.1314C109.845 63.1452 108.966 62.6677 108.459 62.1227C107.268 60.8389 107.343 58.8327 108.628 57.6402C110.683 55.7327 114.08 57.2502 113.954 60.1264H113.95V60.1252ZM100.588 93.1064C91.8514 103.761 79.2227 110.634 65.3589 112.005C64.7852 114.525 62.4989 116.321 59.8739 116.244V116.248C58.4264 116.248 56.9539 115.498 56.0314 114.503C55.0889 113.488 54.5302 112.116 54.5752 110.625H54.5714C54.5714 109.178 55.3214 107.706 56.3164 106.783C59.4502 103.874 64.5489 105.549 65.3877 109.696C78.5027 108.333 90.4302 101.824 98.7289 91.7564L94.5689 88.7352L94.5702 88.7339C93.8727 88.2289 93.9602 87.1264 94.7752 86.7627L106.331 81.6139C107.185 81.2139 108.064 81.8989 107.975 82.7577L106.656 95.3289C106.58 96.2927 105.536 96.6989 104.839 96.1939L100.588 93.1064ZM63.2027 110.971C63.2014 110.924 63.2039 110.878 63.2077 110.831C63.2964 109.244 61.9264 107.679 60.1552 107.613C58.3827 107.546 56.9027 108.999 56.8689 110.586L56.8702 110.624H56.8677C56.7889 112.433 58.2439 113.916 59.8389 113.951L59.8764 113.95V113.953C61.6352 114.03 63.1014 112.698 63.2027 110.971Z" fill="#1E8A8A"/>
</svg>
