<svg width="120" height="120" viewBox="0 0 120 120" fill="none" xmlns="http://www.w3.org/2000/svg">
<path d="M95.5086 60.825H79.8781C79.1023 60.825 78.4719 61.4555 78.4719 62.2312V115.078C78.4719 115.854 79.1023 116.484 79.8781 116.484H95.5086C96.2844 116.484 96.9148 115.854 96.9148 115.078V62.2312C96.9148 61.4531 96.2867 60.825 95.5086 60.825ZM94.1023 113.672H81.2844V63.6375H94.1023V113.672ZM9.32656 91.0711C9.08047 90.3352 9.47656 89.5383 10.2125 89.2898C29.6141 82.7766 45.0875 71.4281 56.2578 55.5422L54.3359 55.9453C53.5766 56.107 52.8312 55.6195 52.6695 54.8578C52.5102 54.0984 52.9953 53.3531 53.757 53.1914L59.0844 52.0711C59.8461 51.9117 60.5891 52.3969 60.7508 53.1586L61.8711 58.4859C62.0305 59.2453 61.5453 59.9906 60.7836 60.1523C60.6852 60.1734 60.5891 60.1828 60.493 60.1828C59.8414 60.1828 59.2578 59.7281 59.1172 59.0648L58.6789 56.9836C53.3 64.6734 46.9367 71.3766 39.7273 76.9289C31.4562 83.2992 21.8281 88.3523 11.1078 91.9523C10.9602 92.0016 10.8078 92.025 10.6602 92.025C10.0695 92.0297 9.52344 91.657 9.32656 91.0711ZM76.0953 25.4297V39.6797C76.0953 40.4555 76.7258 41.0859 77.5016 41.0859H97.8875C98.6633 41.0859 99.2937 40.4555 99.2937 39.6797V19.2937C99.2937 18.518 98.6633 17.8875 97.8875 17.8875H83.6375C83.2648 17.8875 82.9062 18.0352 82.6437 18.3L76.5078 24.4359C76.243 24.7008 76.0953 25.057 76.0953 25.4297ZM78.9078 26.0133L84.2211 20.7H96.4812V38.2734H78.9078V26.0133ZM112.259 30.893C113.035 30.893 113.666 30.2625 113.666 29.4867C113.666 28.7109 113.035 28.0805 112.259 28.0805H105.622V21.7406H112.259C113.035 21.7406 113.666 21.1102 113.666 20.3344C113.666 19.5586 113.035 18.9281 112.259 18.9281H105.622V12.9656C105.622 12.1898 104.991 11.5594 104.216 11.5594H98.2531V4.92188C98.2531 4.14609 97.6227 3.51562 96.8469 3.51562C96.0711 3.51562 95.4406 4.14609 95.4406 4.92188V11.5594H89.1008V4.92188C89.1008 4.14609 88.4703 3.51562 87.6945 3.51562C86.9187 3.51562 86.2883 4.14609 86.2883 4.92188V11.5594H79.9484V4.92188C79.9484 4.14609 79.318 3.51562 78.5422 3.51562C77.7664 3.51562 77.1359 4.14609 77.1359 4.92188V11.5594H71.1734C70.3977 11.5594 69.7672 12.1898 69.7672 12.9656V18.9281H63.1297C62.3539 18.9281 61.7234 19.5586 61.7234 20.3344C61.7234 21.1102 62.3539 21.7406 63.1297 21.7406H69.7672V28.0805H63.1297C62.3539 28.0805 61.7234 28.7109 61.7234 29.4867C61.7234 30.2625 62.3539 30.893 63.1297 30.893H69.7672V37.2328H63.1297C62.3539 37.2328 61.7234 37.8633 61.7234 38.6391C61.7234 39.4148 62.3539 40.0453 63.1297 40.0453H69.7672V46.0078C69.7672 46.7836 70.3977 47.4141 71.1734 47.4141H77.1359V54.0516C77.1359 54.8273 77.7664 55.4578 78.5422 55.4578C79.318 55.4578 79.9484 54.8273 79.9484 54.0516V47.4141H86.2883V54.0516C86.2883 54.8273 86.9187 55.4578 87.6945 55.4578C88.4703 55.4578 89.1008 54.8273 89.1008 54.0516V47.4141H95.4406V54.0516C95.4406 54.8273 96.0711 55.4578 96.8469 55.4578C97.6227 55.4578 98.2531 54.8273 98.2531 54.0516V47.4141H104.216C104.991 47.4141 105.622 46.7836 105.622 46.0078V40.0453H112.259C113.035 40.0453 113.666 39.4148 113.666 38.6391C113.666 37.8633 113.035 37.2328 112.259 37.2328H105.622V30.893H112.259ZM102.809 44.6016H72.5797V14.3719H102.809V44.6016ZM75.4625 18.7148C75.4625 17.9391 76.093 17.3086 76.8687 17.3086H76.9484C77.7242 17.3086 78.3547 17.9391 78.3547 18.7148C78.3547 19.4906 77.7242 20.1211 76.9484 20.1211H76.8687C76.093 20.1211 75.4625 19.4906 75.4625 18.7148ZM86.4195 25.0289C86.1805 24.5531 85.6953 24.2508 85.1609 24.2508C84.6266 24.2508 84.1414 24.5508 83.9023 25.0289L80.1312 32.5734C79.7844 33.2672 80.0656 34.1133 80.7594 34.4602C81.4531 34.807 82.2992 34.5258 82.6461 33.832L82.7773 33.5672H87.5422L87.6734 33.832C87.9195 34.3242 88.4164 34.6102 88.932 34.6102C89.143 34.6102 89.3586 34.5633 89.5602 34.4625C90.2539 34.1156 90.5375 33.2695 90.1883 32.5758L86.4195 25.0289ZM84.1859 30.7523L85.1609 28.8L86.1359 30.7523H84.1859ZM94.693 25.657V33.2016C94.693 33.9773 94.0625 34.6078 93.2867 34.6078C92.5109 34.6078 91.8805 33.9773 91.8805 33.2016V25.657C91.8805 24.8813 92.5109 24.2508 93.2867 24.2508C94.0625 24.2508 94.693 24.8813 94.693 25.657ZM71.4641 72.1828H55.8336C55.0578 72.1828 54.4273 72.8133 54.4273 73.5891V115.078C54.4273 115.854 55.0578 116.484 55.8336 116.484H71.4641C72.2398 116.484 72.8703 115.854 72.8703 115.078V73.5891C72.8703 72.8109 72.2422 72.1828 71.4641 72.1828ZM70.0578 113.672H57.2398V74.9953H70.0578V113.672ZM47.4195 85.432H31.7891C31.0133 85.432 30.3828 86.0625 30.3828 86.8383V115.078C30.3828 115.854 31.0133 116.484 31.7891 116.484H47.4195C48.1953 116.484 48.8258 115.854 48.8258 115.078V86.8383C48.8258 86.0625 48.1953 85.432 47.4195 85.432ZM46.0133 113.672H33.1953V88.2445H46.0133V113.672ZM23.375 97.3148H7.74219C6.96641 97.3148 6.33594 97.9453 6.33594 98.7211V115.078C6.33594 115.854 6.96641 116.484 7.74219 116.484H23.3727C24.1484 116.484 24.7789 115.854 24.7789 115.078V98.7211C24.7812 97.943 24.1508 97.3148 23.375 97.3148ZM21.9688 113.672H9.14844V100.127H21.9664V113.672H21.9688Z" fill="#1E8A8A"/>
</svg>
