<svg width="120" height="50" viewBox="0 0 120 50" fill="none" xmlns="http://www.w3.org/2000/svg">
<path d="M24.6 22.4398C26.52 22.4398 28 23.1198 29.04 24.4798C30.08 25.7598 30.56 27.6398 30.48 30.1198C30.48 32.9998 29.76 35.2398 28.32 36.8398C26.88 38.4398 24.8 39.2398 22.08 39.2398C20.96 39.2398 20.12 39.1998 19.56 39.1198V46.1998H16.08V22.7998H19.44C19.44 23.6798 19.36 24.6798 19.2 25.7998H19.32C19.72 24.7598 20.36 23.9598 21.24 23.3998C22.2 22.7598 23.32 22.4398 24.6 22.4398ZM22.2 36.4798C23.64 36.4798 24.76 35.9998 25.56 35.0398C26.44 34.0798 26.88 32.5598 26.88 30.4798C26.88 27.0398 25.8 25.3198 23.64 25.3198C22.36 25.3198 21.36 25.9198 20.64 27.1198C19.92 28.3198 19.56 29.6798 19.56 31.1998V36.2398C20.12 36.3998 21 36.4798 22.2 36.4798ZM3.72 22.6798C3.72 23.5598 4.12 24.2798 4.92 24.8398C5.4 25.2398 6.36 25.7198 7.8 26.2798C9.64 26.9998 10.92 27.6798 11.64 28.3198C12.84 29.3598 13.44 30.7198 13.44 32.3998C13.44 34.4798 12.68 36.1598 11.16 37.4398C9.64 38.7198 7.56 39.3598 4.92 39.3598C3.16 39.3598 1.68 39.1998 0.48 38.8798L0.72 35.5198C2.16 36.0798 3.68 36.3598 5.28 36.3598C6.56 36.3598 7.6 36.0798 8.4 35.5198C9.28 34.8798 9.72 33.9998 9.72 32.8798C9.72 31.9198 9.32 31.1598 8.52 30.5998C7.96 30.1998 7 29.7198 5.64 29.1598C3.8 28.5198 2.52 27.8798 1.8 27.2398C0.6 26.1998 0 24.7998 0 23.0398C0 21.1198 0.72 19.5598 2.16 18.3598C3.6 17.1598 5.6 16.5598 8.16 16.5598C9.04 16.5598 10.36 16.7198 12.12 17.0398L11.88 20.1598C10.52 19.7598 9.16 19.5598 7.8 19.5598C6.52 19.5598 5.52 19.8398 4.8 20.3998C4.08 20.9598 3.72 21.7198 3.72 22.6798ZM90 41.8798C92.88 38.8398 95.96 34.9998 99.24 30.3598C103.08 24.8398 105.92 19.9598 107.76 15.7198H107.88C109.08 16.5198 109.92 17.1598 110.4 17.6398C111.28 18.5198 111.72 19.3598 111.72 20.1598C111.72 20.6398 111.6 21.1198 111.36 21.5998C111.2 21.9198 110.88 22.3998 110.4 23.0398L110.28 23.1598C108.68 25.5598 105.72 28.6798 101.4 32.5198C97.4 36.2798 93.6 39.3998 90 41.8798ZM95.52 11.1598C96.08 13.5598 96.44 16.2798 96.6 19.3198C96.84 22.6798 96.72 25.7598 96.24 28.5598C95.92 25.6798 95.24 22.0398 94.2 17.6398C93.08 12.7598 91.92 8.55984 90.72 5.03984C91.76 5.43984 92.72 6.23984 93.6 7.43984C94.56 8.63984 95.2 9.87984 95.52 11.1598ZM95.28 34.5598C96.32 31.8398 97.28 27.7198 98.16 22.1998C98.96 17.0798 99.36 12.9998 99.36 9.95984C102.32 11.6398 103.8 13.6398 103.8 15.9598C103.8 18.4398 103 21.3998 101.4 24.8398C99.8 28.1198 97.76 31.3598 95.28 34.5598ZM36.6 26.3998C37.48 23.5198 39.28 22.1998 42 22.4398L41.76 25.9198C38.56 25.3598 36.96 27.5198 36.96 32.3998V38.9998H33.48V22.7998H36.84C36.84 23.8398 36.72 25.0398 36.48 26.3998H36.6ZM75.12 33.2398C75.12 34.5198 75.24 35.3598 75.48 35.7598C75.8 36.1598 76.32 36.3598 77.04 36.3598C77.76 36.3598 78.52 36.2798 79.32 36.1198V38.9998C78.36 39.2398 77.28 39.3598 76.08 39.3598C74.32 39.3598 73.12 38.9998 72.48 38.2798C71.84 37.4798 71.52 36.1598 71.52 34.3198V25.4398H68.4V22.7998H71.52V17.5198L75 16.6798V22.7998H79.32V25.4398H75.12V33.2398ZM114.96 21.8398C116.08 22.4798 117.12 23.2398 118.08 24.1198C119.36 25.3198 120 26.3198 120 27.1198C120 27.5998 119.84 28.0398 119.52 28.4398C119.28 28.7598 118.88 29.0798 118.32 29.3998C112.48 33.4798 106.04 37.3598 99 41.0398C91.48 44.9598 85 47.8398 79.56 49.6798C84.04 47.2798 89.96 43.1998 97.32 37.4398C104.68 31.5998 110.56 26.3998 114.96 21.8398ZM79.32 -0.000161171C82.68 1.27984 85.88 4.31984 88.92 9.11984C91 12.3998 92.8 16.1198 94.32 20.2798L93.36 18.9598C87.04 9.59984 82.36 3.27984 79.32 -0.000161171ZM61.56 22.4398C63.32 22.4398 64.56 22.9198 65.28 23.8798C66.08 24.7598 66.44 25.9998 66.36 27.5998V38.9998H63V28.5598C63 27.5198 62.8 26.7198 62.4 26.1598C62 25.5998 61.36 25.3198 60.48 25.3198C59.28 25.3198 58.28 25.9198 57.48 27.1198C56.68 28.2398 56.28 29.5998 56.28 31.1998V38.9998H52.8V22.7998H56.16C56.16 23.7598 56.08 24.7998 55.92 25.9198C56.4 24.8798 57.12 24.0398 58.08 23.3998C59.04 22.7598 60.2 22.4398 61.56 22.4398ZM45 22.7998V38.9998H48.48V22.7998H45ZM46.8 15.9598C47.44 15.9598 47.96 16.1998 48.36 16.6798C48.84 17.0798 49.08 17.5598 49.08 18.1198C49.08 18.6798 48.84 19.1998 48.36 19.6798C47.96 20.0798 47.44 20.2798 46.8 20.2798C46.16 20.2798 45.6 20.0798 45.12 19.6798C44.72 19.1998 44.52 18.6798 44.52 18.1198C44.52 17.5598 44.72 17.0798 45.12 16.6798C45.6 16.1998 46.16 15.9598 46.8 15.9598Z" fill="white"/>
</svg>
