<svg width="120" height="41" viewBox="0 0 120 41" fill="none" xmlns="http://www.w3.org/2000/svg">
<path d="M37.8 0.241248L81.84 28.3212C81.92 28.3212 82.04 28.4012 82.2 28.5612L75 25.4412C68.2 22.6412 62.36 20.3612 57.48 18.6012C51 16.2812 45 14.3612 39.48 12.8412C31.72 10.6812 23.96 9.00125 16.2 7.80125C11.16 7.08125 6.08 6.60125 0.96 6.36125L0 6.24125C0.64 6.00125 1.6 5.72125 2.88 5.40125L4.08 5.16125C13.68 3.32125 21.88 1.96125 28.68 1.08124C30.36 0.761248 32.92 0.44125 36.36 0.121249H36.72C36.96 0.0412455 37.32 0.0812449 37.8 0.241248ZM58.32 8.76125C78.96 4.76125 99.52 2.64125 120 2.40125L114.36 3.72125C101.48 7.00125 89.32 11.4012 77.88 16.9212C77 17.4012 75.6 18.1212 73.68 19.0812H73.56C73.4 19.2412 73.24 19.2412 73.08 19.0812L58.56 8.88125C58.48 8.80125 58.4 8.76125 58.32 8.76125ZM45.48 18.0012C44.68 18.2412 44.04 18.5212 43.56 18.8412C35.48 22.4412 28.44 26.7212 22.44 31.6812C20.68 33.2812 19.4 34.5212 18.6 35.4012C18.36 35.6412 18.04 35.7612 17.64 35.7612L0.96 32.8812C0.88 32.7212 0.88 32.6412 0.96 32.6412L1.08 32.5212C7.72 27.5612 13.64 23.7612 18.84 21.1212C23.72 18.7212 28.84 16.6812 34.2 15.0012H34.32C34.56 14.9212 34.72 14.9212 34.8 15.0012L45.24 17.8812C45.32 17.8812 45.4 17.9212 45.48 18.0012ZM52.32 20.7612C52.64 20.6012 52.92 20.5212 53.16 20.5212L64.68 24.4812C63.64 25.2012 62.08 26.2012 60 27.4812C54.64 31.0812 50.24 34.8812 46.8 38.8812L45.72 40.2012C45.56 40.5212 45.36 40.6012 45.12 40.4412L28.08 37.5612V37.4412C28.08 37.4412 28.04 37.4412 27.96 37.4412C28.04 37.2812 28.2 37.0412 28.44 36.7212L28.68 36.6012C29.8 35.3212 31.2 34.0012 32.88 32.6412C33.84 31.8412 35.36 30.6812 37.44 29.1612C42.32 25.8012 47.28 23.0012 52.32 20.7612Z" fill="white"/>
</svg>
