<svg width="121" height="53" viewBox="0 0 121 53" fill="none" xmlns="http://www.w3.org/2000/svg">
<path d="M101.999 34.0795C102.719 34.0795 103.159 34.3595 103.319 34.9195C103.559 35.4795 103.519 35.9995 103.199 36.4795C102.879 36.9595 102.439 37.1995 101.879 37.1995C90.8391 36.4795 79.4791 36.7595 67.7991 38.0395C57.0791 39.1595 46.9591 40.9595 37.4391 43.4395C28.2391 45.9195 20.6791 48.7595 14.7591 51.9595C13.6391 52.5995 12.5991 52.8395 11.6391 52.6795C10.6791 52.5195 10.0391 52.1195 9.71914 51.4795C9.31914 50.5995 9.39914 49.6395 9.95914 48.5995C10.5991 47.3195 11.9591 46.1995 14.0391 45.2395C17.6391 43.5595 23.1991 41.7595 30.7191 39.8395C40.5591 37.4395 50.8391 35.6795 61.5591 34.5595C75.2391 33.1995 88.7191 33.0395 101.999 34.0795ZM112.919 20.8795C113.399 20.3195 113.879 20.1195 114.359 20.2795C114.919 20.4395 115.239 20.8795 115.319 21.5995C115.479 22.2395 115.279 22.9195 114.719 23.6395C113.439 25.3195 111.679 26.7995 109.439 28.0795C107.199 29.3595 105.359 29.9195 103.919 29.7595C102.719 29.6795 101.919 28.9595 101.519 27.5995C101.199 26.6395 101.119 25.5595 101.279 24.3595V23.8795C99.5991 25.3995 97.9191 26.5995 96.2391 27.4795C94.2391 28.5995 92.3991 29.1995 90.7191 29.2795C89.1191 29.2795 87.7591 28.8795 86.6391 28.0795C85.5191 27.1995 84.9191 25.8395 84.8391 23.9995C84.8391 23.1995 84.9191 21.9995 85.0791 20.3995C84.0391 20.1595 83.2391 19.7995 82.6791 19.3195C81.0791 22.1195 79.3191 24.4395 77.3991 26.2795C75.1591 28.4395 73.0791 29.5595 71.1591 29.6395C69.6391 29.7195 68.5191 29.2395 67.7991 28.1995C67.0791 27.0795 66.7591 25.6395 66.8391 23.8795C66.8391 22.4395 67.0391 20.9195 67.4391 19.3195C66.1591 20.4395 65.0391 21.1595 64.0791 21.4795C62.8791 21.8795 61.8791 21.6795 61.0791 20.8795C60.5191 20.2395 60.3191 19.2795 60.4791 17.9995C60.5591 17.3595 60.8391 16.3595 61.3191 14.9995L61.6791 13.6795C61.7591 13.3595 61.7191 13.1995 61.5591 13.1995C61.0791 13.1995 60.4791 13.7595 59.7591 14.8795C58.7991 16.2395 57.9191 17.9995 57.1191 20.1595C56.1591 22.8795 55.4391 25.9995 54.9591 29.5195C54.8791 30.3195 54.3991 30.8795 53.5191 31.1995C52.6391 31.5195 51.7991 31.5195 50.9991 31.1995C50.2791 30.8795 49.9591 30.2395 50.0391 29.2795C50.1191 29.1995 50.1591 29.0795 50.1591 28.9195L50.2791 28.4395C48.0391 30.9995 45.9591 32.4395 44.0391 32.7595C43.0791 32.9195 42.2391 32.7195 41.5191 32.1595C41.0391 31.7595 40.6791 31.2395 40.4391 30.5995L40.0791 29.6395L39.3591 30.8395C38.7191 31.7195 38.0791 32.4795 37.4391 33.1195C36.4791 33.9995 35.5591 34.4795 34.6791 34.5595C33.3991 34.6395 32.3591 34.2795 31.5591 33.4795C30.8391 32.5995 30.3991 31.3995 30.2391 29.8795C29.9991 27.7995 30.3191 25.3195 31.1991 22.4395C32.1591 19.5595 33.4391 17.0795 35.0391 14.9995C36.8791 12.6795 38.8791 11.3995 41.0391 11.1595C41.6791 11.0795 42.2391 11.1595 42.7191 11.3995C43.1991 11.5595 43.5591 11.7595 43.7991 11.9995L44.1591 12.3595L44.7591 11.3995C45.3191 10.7595 45.9191 10.3995 46.5591 10.3195C47.2791 10.1595 47.8791 10.2395 48.3591 10.5595C48.8391 10.8795 49.1191 11.4395 49.1991 12.2395C49.2791 12.8795 49.0791 13.7995 48.5991 14.9995C48.1991 16.1995 47.7591 17.1995 47.2791 17.9995C47.1991 18.1595 46.9991 18.9195 46.6791 20.2795C46.2791 21.7995 46.0791 23.0395 46.0791 23.9995C45.9991 25.2795 46.1991 25.9195 46.6791 25.9195C48.0391 25.7595 49.7591 23.8395 51.8391 20.1595L51.9591 20.0395C52.9991 14.9195 53.7591 11.8795 54.2391 10.9195C54.7191 9.95953 55.3191 9.31953 56.0391 8.99953C56.8391 8.67953 57.5191 8.67953 58.0791 8.99953C58.7191 9.23953 59.0391 9.63953 59.0391 10.1995C59.1191 10.6795 59.0791 11.2795 58.9191 11.9995L58.5591 12.8395L59.3991 11.6395C60.1191 10.6795 60.7991 9.87953 61.4391 9.23953C62.3991 8.35953 63.2391 7.87953 63.9591 7.79953C64.6791 7.63953 65.3591 7.79953 65.9991 8.27953C66.6391 8.75953 67.0391 9.47953 67.1991 10.4395C67.2791 11.0795 66.9591 12.2395 66.2391 13.9195C65.9191 14.7195 65.7191 15.2795 65.6391 15.5995C65.4791 16.0795 65.5191 16.3995 65.7591 16.5595C66.0791 16.7195 67.2391 15.7195 69.2391 13.5595C69.5591 12.5995 70.0791 11.4795 70.7991 10.1995C71.5191 8.91953 72.4391 8.11953 73.5591 7.79953C74.6791 7.39953 75.5591 7.43953 76.1991 7.91953C76.5191 8.07953 76.7191 8.35953 76.7991 8.75953C76.9591 9.15953 76.9591 9.67953 76.7991 10.3195C76.6391 11.1995 76.0391 12.1195 74.9991 13.0795C74.1191 15.8795 73.5191 18.1195 73.1991 19.7995C72.7991 22.1195 72.8791 23.3195 73.4391 23.3995C74.2391 23.3995 75.3991 22.5595 76.9191 20.8795C78.4391 19.1995 79.4391 17.5995 79.9191 16.0795L79.4391 14.6395C79.1191 13.4395 79.0391 12.3995 79.1991 11.5195C79.3591 9.99953 79.7991 8.87953 80.5191 8.15953C81.2391 7.35953 81.9991 6.95953 82.7991 6.95953C83.9991 6.87953 84.8391 7.27953 85.3191 8.15953C85.8791 8.95953 86.0791 10.0795 85.9191 11.5195C85.6791 12.7195 85.1991 14.1195 84.4791 15.7195C84.8791 16.0395 85.4791 16.2795 86.2791 16.4395C87.4791 13.7995 89.1191 11.5995 91.1991 9.83953C93.2791 7.99953 95.2791 7.07953 97.1991 7.07953C98.3991 7.07953 99.4391 7.39953 100.319 8.03953C101.279 8.83953 101.799 9.91953 101.879 11.2795C101.879 13.3595 101.119 15.1995 99.5991 16.7995C98.3991 18.0795 96.7991 19.0795 94.7991 19.7995C93.1991 20.3595 91.7591 20.6795 90.4791 20.7595C90.3191 22.8395 91.0791 23.8795 92.7591 23.8795C95.4791 23.8795 98.7591 21.9595 102.599 18.1195C103.559 15.0795 104.759 12.2395 106.199 9.59953C107.639 6.87953 109.159 4.75953 110.759 3.23953C112.359 1.63953 113.879 0.719529 115.319 0.479527C116.759 0.159527 117.919 0.439528 118.799 1.31953C119.679 2.19953 120.119 3.47953 120.119 5.15953C120.119 7.63953 118.559 10.5595 115.439 13.9195C112.959 16.5595 110.319 18.7595 107.519 20.5195L107.159 21.8395C106.999 22.7995 107.119 23.4795 107.519 23.8795C107.919 24.1995 108.679 24.0795 109.799 23.5195C110.919 22.8795 111.959 21.9995 112.919 20.8795ZM115.559 5.03953C114.919 5.03953 113.919 5.95953 112.559 7.79953C111.679 9.15953 110.639 10.9195 109.439 13.0795L107.999 15.8395L110.039 13.9195C111.639 12.3995 112.959 10.9995 113.999 9.71953C115.359 7.95953 116.039 6.59953 116.039 5.63953C116.039 5.23953 115.879 5.03953 115.559 5.03953ZM96.1191 11.9995C95.5591 11.9995 94.8791 12.4395 94.0791 13.3195C93.3591 14.1195 92.6791 15.1195 92.0391 16.3195C93.4791 16.2395 94.6791 15.8795 95.6391 15.2395C96.6791 14.5995 97.1991 13.8395 97.1991 12.9595C97.1991 12.3195 96.8391 11.9995 96.1191 11.9995ZM41.9991 17.0395C42.1591 16.4795 42.1991 16.0795 42.1191 15.8395C42.0391 15.5195 41.8391 15.3595 41.5191 15.3595C40.6391 15.3595 39.7591 15.9995 38.8791 17.2795C38.0791 18.3995 37.3591 19.7995 36.7191 21.4795C36.1591 23.1595 35.8391 24.6395 35.7591 25.9195C35.7591 27.1995 36.0391 27.8395 36.5991 27.8395C37.3991 27.7595 38.4791 26.1995 39.8391 23.1595C41.1191 20.3595 41.8391 18.3195 41.9991 17.0395ZM12.4791 19.4395C11.4391 19.4395 10.3591 20.9195 9.23914 23.8795C8.11914 26.5995 7.23914 29.8795 6.59914 33.7195C5.95914 37.4795 5.71914 40.5195 5.87914 42.8395C5.95914 44.0395 5.51914 44.9595 4.55914 45.5995C3.59914 46.1595 2.59914 46.1995 1.55914 45.7195C0.599141 45.2395 0.119141 44.2395 0.119141 42.7195C0.0391406 37.7595 0.639141 32.7995 1.91914 27.8395C3.19914 22.8795 4.83914 18.8395 6.83914 15.7195C8.99914 12.5195 11.1991 10.9995 13.4391 11.1595C14.7191 11.2395 15.7191 11.8795 16.4391 13.0795C16.9191 13.8795 17.2391 14.9595 17.3991 16.3195V17.9995L18.7191 14.9995C19.9191 12.6795 21.1191 10.7995 22.3191 9.35953C24.0791 7.35953 25.7991 6.35953 27.4791 6.35953C28.3591 6.35953 29.1191 6.71953 29.7591 7.43953C30.4791 8.15953 30.9191 9.11953 31.0791 10.3195C31.2391 11.5195 31.1191 12.9595 30.7191 14.6395C30.4791 15.6795 30.0391 17.2795 29.3991 19.4395C28.4391 22.5595 27.7991 24.9195 27.4791 26.5195C27.0791 29.3195 27.1191 31.8795 27.5991 34.1995C27.7591 35.0795 27.3591 35.7995 26.3991 36.3595C25.4391 36.9195 24.4391 37.0395 23.3991 36.7195C22.3591 36.3195 21.7191 35.3595 21.4791 33.8395C21.2391 32.3195 21.3191 30.3995 21.7191 28.0795C21.8791 26.7195 22.2791 24.7595 22.9191 22.1995C23.3991 20.0395 23.6791 18.5995 23.7591 17.8795C23.9191 16.7595 23.7191 16.1995 23.1591 16.1995C22.1191 16.1995 21.0391 17.6395 19.9191 20.5195C18.9591 22.9995 18.1591 25.9595 17.5191 29.3995C16.9591 32.7595 16.7991 35.2795 17.0391 36.9595C17.1191 37.9195 16.6791 38.6795 15.7191 39.2395C14.8391 39.7995 13.8791 39.8395 12.8391 39.3595C11.8791 38.8795 11.3191 37.8795 11.1591 36.3595C11.0791 34.8395 11.4791 31.7995 12.3591 27.2395C12.8391 24.5995 13.1191 22.7995 13.1991 21.8395C13.2791 20.2395 13.0391 19.4395 12.4791 19.4395Z" fill="white"/>
</svg>
