<svg width="120" height="27" viewBox="0 0 120 27" fill="none" xmlns="http://www.w3.org/2000/svg">
<path d="M41.76 10.0803C42.4 9.44031 43.12 9.00031 43.92 8.76031C44.8 8.52031 45.64 8.52031 46.44 8.76031V13.3203C44.68 13.1603 43.4 13.4003 42.6 14.0403C42.04 14.4403 41.6 15.0003 41.28 15.7203C40.96 16.3603 40.84 17.0403 40.92 17.7603V26.0403H35.52V8.76031H40.56V11.6403C40.72 11.4803 40.92 11.2403 41.16 10.9203C41.4 10.5203 41.6 10.2403 41.76 10.0803ZM34.32 18.8403H21.84C22 20.3603 22.64 21.4803 23.76 22.2003C24.64 22.6803 25.6 22.8403 26.64 22.6803C27.76 22.4403 28.52 21.8403 28.92 20.8803H34.08C33.52 22.8803 32.28 24.4003 30.36 25.4403C28.44 26.4803 26.28 26.8003 23.88 26.4003C22.76 26.2403 21.68 25.8403 20.64 25.2003C19.6 24.5603 18.8 23.7603 18.24 22.8003C16.88 20.8803 16.4 18.5203 16.8 15.7203C16.96 14.3603 17.4 13.1203 18.12 12.0003C18.84 10.8003 19.8 9.92031 21 9.36031C22.84 8.32031 24.88 8.00031 27.12 8.40031C29.44 8.80031 31.2 9.84031 32.4 11.5203C33.68 13.4403 34.32 15.8803 34.32 18.8403ZM21.84 15.4803H28.92C28.76 14.3603 28.36 13.4803 27.72 12.8403C27.24 12.3603 26.64 12.1203 25.92 12.1203C25.2 12.0403 24.52 12.1203 23.88 12.3603C22.84 12.9203 22.16 13.9603 21.84 15.4803ZM12.36 8.76031C13.16 8.68031 14.32 8.68031 15.84 8.76031H17.64L11.64 26.0403H6.12C5.4 24.1203 4.36 21.2403 3 17.4003C1.72 13.5603 0.72 10.6803 0 8.76031H5.52L8.88 19.9203C9.44 18.4003 10.16 16.1603 11.04 13.2003C11.6 11.2003 12.04 9.72031 12.36 8.76031ZM68.4 13.5603L60.96 21.8403H69.48V26.0403H54.6V22.0803L62.52 13.2003C62.68 13.1203 62.72 13.0003 62.64 12.8403C61.76 12.8403 60.44 12.8403 58.68 12.8403C56.92 12.8403 55.56 12.8803 54.6 12.9603V8.76031H69.12L69 12.7203C68.92 12.9603 68.72 13.2403 68.4 13.5603ZM47.88 8.76031H53.16V26.0403H47.88V8.76031ZM117.24 0.120311C117.88 0.0403101 118.8 0.000309467 120 0.000309467L111.84 17.4003H109.68L105.6 8.76031H106.56C107.36 8.68031 107.96 8.68031 108.36 8.76031C108.6 9.32031 109 10.2003 109.56 11.4003C110.12 12.5203 110.52 13.4003 110.76 14.0403L113.16 8.88031C115 4.96031 116.36 2.04031 117.24 0.120311ZM105.36 12.1203C105.6 13.0003 105.72 14.3203 105.72 16.0803V26.0403H100.44V15.6003C100.44 14.4803 100.08 13.6403 99.36 13.0803C98.72 12.6803 98.04 12.5203 97.32 12.6003C96.6 12.6803 96 12.9603 95.52 13.4403C94.8 14.2403 94.44 15.2403 94.44 16.4403V26.0403H89.16V8.76031H94.32V11.1603L94.56 10.8003C95.12 10.0803 95.6 9.60031 96 9.36031C96.8 8.72031 97.76 8.36031 98.88 8.28031C100.08 8.20031 101.2 8.36031 102.24 8.76031C103.68 9.40031 104.72 10.5203 105.36 12.1203ZM47.88 2.52031H53.16V7.32031H47.88V2.52031ZM85.2 10.5603C86.4 11.6003 87.24 12.9603 87.72 14.6403C88.2 16.2403 88.24 17.8803 87.84 19.5603C87.44 21.2403 86.68 22.6803 85.56 23.8803C84.2 25.3203 82.48 26.2003 80.4 26.5203C78.4 26.8403 76.48 26.5603 74.64 25.6803C73.28 25.1203 72.16 24.2003 71.28 22.9203C70.4 21.6403 69.88 20.2403 69.72 18.7203C69.56 16.7203 69.76 15.0403 70.32 13.6803C70.96 12.3203 71.84 11.1603 72.96 10.2003C74.16 9.24031 75.48 8.64031 76.92 8.40031C78.44 8.16031 79.92 8.24031 81.36 8.64031C82.8 8.96031 84.08 9.60031 85.2 10.5603ZM81.6 21.4803C82.48 20.4403 82.84 18.8403 82.68 16.6803C82.52 14.8403 81.92 13.5203 80.88 12.7203C79.84 12.0803 78.72 11.9603 77.52 12.3603C76.24 12.7603 75.44 13.9603 75.12 15.9603C74.8 18.3603 75.16 20.2003 76.2 21.4803C76.76 22.2803 77.64 22.6803 78.84 22.6803C80.04 22.6803 80.96 22.2803 81.6 21.4803Z" fill="white"/>
</svg>
