<svg width="120" height="19" viewBox="0 0 120 19" fill="none" xmlns="http://www.w3.org/2000/svg">
<path d="M50.64 7.91828C51.52 8.39828 52.16 8.99828 52.56 9.71828C52.96 10.3583 53.16 11.3983 53.16 12.8383C53.16 15.5583 52.2 17.2383 50.28 17.8783C48.36 18.5183 45.56 18.6783 41.88 18.3583C40.04 18.1183 38.76 17.3583 38.04 16.0783C37.72 15.3583 37.56 14.4383 37.56 13.3183V12.2383H42.36V12.8383C42.36 13.5583 42.72 14.0383 43.44 14.2783C43.76 14.4383 44.36 14.5183 45.24 14.5183H45.36C46.32 14.5183 46.96 14.4383 47.28 14.2783C47.76 14.0383 48 13.5583 48 12.8383C48 12.1183 47.64 11.6383 46.92 11.3983C46.52 11.2383 45.92 11.1583 45.12 11.1583L43.8 11.0383C42.12 10.8783 41 10.7183 40.44 10.5583C39.32 10.1583 38.56 9.43828 38.16 8.39828C37.76 7.59828 37.56 6.55828 37.56 5.27828C37.56 3.91828 37.84 2.83828 38.4 2.03828C39.04 1.23828 39.88 0.71828 40.92 0.47828C41.64 0.238279 42.36 0.0782783 43.08 -0.00172067C43.56 -0.00172067 44.36 -0.00172067 45.48 -0.00172067H46.68C48.84 0.0782783 50.36 0.518279 51.24 1.31828C52.2 2.03828 52.68 3.19828 52.68 4.79828V5.99828H47.88V5.39828C47.88 4.91828 47.68 4.55828 47.28 4.31828C46.96 4.07828 46.68 3.95828 46.44 3.95828C46.28 3.87828 45.92 3.83828 45.36 3.83828C44.8 3.83828 44.36 3.87828 44.04 3.95828C43.8 3.95828 43.56 4.03828 43.32 4.19828C42.84 4.43828 42.6 4.87828 42.6 5.51828C42.6 6.15828 42.88 6.59828 43.44 6.83828C43.76 6.99828 44.44 7.11828 45.48 7.19828H45.72C48.04 7.19828 49.68 7.43828 50.64 7.91828ZM26.16 -0.00172067H26.4C28.08 0.0782783 29.32 0.198278 30.12 0.358278C31.4 0.598278 32.36 1.11828 33 1.91828C33.88 2.87828 34.36 4.27828 34.44 6.11828L34.56 9.23828C34.56 10.8383 34.52 11.8783 34.44 12.3583C34.28 14.9983 33.32 16.7583 31.56 17.6383C30.52 18.1983 28.72 18.4783 26.16 18.4783C23.6 18.4783 21.76 18.1983 20.64 17.6383C18.88 16.7583 17.92 14.9983 17.76 12.3583C17.68 11.8783 17.64 10.8383 17.64 9.23828C17.64 7.63828 17.68 6.59828 17.76 6.11828C17.84 4.27828 18.32 2.87828 19.2 1.91828C19.92 1.11828 20.92 0.598278 22.2 0.358278C22.92 0.198278 24.08 0.0782783 25.68 -0.00172067H26.16ZM29.4 11.0383L29.52 9.23828L29.4 7.55828C29.4 6.35828 29.24 5.51828 28.92 5.03828C28.44 4.39828 27.52 4.11828 26.16 4.19828C24.88 4.11828 24 4.39828 23.52 5.03828C23.04 5.59828 22.8 6.43828 22.8 7.55828L22.68 9.23828L22.8 11.0383C22.8 12.1583 23 12.9583 23.4 13.4383C23.88 14.1583 24.8 14.4783 26.16 14.3983C27.44 14.4783 28.36 14.1583 28.92 13.4383C29.24 12.9583 29.4 12.1583 29.4 11.0383ZM0 4.79828V0.358278H16.08V4.79828H10.8V18.2383H5.52V4.79828H0ZM76.2 0.358278V18.2383H81.24V0.358278H76.2ZM114.36 0.358278L120 18.3583H114.72L113.76 14.8783H107.88L106.92 18.2383H101.64L107.16 0.358278H114.36ZM108.96 10.9183H112.44L110.76 4.79828L108.96 10.9183ZM97.56 8.87828C98.52 9.11828 99.28 9.63828 99.84 10.4383C100.48 11.2383 100.8 12.2383 100.8 13.4383C100.72 15.1183 100.24 16.3583 99.36 17.1583C98.48 17.8783 96.88 18.2383 94.56 18.2383H85.32V0.358278H95.04C97.2 0.278279 98.72 0.79828 99.6 1.91828C100.24 2.79828 100.52 3.99828 100.44 5.51828C100.36 6.55828 99.96 7.39828 99.24 8.03828C98.76 8.43828 98.24 8.71828 97.68 8.87828C97.68 8.87828 97.64 8.87828 97.56 8.87828ZM90.36 4.43828V7.43828H93.72C94.76 7.43828 95.28 6.91828 95.28 5.87828C95.28 5.39828 95.16 5.03828 94.92 4.79828C94.68 4.55828 94.2 4.43828 93.48 4.43828H90.36ZM93.72 14.1583C94.28 14.1583 94.72 14.0383 95.04 13.7983C95.36 13.4783 95.52 12.9983 95.52 12.3583C95.52 11.3983 95.04 10.9183 94.08 10.9183H90.36V14.1583H93.72ZM67.2 6.95828V0.358278H72.24V18.2383H67.2V11.3983H61.44V18.2383H56.28V0.358278H61.44V6.95828H67.2Z" fill="white"/>
</svg>
