<svg width="220" height="220" viewBox="0 0 220 220" fill="none" xmlns="http://www.w3.org/2000/svg">
<circle cx="110" cy="110" r="110" fill="white"/>
<path d="M100.204 27.5896L99.8259 23.6316L96.2928 17.7107L98.23 17.5257L99.7806 20.6544L100.517 22.0326L100.601 22.0246L101.077 20.5306L102.035 17.1622L103.958 16.9784L101.596 23.4625L101.974 27.4205L100.204 27.5896Z" fill="#0C1E21"/>
<path d="M91.4073 29.2803C90.8511 29.4022 90.3257 29.4026 89.831 29.2817C89.3455 29.1588 88.9008 28.917 88.4969 28.5564C88.0931 28.1958 87.7402 27.719 87.4382 27.1259C87.1454 26.5307 86.9081 25.8183 86.7264 24.9887C86.5406 24.1408 86.4644 23.3788 86.4978 22.7026C86.5292 22.0174 86.6666 21.4235 86.9101 20.9211C87.1516 20.4096 87.4899 19.9915 87.9252 19.6668C88.3604 19.3421 88.8972 19.1099 89.5354 18.9701C90.2556 18.8123 90.9045 18.8086 91.4821 18.9592C92.0689 19.1077 92.5741 19.4079 92.998 19.8596C93.4198 20.3023 93.7445 20.8904 93.9722 21.624L92.29 21.9926C92.1264 21.5507 91.9214 21.2039 91.6751 20.9521C91.438 20.6983 91.1677 20.5329 90.8642 20.4561C90.5587 20.3702 90.2191 20.3681 89.8453 20.45C89.353 20.5579 88.9747 20.7937 88.7104 21.1573C88.4441 21.5119 88.2933 21.9796 88.2582 22.5606C88.2231 23.1416 88.2904 23.8195 88.4602 24.5945C88.586 25.1689 88.7444 25.674 88.9355 26.1099C89.1245 26.5366 89.3396 26.886 89.5808 27.1581C89.831 27.4281 90.1109 27.6152 90.4203 27.7194C90.7298 27.8236 91.0623 27.8367 91.4179 27.7588C91.8464 27.6649 92.1891 27.4847 92.446 27.2183C92.7121 26.9498 92.8852 26.6061 92.9654 26.1872C93.0547 25.7663 93.0375 25.2733 92.9136 24.708L92.7818 24.1063L93.285 24.4403L90.6592 25.0156L90.3776 23.7301L94.3025 22.8702L95.48 28.2447L94.2355 28.5174L93.7939 26.8943L93.7119 26.9123C93.6701 27.3323 93.546 27.7034 93.3395 28.0257C93.1331 28.3481 92.8625 28.6175 92.5278 28.8342C92.2002 29.0397 91.8267 29.1885 91.4073 29.2803Z" fill="#0C1E21"/>
<path d="M82.1356 31.9877C81.5364 32.197 80.9679 32.282 80.4302 32.2425C79.8981 32.1911 79.3967 32.0153 78.926 31.715C78.4642 31.4117 78.0418 30.9809 77.6589 30.4227C77.2848 29.8613 76.9546 29.1709 76.6683 28.3515C76.382 27.532 76.212 26.7906 76.1582 26.1273C76.1101 25.452 76.1723 24.8519 76.3449 24.327C76.5262 23.7989 76.8105 23.3536 77.1979 22.9908C77.591 22.6162 78.0871 22.3242 78.6863 22.1149C79.2854 21.9056 79.8511 21.8266 80.3831 21.878C80.9209 21.9175 81.4207 22.0889 81.8826 22.3922C82.3533 22.6924 82.7757 23.1232 83.1498 23.6846C83.5327 24.2429 83.8657 24.9273 84.1489 25.7379C84.4352 26.5574 84.6039 27.3091 84.6551 27.9932C84.7031 28.6685 84.6409 29.2686 84.4684 29.7935C84.2928 30.3096 84.0085 30.755 83.6154 31.1296C83.228 31.4924 82.7347 31.7784 82.1356 31.9877ZM81.6415 30.5735C82.0997 30.4135 82.4352 30.143 82.6482 29.7621C82.8581 29.3724 82.9471 28.8915 82.9153 28.3193C82.8804 27.7383 82.7321 27.0733 82.4704 26.3244C82.2672 25.7428 82.0462 25.2516 81.8072 24.8506C81.5652 24.4409 81.3053 24.1214 81.0275 23.8922C80.7554 23.6511 80.461 23.5018 80.1444 23.4444C79.8365 23.3839 79.5152 23.4121 79.1804 23.5291C78.7222 23.6892 78.3866 23.9596 78.1737 24.3405C77.9607 24.7214 77.8717 25.2024 77.9066 25.7834C77.9384 26.3555 78.0852 27.0161 78.3468 27.765C78.55 28.3466 78.7726 28.8422 79.0146 29.252C79.2567 29.6618 79.5137 29.9872 79.7858 30.2283C80.0636 30.4575 80.3564 30.6023 80.6643 30.6628C80.9721 30.7234 81.2979 30.6936 81.6415 30.5735Z" fill="#0C1E21"/>
<path d="M71.0525 36.6751L66.6384 27.473L68.2415 26.704L72.1167 34.7827L71.6997 34.6256L75.0069 33.0392L75.6851 34.453L71.0525 36.6751Z" fill="#0C1E21"/>
<path d="M65.6296 40.0552C65.0914 40.3914 64.5556 40.5996 64.0223 40.6796C63.492 40.7468 62.9642 40.6858 62.439 40.4968C61.9216 40.3028 61.4146 39.9757 60.9181 39.5155C60.4294 39.0505 59.9552 38.4498 59.4953 37.7137C59.0354 36.9775 58.7061 36.2919 58.5073 35.6567C58.3116 35.0086 58.24 34.4096 58.2925 33.8595C58.353 33.3045 58.5321 32.8074 58.83 32.3682C59.1309 31.9161 59.5504 31.5219 60.0887 31.1857C60.6269 30.8494 61.1612 30.6477 61.6915 30.5805C62.2248 30.5005 62.7501 30.5575 63.2675 30.7515C63.7928 30.9406 64.2997 31.2676 64.7884 31.7327C65.2849 32.1929 65.7607 32.787 66.2156 33.5153C66.6755 34.2514 67.0058 34.9475 67.2065 35.6035C67.4023 36.2515 67.4739 36.8506 67.4213 37.4006C67.3638 37.9428 67.1847 38.4399 66.8838 38.892C66.586 39.3312 66.1679 39.7189 65.6296 40.0552ZM64.8359 38.7847C65.2476 38.5276 65.5152 38.1898 65.639 37.7713C65.7578 37.3449 65.7386 36.8562 65.5814 36.3051C65.4193 35.7461 65.128 35.1302 64.7077 34.4573C64.3813 33.9349 64.0574 33.5045 63.7359 33.1661C63.4095 32.8197 63.0856 32.5654 62.7641 32.4031C62.4455 32.2279 62.1255 32.1472 61.804 32.161C61.4904 32.1699 61.1832 32.2682 60.8824 32.4561C60.4708 32.7133 60.2031 33.0511 60.0793 33.4696C59.9556 33.888 59.9748 34.3768 60.1369 34.9358C60.2941 35.4868 60.5829 36.0988 61.0032 36.7716C61.3296 37.2941 61.656 37.7285 61.9824 38.0748C62.3088 38.4211 62.6312 38.6819 62.9498 38.857C63.2713 39.0194 63.5888 39.0961 63.9025 39.0873C64.2161 39.0784 64.5272 38.9776 64.8359 38.7847Z" fill="#0C1E21"/>
<path d="M54.6666 48.0661L48.2584 40.1227L49.8602 38.8305L57.1032 42.4129L57.1577 42.3689L55.0002 39.8284L52.4862 36.712L53.7719 35.6748L60.1801 43.6182L58.6329 44.8664L51.4229 41.3473L51.3575 41.4L53.4007 43.799L55.9851 47.0025L54.6666 48.0661Z" fill="#0C1E21"/>
<path d="M47.6333 55.1633L40.3172 48.0473L41.5471 46.7828L48.8632 53.8987L47.6333 55.1633ZM51.3718 51.3195L44.0557 44.2036L45.2758 42.9491L52.592 50.065L51.3718 51.3195ZM45.3784 51.0561L44.2945 50.0019L47.3498 46.8607L48.4337 47.9149L45.3784 51.0561Z" fill="#0C1E21"/>
<path d="M44.2195 59.6946C43.8383 60.1902 43.4146 60.565 42.9485 60.8188C42.4808 61.0595 41.9706 61.1793 41.418 61.1781C40.8655 61.177 40.2762 61.0475 39.6502 60.7897C39.03 60.5246 38.3758 60.1273 37.6878 59.5981C37.0072 59.0746 36.4592 58.547 36.0438 58.0155C35.6341 57.4766 35.3578 56.9403 35.215 56.4065C35.0778 55.8653 35.0721 55.3369 35.1979 54.8214C35.322 54.2927 35.5775 53.7769 35.9644 53.2738C36.4083 52.6968 36.9006 52.2865 37.4412 52.0429C37.9801 51.7863 38.5579 51.7009 39.1748 51.7868C39.79 51.8597 40.4282 52.1092 41.0894 52.5355L40.0395 53.9004C39.6429 53.6659 39.2713 53.5214 38.9247 53.4667C38.5707 53.4064 38.2455 53.4388 37.949 53.564C37.6509 53.6761 37.3851 53.8838 37.1518 54.1872C36.8559 54.5718 36.723 54.9819 36.7532 55.4172C36.789 55.8451 36.9777 56.2964 37.3191 56.771C37.6588 57.2325 38.1431 57.7051 38.7719 58.1888C39.2602 58.5644 39.7177 58.8575 40.1445 59.068C40.5713 59.2786 40.9645 59.4103 41.3241 59.4633C41.6821 59.5031 42.0064 59.4641 42.2972 59.3463C42.588 59.2285 42.8444 59.0254 43.0663 58.7369C43.2996 58.4335 43.4351 58.1197 43.4726 57.7953C43.5102 57.471 43.4544 57.1455 43.3053 56.8188C43.1488 56.4865 42.9036 56.1624 42.5695 55.8466L43.6195 54.4817C44.2363 55.0268 44.6634 55.5968 44.9007 56.1914C45.1306 56.7804 45.1841 57.3691 45.0612 57.9575C44.9383 58.5459 44.6577 59.125 44.2195 59.6946Z" fill="#0C1E21"/>
<path d="M37.4912 69.6095L28.7859 64.2822L31.7527 59.4339L33.0424 60.2232L30.8136 63.8653L30.707 63.4226L37.3823 67.5076L36.9396 67.6141L39.1757 63.96L40.4654 64.7493L37.4912 69.6095ZM34.3841 66.0503L33.178 65.3122L35.1511 62.088L36.3572 62.8261L34.3841 66.0503Z" fill="#0C1E21"/>
<path d="M34.5091 75.644L26.519 71.8108L27.276 70.2329L35.2661 74.0662L34.5091 75.644ZM25.6718 73.9975L24.296 73.3374L27.0937 67.5058L28.4695 68.1658L25.6718 73.9975Z" fill="#0C1E21"/>
<path d="M29.4377 89.9307L19.6711 86.9683L20.5692 84.0075C20.832 83.1411 21.2421 82.4804 21.7995 82.0252C22.3507 81.5585 23.0372 81.2888 23.859 81.2162C24.6718 81.1409 25.6008 81.2617 26.6458 81.5787C27.3692 81.7981 28.0071 82.0745 28.5595 82.4079C29.1145 82.7323 29.5577 83.1203 29.8888 83.5719C30.2227 84.0145 30.4358 84.518 30.5279 85.0824C30.6111 85.6441 30.5471 86.2732 30.3358 86.9699L29.4377 89.9307ZM28.4947 87.8305L28.8848 86.5444C28.9905 86.1961 29.0228 85.8645 28.9817 85.5497C28.9406 85.2349 28.8101 84.9417 28.5901 84.6702C28.3729 84.3897 28.0603 84.134 27.6524 83.903C27.2384 83.6603 26.7187 83.4442 26.0935 83.2546C25.254 82.9999 24.5557 82.8905 23.9986 82.9264C23.4443 82.9533 23.0084 83.1039 22.6911 83.3783C22.3676 83.641 22.1368 84.0002 21.9986 84.4557L21.6085 85.7418L28.4947 87.8305Z" fill="#0C1E21"/>
<path d="M27.6156 99.757L17.5638 97.9894L17.9202 95.9625L25.7321 93.8962L25.7443 93.8273L22.4481 93.3329L18.5046 92.6395L18.7907 91.0125L28.8425 92.78L28.4982 94.738L20.7528 96.8302L20.7382 96.9129L23.8552 97.3757L27.909 98.0886L27.6156 99.757Z" fill="#0C1E21"/>
<path d="M26.9545 110.348L16.9065 107.131L17.0386 104.671L27.3741 102.534L27.2795 104.295L19.9294 105.667L18.3596 105.919L18.3543 106.017L19.8881 106.436L27.0491 108.587L26.9545 110.348ZM24.8613 108.077L23.5187 107.752L23.6794 104.761L25.0497 104.568L24.8613 108.077Z" fill="#0C1E21"/>
<path d="M27.7941 120.868L23.8415 121.299L17.9679 124.91L17.7572 122.975L20.8652 121.384L22.2335 120.629L22.2244 120.545L20.7242 120.089L17.3435 119.176L17.1343 117.255L23.649 119.531L27.6016 119.101L27.7941 120.868Z" fill="#0C1E21"/>
<path d="M29.3584 128.652C29.4975 129.262 29.5163 129.827 29.415 130.348C29.3025 130.862 29.0697 131.332 28.7168 131.757C28.3639 132.182 27.8886 132.554 27.2911 132.872C26.6915 133.181 25.9686 133.432 25.1223 133.625C24.2852 133.816 23.5294 133.902 22.8551 133.884C22.1787 133.856 21.5893 133.728 21.0868 133.498C20.5824 133.258 20.1715 132.926 19.8543 132.501C19.5258 132.068 19.2911 131.543 19.1499 130.924C18.988 130.214 18.9854 129.573 19.1421 129.002C19.2877 128.423 19.5901 127.923 20.0493 127.502C20.4974 127.074 21.0964 126.742 21.8462 126.503L22.2292 128.182C21.7958 128.339 21.4476 128.533 21.1847 128.765C20.9127 129 20.7305 129.271 20.6381 129.579C20.5345 129.881 20.5252 130.218 20.6104 130.591C20.7183 131.064 20.9497 131.428 21.3044 131.682C21.6571 131.927 22.1251 132.069 22.7084 132.108C23.2806 132.14 23.9534 132.068 24.7268 131.892C25.3274 131.755 25.8448 131.589 26.279 131.394C26.7132 131.199 27.0653 130.98 27.3353 130.737C27.594 130.486 27.7707 130.211 27.8651 129.912C27.9596 129.613 27.9664 129.286 27.8854 128.931C27.8003 128.558 27.6447 128.254 27.4187 128.018C27.1926 127.782 26.9062 127.618 26.5594 127.525C26.2036 127.434 25.7975 127.416 25.3413 127.472L24.9583 125.793C25.7715 125.665 26.4828 125.699 27.0924 125.895C27.6928 126.093 28.1806 126.427 28.5558 126.897C28.931 127.367 29.1985 127.952 29.3584 128.652Z" fill="#0C1E21"/>
<path d="M33.2557 141.608L23.6344 145.013L22.9479 143.073L28.7333 137.431L28.71 137.365L25.5969 138.556L21.8223 139.892L21.2711 138.334L30.8925 134.93L31.5557 136.804L25.8409 142.435L25.8689 142.514L28.8104 141.384L32.6906 140.011L33.2557 141.608Z" fill="#0C1E21"/>
<path d="M36.8999 149.227L27.7156 153.678L25.2367 148.563L26.5974 147.903L28.4596 151.746L28.0294 151.596L35.0719 148.183L34.9226 148.614L33.0543 144.759L34.4149 144.099L36.8999 149.227ZM32.2265 149.92L30.9541 150.537L29.3056 147.135L30.578 146.519L32.2265 149.92Z" fill="#0C1E21"/>
<path d="M40.4807 154.886C40.7843 155.368 40.9633 155.862 41.0177 156.368C41.0671 156.867 40.9908 157.367 40.7889 157.869C40.587 158.372 40.2585 158.866 39.8033 159.351C39.3431 159.829 38.7537 160.294 38.0352 160.747C37.3009 161.21 36.6101 161.54 35.9629 161.739C35.3077 161.942 34.7025 162.015 34.1473 161.956C33.5841 161.903 33.0759 161.727 32.6227 161.428C32.1694 161.129 31.7686 160.703 31.4202 160.15C31.027 159.527 30.8031 158.918 30.7484 158.323C30.6887 157.721 30.7993 157.144 31.0801 156.592C31.3531 156.044 31.7959 155.539 32.4085 155.076L33.3267 156.532C32.9667 156.837 32.7102 157.147 32.5571 157.464C32.399 157.774 32.3354 158.084 32.3662 158.396C32.3892 158.712 32.5027 159.032 32.7068 159.356C32.9755 159.782 33.3258 160.058 33.7576 160.183C34.1816 160.313 34.6727 160.296 35.231 160.131C35.7894 159.967 36.4041 159.673 37.0753 159.25C37.5727 158.937 37.9939 158.616 38.3389 158.288C38.6761 157.965 38.9316 157.644 39.1055 157.325C39.2744 156.998 39.3553 156.671 39.3481 156.345C39.3409 156.018 39.2403 155.701 39.0462 155.393C38.8122 155.022 38.5263 154.761 38.1884 154.61C37.8455 154.451 37.4634 154.405 37.0422 154.472C36.616 154.531 36.1582 154.715 35.6686 155.023L35.1475 155.352L35.2907 154.765L36.724 157.039L35.6107 157.741L33.4682 154.342L38.1227 151.408L38.8021 152.485L37.4256 153.452L37.4704 153.523C37.8796 153.42 38.2709 153.411 38.6442 153.495C39.0175 153.58 39.3629 153.743 39.6804 153.984C39.985 154.222 40.2518 154.523 40.4807 154.886Z" fill="#0C1E21"/>
<path d="M48.7424 166.044L39.1375 170.409L37.5828 168.498L43.8042 159.973L44.9173 161.341L40.3936 167.294L39.4 168.536L39.4619 168.612L40.8795 167.892L47.6293 164.675L48.7424 166.044ZM45.666 165.767L44.4534 166.428L42.563 164.104L43.4486 163.041L45.666 165.767Z" fill="#0C1E21"/>
<path d="M54.0868 171.202L47.0682 178.612L45.7774 177.389L52.796 169.979L54.0868 171.202Z" fill="#0C1E21"/>
<path d="M62.2987 177.951L53.8629 184.288L51.932 182.757L56.1661 173.089L57.5484 174.185L54.4167 180.975L53.7146 182.401L53.7914 182.462L55.0201 181.453L60.9164 176.855L62.2987 177.951ZM59.235 178.345L58.1939 179.253L55.8462 177.392L56.4814 176.162L59.235 178.345Z" fill="#0C1E21"/>
<path d="M73.3591 184.463L68.3926 193.379L66.8515 192.52L71.8181 183.604L73.3591 184.463ZM68.6749 181.853L63.7083 190.769L62.1795 189.918L67.1461 181.002L68.6749 181.853ZM69.9804 187.709L69.2447 189.03L65.4165 186.897L66.1523 185.576L69.9804 187.709Z" fill="#0C1E21"/>
<path d="M79.545 187.104L76.1178 195.276L74.504 194.599L77.9312 186.427L79.545 187.104ZM78.3443 196.012L77.7541 197.42L71.7894 194.918L72.3795 193.511L78.3443 196.012Z" fill="#0C1E21"/>
<path d="M85.4934 189.191L82.2983 198.884L80.6097 198.327L83.8048 188.634L85.4934 189.191Z" fill="#0C1E21"/>
<path d="M96.9027 191.962L96.6448 202.346L94.8518 201.96L95.2227 195.711L95.383 193.368L95.2872 193.347L94.4426 195.543L92.1282 201.374L90.0751 200.933L90.3736 194.753L90.4998 192.303L90.404 192.282L89.5798 194.582L87.3788 200.353L85.5859 199.967L89.6214 190.396L91.9481 190.896L91.6668 196.464L91.4876 199.16L91.5834 199.181L92.5291 196.649L94.5897 191.464L96.9027 191.962Z" fill="#0C1E21"/>
<path d="M108.358 192.738C108.927 192.756 109.436 192.884 109.886 193.122C110.327 193.36 110.699 193.703 111.003 194.152C111.306 194.6 111.532 195.149 111.679 195.798C111.818 196.446 111.874 197.195 111.847 198.044C111.82 198.912 111.708 199.669 111.51 200.317C111.312 200.973 111.033 201.516 110.675 201.943C110.315 202.38 109.885 202.703 109.384 202.911C108.882 203.12 108.305 203.214 107.652 203.193C106.915 203.17 106.285 203.015 105.762 202.728C105.229 202.44 104.812 202.026 104.512 201.484C104.211 200.952 104.04 200.302 103.999 199.535L105.72 199.589C105.771 200.057 105.885 200.444 106.062 200.748C106.23 201.052 106.451 201.279 106.727 201.427C107.002 201.585 107.331 201.67 107.713 201.682C108.217 201.698 108.642 201.562 108.987 201.274C109.332 200.995 109.592 200.579 109.768 200.024C109.944 199.469 110.045 198.795 110.07 198.002C110.088 197.415 110.058 196.886 109.979 196.417C109.9 195.957 109.777 195.565 109.61 195.243C109.433 194.92 109.207 194.67 108.933 194.493C108.658 194.316 108.339 194.222 107.975 194.211C107.537 194.197 107.16 194.288 106.846 194.484C106.523 194.679 106.271 194.97 106.09 195.357C105.901 195.743 105.797 196.225 105.779 196.803L105.76 197.419L105.354 196.972L108.04 197.056L107.999 198.372L103.983 198.246L104.155 192.747L105.429 192.787L105.46 194.468L105.544 194.471C105.687 194.074 105.898 193.744 106.177 193.482C106.456 193.22 106.784 193.025 107.162 192.897C107.53 192.778 107.928 192.725 108.358 192.738Z" fill="#0C1E21"/>
<path d="M121.619 192.184L122.528 202.349L120.478 202.533L116.45 195.527L116.381 195.533L116.761 198.845L117.117 202.833L115.472 202.98L114.563 192.814L116.544 192.637L120.579 199.572L120.663 199.564L120.298 196.434L119.932 192.335L121.619 192.184Z" fill="#0C1E21"/>
<path d="M126.118 191.329L127.917 201.376L126.166 201.689L124.368 191.643L126.118 191.329Z" fill="#0C1E21"/>
<path d="M132.677 189.754L134.919 198.327L133.226 198.77L130.984 190.197L132.677 189.754ZM137.135 197.56L137.521 199.036L131.264 200.673L130.878 199.196L137.135 197.56Z" fill="#0C1E21"/>
<path d="M142.284 186.434L145.857 195.994L144.191 196.616L141.055 188.223L141.456 188.417L138.02 189.701L137.471 188.232L142.284 186.434Z" fill="#0C1E21"/>
<path d="M148.213 183.44C148.887 183.098 149.523 182.939 150.12 182.961C150.713 182.995 151.246 183.191 151.72 183.547C152.197 183.912 152.603 184.423 152.936 185.081L155.978 191.089L154.442 191.867L151.406 185.872C151.187 185.439 150.947 185.121 150.687 184.917C150.419 184.718 150.137 184.616 149.841 184.609C149.544 184.602 149.234 184.681 148.909 184.845C148.559 185.022 148.302 185.236 148.136 185.488C147.974 185.747 147.903 186.04 147.921 186.365C147.944 186.699 148.056 187.066 148.259 187.466L151.295 193.461L149.771 194.232L146.729 188.225C146.383 187.542 146.213 186.896 146.218 186.286C146.227 185.685 146.402 185.142 146.742 184.656C147.073 184.174 147.564 183.769 148.213 183.44Z" fill="#0C1E21"/>
<path d="M155.164 179.382C155.814 178.96 156.424 178.726 156.995 178.679C157.57 178.639 158.096 178.765 158.574 179.056C159.044 179.352 159.461 179.771 159.824 180.314L158.426 181.221C158.183 180.845 157.925 180.567 157.652 180.388C157.385 180.216 157.108 180.14 156.82 180.16C156.525 180.184 156.217 180.301 155.896 180.509C155.614 180.692 155.405 180.894 155.271 181.115C155.136 181.336 155.077 181.563 155.095 181.796C155.11 182.042 155.201 182.294 155.369 182.553C155.516 182.78 155.669 182.948 155.829 183.056C155.993 183.172 156.181 183.239 156.393 183.257C156.602 183.288 156.844 183.276 157.12 183.22C157.392 183.176 157.711 183.103 158.078 182.999C158.488 182.877 158.878 182.791 159.246 182.742C159.614 182.692 159.961 182.695 160.286 182.751C160.617 182.815 160.926 182.948 161.213 183.151C161.506 183.362 161.774 183.655 162.018 184.031C162.353 184.548 162.527 185.047 162.539 185.529C162.548 186.023 162.411 186.49 162.129 186.929C161.851 187.376 161.442 187.775 160.902 188.125C160.33 188.496 159.783 188.707 159.259 188.757C158.733 188.82 158.243 188.726 157.791 188.474C157.336 188.236 156.933 187.846 156.583 187.306L157.98 186.399C158.209 186.752 158.444 186.994 158.686 187.127C158.932 187.267 159.18 187.323 159.429 187.295C159.678 187.267 159.932 187.169 160.19 187.002C160.448 186.834 160.633 186.648 160.745 186.442C160.861 186.244 160.913 186.032 160.9 185.807C160.88 185.587 160.793 185.359 160.641 185.124C160.453 184.834 160.246 184.635 160.019 184.526C159.79 184.43 159.512 184.404 159.185 184.45C158.856 184.508 158.451 184.603 157.97 184.737C157.604 184.841 157.243 184.919 156.888 184.972C156.525 185.029 156.17 185.031 155.824 184.978C155.483 184.932 155.153 184.801 154.835 184.585C154.521 184.376 154.223 184.053 153.938 183.614C153.608 183.105 153.433 182.596 153.414 182.085C153.392 181.588 153.527 181.111 153.82 180.654C154.113 180.197 154.561 179.773 155.164 179.382Z" fill="#0C1E21"/>
<path d="M165.58 171.68L172.013 179.603L170.415 180.901L163.161 177.341L163.107 177.385L165.272 179.919L167.796 183.027L166.513 184.069L160.08 176.145L161.624 174.892L168.845 178.389L168.91 178.336L166.859 175.943L164.265 172.748L165.58 171.68Z" fill="#0C1E21"/>
<path d="M169.989 167.069C170.43 166.613 170.9 166.281 171.398 166.075C171.896 165.881 172.423 165.813 172.979 165.87C173.528 165.933 174.099 166.128 174.692 166.454C175.278 166.788 175.883 167.256 176.507 167.859C177.132 168.463 177.617 169.048 177.963 169.617C178.31 170.198 178.524 170.762 178.606 171.309C178.681 171.862 178.627 172.388 178.444 172.886C178.261 173.397 177.95 173.881 177.508 174.337C177.067 174.794 176.598 175.118 176.099 175.312C175.601 175.518 175.078 175.59 174.529 175.526C173.973 175.47 173.402 175.275 172.816 174.942C172.223 174.615 171.618 174.153 171 173.557C170.376 172.953 169.887 172.358 169.534 171.77C169.188 171.188 168.974 170.624 168.892 170.078C168.817 169.538 168.87 169.012 169.053 168.501C169.236 168.003 169.548 167.525 169.989 167.069ZM171.066 168.11C170.729 168.459 170.551 168.851 170.532 169.287C170.519 169.73 170.656 170.2 170.942 170.696C171.234 171.2 171.666 171.727 172.236 172.278C172.679 172.706 173.097 173.046 173.491 173.297C173.891 173.554 174.267 173.722 174.618 173.802C174.97 173.895 175.3 173.896 175.608 173.805C175.911 173.721 176.185 173.551 176.431 173.296C176.769 172.947 176.947 172.555 176.966 172.119C176.985 171.683 176.848 171.213 176.556 170.71C176.27 170.213 175.842 169.689 175.272 169.138C174.829 168.71 174.407 168.367 174.007 168.11C173.606 167.852 173.23 167.677 172.879 167.584C172.528 167.504 172.201 167.507 171.899 167.591C171.597 167.675 171.319 167.848 171.066 168.11Z" fill="#0C1E21"/>
<path d="M175.989 160.015C176.369 159.518 176.792 159.142 177.257 158.887C177.724 158.645 178.234 158.523 178.786 158.523C179.339 158.522 179.928 158.65 180.555 158.906C181.176 159.169 181.832 159.564 182.521 160.091C183.203 160.613 183.753 161.138 184.17 161.669C184.582 162.206 184.859 162.742 185.004 163.275C185.143 163.816 185.15 164.344 185.026 164.86C184.904 165.389 184.65 165.906 184.264 166.41C183.822 166.989 183.331 167.4 182.791 167.646C182.253 167.904 181.676 167.991 181.058 167.907C180.443 167.836 179.804 167.589 179.142 167.164L180.187 165.796C180.585 166.029 180.957 166.173 181.303 166.226C181.658 166.286 181.983 166.252 182.279 166.126C182.577 166.013 182.842 165.805 183.074 165.5C183.369 165.115 183.5 164.704 183.469 164.269C183.432 163.841 183.242 163.391 182.899 162.917C182.558 162.457 182.072 161.986 181.442 161.504C180.952 161.13 180.494 160.838 180.066 160.629C179.639 160.42 179.245 160.289 178.885 160.237C178.527 160.199 178.203 160.239 177.913 160.357C177.622 160.476 177.366 160.68 177.145 160.969C176.913 161.273 176.779 161.587 176.742 161.912C176.705 162.236 176.762 162.562 176.912 162.888C177.07 163.22 177.316 163.543 177.651 163.858L176.606 165.226C175.987 164.683 175.558 164.114 175.319 163.52C175.087 162.932 175.032 162.343 175.153 161.755C175.274 161.166 175.553 160.586 175.989 160.015Z" fill="#0C1E21"/>
<path d="M182.384 150.224C182.761 149.548 183.191 149.055 183.673 148.747C184.163 148.443 184.687 148.308 185.246 148.342C185.799 148.384 186.364 148.56 186.939 148.87L186.127 150.325C185.736 150.107 185.378 149.982 185.054 149.95C184.737 149.923 184.457 149.986 184.212 150.138C183.962 150.298 183.744 150.545 183.558 150.879C183.394 151.172 183.304 151.448 183.288 151.707C183.272 151.965 183.327 152.193 183.451 152.391C183.58 152.601 183.778 152.782 184.047 152.932C184.284 153.064 184.497 153.14 184.689 153.161C184.888 153.187 185.086 153.159 185.282 153.075C185.481 153.005 185.69 152.881 185.907 152.703C186.127 152.537 186.375 152.323 186.65 152.06C186.956 151.76 187.26 151.502 187.563 151.286C187.865 151.07 188.173 150.911 188.487 150.808C188.809 150.71 189.144 150.683 189.493 150.728C189.85 150.778 190.225 150.912 190.616 151.13C191.154 151.43 191.541 151.79 191.776 152.21C192.016 152.643 192.113 153.12 192.069 153.64C192.033 154.165 191.857 154.709 191.544 155.271C191.212 155.866 190.826 156.308 190.387 156.597C189.951 156.899 189.474 157.045 188.957 157.034C188.443 157.036 187.905 156.88 187.342 156.566L188.154 155.111C188.521 155.316 188.842 155.42 189.117 155.424C189.401 155.433 189.647 155.367 189.854 155.226C190.06 155.085 190.239 154.88 190.389 154.611C190.539 154.342 190.615 154.09 190.618 153.856C190.628 153.627 190.575 153.416 190.458 153.222C190.337 153.037 190.154 152.876 189.91 152.74C189.608 152.572 189.332 152.492 189.081 152.502C188.833 152.524 188.576 152.631 188.308 152.824C188.044 153.029 187.73 153.303 187.368 153.646C187.093 153.91 186.81 154.148 186.521 154.36C186.227 154.581 185.914 154.748 185.583 154.863C185.26 154.982 184.907 155.02 184.525 154.978C184.151 154.94 183.735 154.794 183.279 154.539C182.749 154.243 182.356 153.875 182.101 153.433C181.848 153.003 181.745 152.518 181.79 151.977C181.836 151.436 182.034 150.852 182.384 150.224Z" fill="#0C1E21"/>
<path d="M185.799 143.351C186.113 142.642 186.495 142.112 186.946 141.76C187.406 141.413 187.916 141.23 188.475 141.212C189.03 141.202 189.608 141.325 190.21 141.58L189.536 143.104C189.126 142.923 188.758 142.832 188.432 142.831C188.115 142.833 187.841 142.921 187.611 143.095C187.378 143.278 187.183 143.544 187.029 143.894C186.893 144.201 186.829 144.484 186.837 144.743C186.845 145.002 186.921 145.224 187.063 145.409C187.21 145.607 187.425 145.768 187.706 145.893C187.954 146.002 188.174 146.058 188.366 146.062C188.567 146.069 188.761 146.022 188.949 145.921C189.141 145.833 189.337 145.69 189.537 145.492C189.741 145.307 189.968 145.071 190.217 144.783C190.494 144.457 190.773 144.172 191.054 143.929C191.335 143.685 191.627 143.498 191.93 143.367C192.242 143.239 192.573 143.182 192.925 143.194C193.285 143.21 193.67 143.309 194.08 143.49C194.643 143.739 195.062 144.062 195.336 144.459C195.614 144.868 195.755 145.333 195.759 145.855C195.772 146.381 195.648 146.939 195.387 147.528C195.112 148.151 194.769 148.627 194.358 148.955C193.952 149.296 193.491 149.485 192.975 149.523C192.463 149.572 191.913 149.466 191.324 149.206L191.997 147.682C192.381 147.852 192.711 147.926 192.986 147.905C193.269 147.887 193.507 147.799 193.7 147.639C193.893 147.479 194.052 147.259 194.176 146.977C194.301 146.695 194.354 146.438 194.334 146.205C194.323 145.976 194.251 145.77 194.117 145.588C193.979 145.415 193.782 145.272 193.526 145.159C193.21 145.019 192.928 144.966 192.678 144.999C192.434 145.044 192.187 145.174 191.939 145.391C191.695 145.62 191.408 145.922 191.079 146.297C190.829 146.584 190.57 146.847 190.302 147.086C190.029 147.333 189.733 147.528 189.414 147.673C189.104 147.822 188.756 147.892 188.371 147.886C187.995 147.883 187.568 147.775 187.09 147.564C186.535 147.319 186.11 146.988 185.814 146.572C185.524 146.168 185.376 145.694 185.371 145.151C185.366 144.608 185.509 144.008 185.799 143.351Z" fill="#0C1E21"/>
<path d="M189.857 132.69L199.548 135.891L197.766 141.288L196.33 140.814L197.669 136.759L197.874 137.166L190.443 134.712L190.849 134.507L189.506 138.575L188.07 138.101L189.857 132.69ZM193.694 135.447L195.037 135.89L193.852 139.479L192.509 139.036L193.694 135.447Z" fill="#0C1E21"/>
<path d="M192.047 122.932L202.033 125.038L201.609 127.052L193.732 128.853L193.717 128.922L196.995 129.527L200.913 130.353L200.572 131.97L190.585 129.864L190.995 127.919L198.807 126.089L198.824 126.007L195.725 125.439L191.697 124.59L192.047 122.932Z" fill="#0C1E21"/>
<path d="M192.544 118.379L202.677 119.599L202.464 121.364L192.331 120.144L192.544 118.379Z" fill="#0C1E21"/>
<path d="M192.752 113.646C192.787 112.872 192.951 112.239 193.245 111.748C193.548 111.258 193.956 110.903 194.471 110.683C194.985 110.473 195.568 110.378 196.222 110.399L196.145 112.063C195.698 112.043 195.322 112.091 195.018 112.208C194.723 112.325 194.499 112.506 194.348 112.752C194.196 113.006 194.112 113.325 194.094 113.707C194.079 114.043 194.122 114.33 194.223 114.568C194.324 114.806 194.475 114.986 194.675 115.107C194.884 115.238 195.142 115.311 195.45 115.325C195.72 115.337 195.946 115.31 196.126 115.244C196.316 115.178 196.48 115.064 196.618 114.902C196.765 114.75 196.896 114.545 197.011 114.289C197.134 114.042 197.26 113.74 197.389 113.381C197.528 112.977 197.685 112.61 197.859 112.282C198.033 111.953 198.237 111.673 198.472 111.441C198.716 111.209 199.005 111.035 199.337 110.92C199.679 110.805 200.073 110.757 200.521 110.778C201.136 110.806 201.643 110.955 202.042 111.226C202.449 111.506 202.75 111.889 202.942 112.374C203.144 112.86 203.231 113.424 203.201 114.068C203.17 114.748 203.023 115.316 202.759 115.771C202.504 116.236 202.143 116.579 201.675 116.801C201.216 117.032 200.665 117.133 200.021 117.104L200.097 115.439C200.517 115.458 200.851 115.408 201.099 115.289C201.357 115.17 201.547 115.001 201.669 114.782C201.791 114.564 201.859 114.301 201.873 113.993C201.887 113.685 201.843 113.426 201.741 113.216C201.647 113.006 201.506 112.841 201.315 112.72C201.124 112.609 200.888 112.546 200.609 112.534C200.264 112.518 199.981 112.57 199.761 112.691C199.549 112.822 199.367 113.033 199.213 113.325C199.068 113.626 198.911 114.012 198.74 114.48C198.611 114.839 198.465 115.178 198.301 115.497C198.136 115.826 197.931 116.116 197.686 116.366C197.451 116.617 197.152 116.809 196.791 116.942C196.439 117.075 196.002 117.13 195.48 117.106C194.874 117.078 194.358 116.924 193.932 116.643C193.515 116.371 193.205 115.984 193.004 115.479C192.803 114.975 192.719 114.364 192.752 113.646Z" fill="#0C1E21"/>
<path d="M192.625 104.055C192.579 103.301 192.685 102.654 192.942 102.115C193.209 101.584 193.6 101.172 194.115 100.879C194.639 100.585 195.27 100.416 196.006 100.371L202.727 99.9613L202.832 101.68L196.124 102.089C195.64 102.118 195.253 102.212 194.963 102.37C194.674 102.537 194.468 102.756 194.344 103.025C194.22 103.294 194.169 103.611 194.191 103.974C194.215 104.365 194.31 104.687 194.475 104.939C194.649 105.19 194.889 105.372 195.195 105.484C195.51 105.595 195.892 105.638 196.339 105.61L203.046 105.202L203.15 106.906L196.429 107.316C195.665 107.363 195.004 107.263 194.447 107.016C193.899 106.769 193.469 106.393 193.158 105.888C192.847 105.393 192.67 104.782 192.625 104.055Z" fill="#0C1E21"/>
<path d="M190.992 91.6022L201.039 89.8082L201.677 93.3777C201.842 94.3057 201.73 95.0321 201.34 95.5568C200.961 96.089 200.372 96.4265 199.573 96.5692C199.205 96.6349 198.859 96.635 198.535 96.5697C198.21 96.5044 197.926 96.375 197.683 96.1813C197.44 95.9877 197.248 95.7329 197.106 95.4169L197.023 95.4317C197.014 95.8599 196.923 96.2224 196.748 96.519C196.573 96.8156 196.332 97.0578 196.024 97.2455C195.726 97.4316 195.379 97.5599 194.984 97.6304C194.377 97.7387 193.841 97.7065 193.374 97.5339C192.918 97.3689 192.538 97.0717 192.233 96.6425C191.929 96.2133 191.716 95.6587 191.595 94.9788L190.992 91.6022ZM192.645 93.0562L192.928 94.6412C193.022 95.1649 193.228 95.5216 193.546 95.7112C193.866 95.9101 194.288 95.9628 194.812 95.8693C195.326 95.7774 195.689 95.5798 195.9 95.2766C196.113 94.9826 196.18 94.6151 196.102 94.1741L195.769 92.3135L197.024 92.0896L197.348 93.9088C197.401 94.2028 197.504 94.4356 197.658 94.6072C197.821 94.7772 198.017 94.8893 198.244 94.9434C198.481 94.9959 198.747 94.9959 199.041 94.9434C199.518 94.8581 199.865 94.6731 200.079 94.3882C200.294 94.1034 200.362 93.7405 200.283 93.2995L200.005 91.7421L192.645 93.0562Z" fill="#0C1E21"/>
<path d="M186.984 78.763L196.625 75.4153L197.64 78.3381C197.937 79.1934 197.994 79.969 197.81 80.6649C197.639 81.3666 197.243 81.9884 196.621 82.5304C196.007 83.0693 195.185 83.5179 194.153 83.8761C193.439 84.1241 192.761 84.2757 192.118 84.3309C191.478 84.395 190.892 84.3417 190.358 84.1713C189.828 84.0096 189.36 83.7277 188.953 83.3254C188.556 82.9201 188.237 82.3735 187.999 81.6858L186.984 78.763ZM188.981 79.907L189.422 81.1766C189.542 81.5205 189.711 81.8077 189.929 82.0381C190.147 82.2686 190.425 82.429 190.763 82.5192C191.103 82.6183 191.507 82.6413 191.972 82.5883C192.45 82.541 192.997 82.4102 193.615 82.1959C194.443 81.9081 195.072 81.5859 195.502 81.2294C195.934 80.8816 196.198 80.5034 196.294 80.0949C196.401 79.6921 196.376 79.2659 196.22 78.8163L195.779 77.5466L188.981 79.907Z" fill="#0C1E21"/>
<path d="M182.679 69.7432L191.849 65.2614L192.752 67.1103L187.649 73.3757L187.68 73.4386L190.637 71.8999L194.234 70.1416L194.959 71.6258L185.79 76.1076L184.917 74.3215L189.951 68.0744L189.914 67.9989L187.121 69.4576L183.423 71.2651L182.679 69.7432Z" fill="#0C1E21"/>
<path d="M176.984 60.7877L187.003 57.4807L188.343 59.5484L181.24 67.355L180.281 65.8747L185.419 60.4425L186.54 59.3153L186.487 59.2331L185 59.7964L177.943 62.268L176.984 60.7877ZM180.013 61.3939L181.289 60.8667L182.919 63.3808L181.924 64.3427L180.013 61.3939Z" fill="#0C1E21"/>
<path d="M169.648 52.2132L177.267 45.4233L181.049 49.6669L179.92 50.6728L177.079 47.4849L177.534 47.511L171.691 52.7176L171.717 52.263L174.567 55.4614L173.438 56.4673L169.648 52.2132ZM173.954 50.2698L175.01 49.329L177.524 52.1512L176.469 53.0919L173.954 50.2698Z" fill="#0C1E21"/>
<path d="M165.428 48.4156C164.964 47.9956 164.625 47.5431 164.41 47.0581C164.207 46.5724 164.129 46.0543 164.175 45.5036C164.22 44.9529 164.397 44.376 164.704 43.7729C165.019 43.176 165.467 42.556 166.05 41.9129C166.627 41.2767 167.197 40.773 167.76 40.4017C168.33 40.0368 168.887 39.8046 169.431 39.7053C169.981 39.6122 170.508 39.6491 171.012 39.816C171.529 39.9823 172.023 40.2785 172.493 40.7048C173.032 41.1937 173.402 41.7174 173.601 42.2759C173.813 42.8338 173.852 43.4166 173.716 44.0246C173.594 44.6319 173.294 45.2479 172.816 45.8726L171.54 44.7161C171.806 44.3397 171.98 43.9809 172.062 43.6399C172.151 43.2919 172.145 42.9652 172.044 42.6596C171.956 42.3533 171.77 42.0717 171.487 41.8147C171.127 41.4887 170.729 41.3232 170.293 41.3182C169.863 41.3194 169.398 41.4711 168.898 41.7732C168.411 42.0746 167.9 42.5192 167.368 43.107C166.954 43.5634 166.625 43.9958 166.381 44.4043C166.136 44.8127 165.973 45.194 165.892 45.5482C165.823 45.9018 165.836 46.2283 165.93 46.5276C166.024 46.8269 166.206 47.0988 166.475 47.3433C166.759 47.6003 167.061 47.7606 167.381 47.8242C167.701 47.8878 168.03 47.8584 168.368 47.7361C168.712 47.6069 169.054 47.3886 169.396 47.0811L170.672 48.2376C170.079 48.8085 169.476 49.1883 168.865 49.3769C168.259 49.5586 167.668 49.5644 167.091 49.3945C166.515 49.2245 165.96 48.8982 165.428 48.4156Z" fill="#0C1E21"/>
<path d="M159.218 43.1774L165.419 35.0713L166.831 36.1515L160.63 44.2577L159.218 43.1774Z" fill="#0C1E21"/>
<path d="M152.65 38.7857L155.81 28.7043L157.323 29.6638L155.191 35.7717L154.354 38.1912L154.436 38.2437L156.248 36.4582L160.882 31.9202L162.396 32.8797L154.613 40.0301L152.65 38.7857Z" fill="#0C1E21"/>
<path d="M142.578 33.5893L147.01 24.3958L150.364 26.013C150.709 26.1792 151.004 26.3628 151.249 26.5638C151.506 26.7605 151.716 26.9808 151.878 27.2247C152.045 27.4603 152.155 27.7154 152.209 27.9901C152.275 28.2605 152.284 28.5547 152.234 28.8727C152.184 29.1906 152.074 29.5262 151.904 29.8793C151.629 30.451 151.271 30.8694 150.833 31.1346C150.398 31.3913 149.909 31.4714 149.365 31.3749L149.328 31.4506C149.623 31.655 149.829 31.8837 149.946 32.1367C150.062 32.3897 150.101 32.6625 150.064 32.9553C150.026 33.248 149.922 33.571 149.752 33.9241L148.998 35.4878C148.917 35.656 148.842 35.8219 148.774 35.9857C148.714 36.1536 148.67 36.3295 148.644 36.5136L147.067 35.7536C147.086 35.6073 147.128 35.4459 147.192 35.2697C147.256 35.0934 147.331 34.917 147.416 34.7405L148.079 33.3659C148.229 33.0548 148.31 32.7886 148.324 32.5671C148.346 32.3497 148.297 32.1605 148.178 31.9994C148.059 31.8383 147.856 31.6889 147.57 31.5511L145.729 30.6634L146.331 29.415L148.059 30.2479C148.563 30.4911 148.989 30.5204 149.337 30.3359C149.685 30.1513 149.967 29.8363 150.181 29.3907C150.303 29.1385 150.379 28.9057 150.409 28.6924C150.44 28.479 150.42 28.2831 150.351 28.1046C150.294 27.9218 150.191 27.7583 150.043 27.6144C149.903 27.4745 149.716 27.3478 149.48 27.2343L147.929 26.4865L144.142 34.3432L142.578 33.5893Z" fill="#0C1E21"/>
<path d="M134.644 30.6906L138.073 21.078L143.427 22.9879L142.919 24.412L138.897 22.9772L139.309 22.7821L136.679 30.1531L136.484 29.7416L140.519 31.1811L140.011 32.6052L134.644 30.6906ZM137.491 26.9198L137.966 25.588L141.526 26.8581L141.051 28.1899L137.491 26.9198Z" fill="#0C1E21"/>
<path d="M130.049 29.6102C129.297 29.422 128.71 29.1354 128.287 28.7504C127.866 28.3564 127.599 27.8854 127.486 27.3375C127.382 26.792 127.405 26.2011 127.555 25.5651L129.171 25.9699C129.062 26.4044 129.035 26.7825 129.089 27.1039C129.145 27.4163 129.279 27.671 129.489 27.8681C129.709 28.0674 130.004 28.2135 130.375 28.3065C130.701 28.3881 130.991 28.4029 131.244 28.351C131.498 28.299 131.704 28.187 131.863 28.0151C132.032 27.8363 132.155 27.5975 132.23 27.2988C132.295 27.0362 132.313 26.8098 132.284 26.6197C132.257 26.4205 132.178 26.2371 132.047 26.0695C131.927 25.8952 131.753 25.7264 131.524 25.5634C131.307 25.3935 131.035 25.21 130.709 25.013C130.34 24.7955 130.012 24.569 129.725 24.3335C129.437 24.0979 129.203 23.842 129.022 23.5658C128.844 23.2805 128.731 22.9635 128.683 22.6149C128.638 22.2572 128.67 21.8611 128.779 21.4265C128.928 20.829 129.175 20.3616 129.52 20.0245C129.875 19.6805 130.31 19.4623 130.824 19.3697C131.34 19.268 131.91 19.2954 132.535 19.4519C133.196 19.6174 133.723 19.8745 134.117 20.2233C134.522 20.5653 134.787 20.9876 134.911 21.4902C135.047 21.986 135.036 22.5462 134.88 23.1709L133.264 22.7662C133.366 22.3588 133.383 22.0215 133.315 21.7544C133.249 21.4782 133.122 21.2585 132.932 21.0955C132.741 20.9324 132.497 20.8135 132.198 20.7386C131.9 20.6638 131.637 20.6558 131.411 20.7145C131.186 20.7643 130.996 20.8706 130.84 21.0335C130.693 21.1987 130.585 21.4171 130.517 21.6887C130.433 22.0237 130.429 22.3112 130.503 22.5511C130.589 22.7843 130.76 23.0051 131.016 23.2135C131.283 23.415 131.629 23.6461 132.054 23.9066C132.38 24.1037 132.683 24.3143 132.964 24.5385C133.254 24.765 133.497 25.0232 133.694 25.313C133.893 25.5938 134.022 25.9243 134.08 26.3046C134.141 26.6759 134.108 27.115 133.981 27.6221C133.834 28.2106 133.58 28.6858 133.22 29.0479C132.872 29.4031 132.43 29.6293 131.896 29.7264C131.362 29.8235 130.746 29.7848 130.049 29.6102Z" fill="#0C1E21"/>
<path d="M117.116 27.3147L118.057 18.5029L119.797 18.6888L118.856 27.5006L117.116 27.3147ZM115.713 18.4355L115.875 16.9181L122.307 17.6052L122.145 19.1226L115.713 18.4355Z" fill="#0C1E21"/>
<path d="M110.823 27.0171L111.107 16.8151L112.884 16.8644L112.601 27.0665L110.823 27.0171Z" fill="#0C1E21"/>
</svg>
