<svg width="220" height="220" viewBox="0 0 220 220" fill="none" xmlns="http://www.w3.org/2000/svg">
<circle cx="109.996" cy="109.996" r="109.996" fill="#0C1E21"/>
<path d="M102.523 27.3623L102.255 23.3953L98.8884 17.3782L100.83 17.2473L102.293 20.418L102.99 21.8162L103.074 21.8106L103.592 20.3304L104.643 16.99L106.571 16.86L104.029 23.2756L104.297 27.2426L102.523 27.3623Z" fill="white"/>
<path d="M93.6729 28.8138C93.1135 28.9201 92.5883 28.9059 92.0972 28.7712C91.6153 28.6347 91.1775 28.3807 90.7838 28.009C90.3902 27.6372 90.0507 27.1507 89.7655 26.5494C89.4894 25.9464 89.272 25.2276 89.1135 24.3932C88.9514 23.5405 88.8965 22.7766 88.9488 22.1017C88.9993 21.4176 89.1532 20.8278 89.4106 20.3324C89.6662 19.8278 90.0161 19.4193 90.4603 19.1069C90.9044 18.7945 91.4474 18.5773 92.0893 18.4553C92.8136 18.3176 93.4624 18.3321 94.0356 18.4987C94.6179 18.6636 95.1146 18.9777 95.5257 19.4411C95.935 19.8953 96.2432 20.4923 96.4503 21.232L94.7586 21.5534C94.6073 21.1072 94.412 20.7548 94.1729 20.4962C93.9429 20.2359 93.6773 20.0631 93.3761 19.9778C93.0732 19.8834 92.7337 19.8719 92.3578 19.9433C91.8626 20.0374 91.4779 20.2625 91.2036 20.6187C90.9275 20.9656 90.7638 21.429 90.7124 22.0088C90.6611 22.5886 90.7095 23.2682 90.8576 24.0475C90.9674 24.6252 91.1117 25.1346 91.2905 25.5756C91.4675 26.0075 91.6728 26.3627 91.9063 26.6414C92.1489 26.9183 92.4234 27.1131 92.7299 27.2259C93.0363 27.3387 93.3683 27.3611 93.7259 27.2931C94.1569 27.2112 94.5045 27.0407 94.7687 26.7815C95.0422 26.5205 95.2248 26.1818 95.3167 25.7653C95.4177 25.3471 95.4142 24.8537 95.3062 24.2852L95.1912 23.6801L95.6848 24.028L93.0441 24.5298L92.7984 23.237L96.7458 22.4869L97.7729 27.8921L96.5213 28.13L96.1251 26.4952L96.0426 26.5109C95.9892 26.9296 95.8548 27.2971 95.6394 27.6135C95.424 27.93 95.146 28.1918 94.8054 28.3991C94.4721 28.5954 94.0947 28.7336 93.6729 28.8138Z" fill="white"/>
<path d="M84.3214 31.2622C83.7167 31.4547 83.1461 31.5237 82.6096 31.4692C82.0792 31.403 81.5829 31.2133 81.1208 30.9001C80.6675 30.584 80.2573 30.1416 79.8901 29.5729C79.5319 29.0013 79.2211 28.3019 78.9577 27.4748C78.6944 26.6477 78.5451 25.9019 78.5098 25.2373C78.4806 24.5609 78.5596 23.9628 78.7466 23.4429C78.9426 22.9201 79.2393 22.4829 79.6366 22.1311C80.04 21.7676 80.5441 21.4895 81.1489 21.297C81.7536 21.1045 82.3212 21.0413 82.8516 21.1075C83.3881 21.162 83.883 21.3473 84.3362 21.6633C84.7983 21.9766 85.2085 22.419 85.5668 22.9906C85.934 23.5593 86.2478 24.2528 86.5083 25.071C86.7716 25.8981 86.9193 26.6542 86.9514 27.3395C86.9806 28.0158 86.9017 28.614 86.7146 29.1339C86.5247 29.6449 86.228 30.0822 85.8246 30.4457C85.4273 30.7975 84.9262 31.0696 84.3214 31.2622ZM83.867 29.8348C84.3295 29.6875 84.6724 29.4265 84.8959 29.0517C85.1166 28.668 85.219 28.1898 85.2032 27.6169C85.1845 27.0352 85.0548 26.3663 84.8141 25.6104C84.6272 25.0234 84.42 24.5262 84.1923 24.1187C83.9618 23.7024 83.7109 23.3757 83.4396 23.1389C83.1743 22.8903 82.8842 22.7329 82.5693 22.6666C82.2633 22.5976 81.9413 22.6168 81.6033 22.7244C81.1408 22.8716 80.7979 23.1327 80.5744 23.5075C80.3509 23.8823 80.2485 24.3605 80.2672 24.9423C80.283 25.5151 80.4113 26.1795 80.652 26.9355C80.8388 27.5224 81.0475 28.0241 81.278 28.4405C81.5085 28.8568 81.7564 29.1893 82.0216 29.4379C82.2929 29.6747 82.5816 29.8277 82.8877 29.8968C83.1937 29.9659 83.5202 29.9452 83.867 29.8348Z" fill="white"/>
<path d="M73.1043 35.6412L68.9486 26.3196L70.5726 25.5956L74.2209 33.7792L73.8085 33.6106L77.1586 32.117L77.7971 33.5492L73.1043 35.6412Z" fill="white"/>
<path d="M67.5868 38.8718C67.0393 39.1929 66.498 39.386 65.9627 39.4511C65.4307 39.5035 64.9048 39.4278 64.385 39.2242C63.8732 39.0158 63.3756 38.6748 62.8921 38.2009C62.4166 37.7224 61.9593 37.1088 61.5201 36.3601C61.0809 35.6114 60.7708 34.9168 60.5899 34.2763C60.4123 33.6231 60.3574 33.0223 60.4253 32.4739C60.5012 31.9208 60.6942 31.4289 61.0042 30.9981C61.3175 30.5546 61.7479 30.1723 62.2953 29.8512C62.8428 29.5301 63.3825 29.3434 63.9144 29.291C64.4497 29.2259 64.9732 29.2975 65.485 29.5059C66.0048 29.7095 66.5025 30.0506 66.978 30.5291C67.4615 31.0029 67.9205 31.6102 68.3549 32.3508C68.7941 33.0995 69.1049 33.8045 69.2872 34.4658C69.4648 35.1191 69.5197 35.7199 69.4518 36.2683C69.3792 36.8086 69.1863 37.3005 68.8729 37.744C68.5629 38.1747 68.1342 38.5507 67.5868 38.8718ZM66.8288 37.5797C67.2474 37.3341 67.5244 37.0039 67.6598 36.5891C67.7905 36.1662 67.7849 35.6771 67.6432 35.1218C67.4967 34.5585 67.2227 33.9347 66.8213 33.2504C66.5096 32.7191 66.1979 32.2798 65.886 31.9325C65.5693 31.5772 65.2526 31.314 64.9357 31.1428C64.6222 30.9588 64.3046 30.8692 63.9828 30.874C63.669 30.8741 63.3592 30.9639 63.0533 31.1433C62.6347 31.3889 62.3577 31.7191 62.2223 32.1339C62.0869 32.5488 62.0925 33.0379 62.239 33.6012C62.3807 34.1564 62.6523 34.7762 63.0537 35.4605C63.3654 35.9918 63.6795 36.4351 63.9961 36.7904C64.3128 37.1457 64.6278 37.4154 64.9414 37.5994C65.2582 37.7706 65.5735 37.8562 65.8873 37.8561C66.201 37.856 66.5149 37.7638 66.8288 37.5797Z" fill="white"/>
<path d="M56.3945 46.5768L50.2104 38.4577L51.8476 37.2107L58.9879 40.9937L59.0436 40.9513L56.9578 38.3515L54.5316 35.1663L55.8458 34.1653L62.03 42.2843L60.4485 43.4889L53.3394 39.7701L53.2726 39.821L55.2481 42.276L57.7421 45.5503L56.3945 46.5768Z" fill="white"/>
<path d="M49.1584 53.4832L42.0436 46.1659L43.3083 44.9362L50.4231 52.2535L49.1584 53.4832ZM53.0027 49.7452L45.8879 42.428L47.1426 41.208L54.2574 48.5252L53.0027 49.7452ZM47.0189 49.3148L45.9649 48.2307L49.1066 45.176L50.1606 46.26L47.0189 49.3148Z" fill="white"/>
<path d="M45.616 57.9255C45.221 58.4103 44.7871 58.7731 44.3141 59.0138C43.8398 59.2413 43.3265 59.3468 42.7742 59.3303C42.2219 59.3137 41.6365 59.1679 41.0179 58.8927C40.4053 58.6104 39.7625 58.1951 39.0895 57.6468C38.4238 57.1045 37.8907 56.5619 37.4903 56.019C37.0957 55.4689 36.8345 54.9251 36.7066 54.3875C36.5847 53.8427 36.5937 53.3144 36.7338 52.8025C36.8726 52.2775 37.1424 51.769 37.5432 51.2769C38.003 50.7125 38.5065 50.3161 39.0537 50.0877C39.5995 49.8462 40.1796 49.777 40.7938 49.8801C41.4067 49.9701 42.0377 50.2373 42.6868 50.6818L41.5992 52.0169C41.2093 51.7715 40.8418 51.6166 40.4969 51.5524C40.1448 51.4822 39.8188 51.5055 39.5189 51.6224C39.2177 51.7262 38.9463 51.9264 38.7046 52.2231C38.3981 52.5993 38.2538 53.0055 38.2718 53.4415C38.2957 53.8703 38.4717 54.3266 38.7998 54.8106C39.1265 55.2814 39.5974 55.7673 40.2125 56.2684C40.6901 56.6574 41.1392 56.9631 41.56 57.1855C41.9808 57.4079 42.3702 57.5505 42.7282 57.6135C43.0849 57.6633 43.4102 57.6334 43.7042 57.5237C43.9981 57.4141 44.2601 57.2181 44.49 56.9359C44.7316 56.6393 44.8758 56.3293 44.9224 56.0061C44.969 55.6829 44.9223 55.356 44.7824 55.0253C44.6352 54.6888 44.3991 54.358 44.074 54.0329L45.1616 52.6979C45.763 53.26 46.174 53.8416 46.3946 54.4427C46.608 55.0378 46.6451 55.6278 46.5058 56.2126C46.3665 56.7973 46.0699 57.3683 45.616 57.9255Z" fill="white"/>
<path d="M38.6096 67.6552L30.0562 62.0872L33.1572 57.3236L34.4244 58.1485L32.0948 61.7271L32.0006 61.2816L38.5594 65.5511L38.1139 65.6453L40.451 62.055L41.7182 62.8799L38.6096 67.6552ZM35.603 64.0108L34.418 63.2394L36.4802 60.0715L37.6652 60.8429L35.603 64.0108Z" fill="white"/>
<path d="M35.4569 73.605L27.5768 69.5504L28.3775 67.9943L36.2575 72.0489L35.4569 73.605ZM26.6689 71.7126L25.312 71.0144L28.2713 65.2631L29.6282 65.9613L26.6689 71.7126Z" fill="white"/>
<path d="M29.9869 87.7504L20.3068 84.5167L21.2871 81.5821C21.5739 80.7234 22.0023 80.0744 22.5722 79.635C23.1362 79.1838 23.83 78.9334 24.6535 78.8837C25.4681 78.8311 26.3933 78.9778 27.429 79.3238C28.1461 79.5633 28.776 79.8574 29.3189 80.206C29.8647 80.5458 30.2968 80.946 30.6153 81.4066C30.9367 81.8584 31.1356 82.3677 31.212 82.9344C31.2795 83.4982 31.1979 84.1253 30.9672 84.8158L29.9869 87.7504ZM29.1029 85.6248L29.5287 84.35C29.644 84.0048 29.6856 83.6742 29.6533 83.3584C29.621 83.0426 29.4988 82.7459 29.2864 82.4683C29.0771 82.1819 28.7718 81.9175 28.3705 81.6752C27.9634 81.4212 27.45 81.1906 26.8303 80.9836C25.9982 80.7056 25.3032 80.5768 24.7453 80.5971C24.1905 80.6085 23.7506 80.747 23.4258 81.0124C23.095 81.266 22.8543 81.6186 22.7035 82.07L22.2776 83.3448L29.1029 85.6248Z" fill="white"/>
<path d="M27.8901 97.5317L17.8915 95.4845L18.3044 93.4683L26.1709 91.6207L26.1849 91.5521L22.9038 90.966L18.9812 90.1629L19.3125 88.5444L29.3111 90.5917L28.9123 92.5393L21.1116 94.4146L21.0947 94.4969L24.1976 95.0465L28.2299 95.8721L27.8901 97.5317Z" fill="white"/>
<path d="M26.9321 108.106L16.9778 104.61L17.1784 102.154L27.5694 100.306L27.4258 102.064L20.0403 103.231L18.4641 103.439L18.4561 103.537L19.9776 103.998L27.0758 106.348L26.9321 108.106ZM24.903 105.777L23.5701 105.415L23.8141 102.429L25.1892 102.275L24.903 105.777Z" fill="white"/>
<path d="M27.4766 118.66L23.5135 118.98L17.5414 122.425L17.3848 120.486L20.5359 118.981L21.9248 118.265L21.918 118.181L20.4311 117.683L17.0772 116.676L16.9217 114.75L23.3703 117.207L27.3334 116.887L27.4766 118.66Z" fill="white"/>
<path d="M28.8258 126.493C28.9478 127.106 28.9509 127.672 28.8351 128.189C28.7083 128.7 28.4625 129.163 28.0979 129.578C27.7332 129.993 27.2478 130.351 26.6416 130.653C26.0336 130.945 25.304 131.176 24.4527 131.345C23.6105 131.513 22.8527 131.578 22.1791 131.541C21.5037 131.494 20.9181 131.349 20.4223 131.105C19.9247 130.852 19.5233 130.509 19.218 130.074C18.9018 129.633 18.6818 129.101 18.5579 128.479C18.4158 127.765 18.4311 127.124 18.6037 126.557C18.7654 125.982 19.0816 125.491 19.5524 125.083C20.0123 124.668 20.6203 124.352 21.3765 124.135L21.7125 125.824C21.2749 125.968 20.9214 126.153 20.6522 126.377C20.3737 126.604 20.184 126.87 20.083 127.176C19.9711 127.474 19.9524 127.811 20.0271 128.186C20.1218 128.662 20.3429 129.032 20.6904 129.296C21.0361 129.551 21.5 129.706 22.082 129.762C22.6531 129.81 23.3276 129.756 24.1057 129.602C24.7099 129.481 25.2317 129.33 25.6712 129.147C26.1106 128.965 26.4687 128.755 26.7453 128.52C27.011 128.276 27.1952 128.007 27.298 127.71C27.4008 127.414 27.4167 127.087 27.3456 126.73C27.271 126.355 27.1239 126.046 26.9045 125.804C26.6851 125.563 26.4034 125.39 26.0594 125.287C25.7062 125.186 25.3008 125.158 24.8431 125.201L24.5071 123.512C25.3236 123.407 26.0337 123.461 26.6375 123.673C27.2322 123.888 27.7105 124.236 28.0725 124.716C28.4344 125.195 28.6855 125.788 28.8258 126.493Z" fill="white"/>
<path d="M33.1528 141.734L23.485 145.004L22.6281 142.471L27.3435 139.546L29.3308 138.43L29.2994 138.337L27.0474 138.671L21.5246 139.209L20.6633 136.662L30.3311 133.392L30.865 134.97L25.7989 136.684L22.8236 137.631L22.855 137.724L26.1075 137.378L31.5154 136.893L31.9685 138.233L27.3903 141.126L24.6042 142.808L24.6356 142.9L27.553 141.869L32.619 140.156L33.1528 141.734Z" fill="white"/>
<path d="M36.8647 149.34L27.6804 153.791L25.2016 148.676L26.5622 148.017L28.4244 151.859L27.9942 151.71L35.0368 148.297L34.8874 148.727L33.0191 144.872L34.3798 144.212L36.8647 149.34ZM32.1914 150.034L30.9189 150.65L29.2704 147.249L30.5429 146.632L32.1914 150.034Z" fill="white"/>
<path d="M40.4475 155.003C40.7511 155.485 40.9301 155.979 40.9845 156.485C41.0339 156.984 40.9576 157.484 40.7557 157.987C40.5538 158.489 40.2253 158.983 39.7701 159.468C39.3099 159.946 38.7205 160.411 38.002 160.864C37.2677 161.327 36.5769 161.658 35.9297 161.856C35.2745 162.059 34.6693 162.132 34.1141 162.074C33.5509 162.02 33.0427 161.844 32.5895 161.545C32.1362 161.246 31.7354 160.82 31.387 160.268C30.9938 159.644 30.7699 159.035 30.7152 158.44C30.6555 157.838 30.7661 157.261 31.0469 156.709C31.3199 156.162 31.7627 155.656 32.3753 155.193L33.2935 156.65C32.9335 156.954 32.677 157.264 32.5239 157.582C32.3658 157.891 32.3022 158.201 32.333 158.513C32.356 158.829 32.4695 159.149 32.6736 159.473C32.9423 159.9 33.2926 160.175 33.7244 160.3C34.1484 160.43 34.6395 160.413 35.1978 160.249C35.7562 160.084 36.3709 159.79 37.0421 159.367C37.5395 159.054 37.9607 158.733 38.3057 158.405C38.6429 158.083 38.8984 157.762 39.0723 157.442C39.2412 157.115 39.3221 156.788 39.3149 156.462C39.3077 156.136 39.2071 155.818 39.013 155.51C38.7791 155.139 38.4931 154.878 38.1552 154.727C37.8123 154.568 37.4302 154.522 37.009 154.589C36.5828 154.648 36.125 154.832 35.6354 155.14L35.1143 155.469L35.2575 154.882L36.6908 157.156L35.5775 157.858L33.435 154.459L38.0895 151.525L38.7689 152.603L37.3924 153.57L37.4372 153.641C37.8464 153.537 38.2377 153.528 38.611 153.612C38.9843 153.697 39.3297 153.86 39.6472 154.101C39.9518 154.339 40.2186 154.64 40.4475 155.003Z" fill="white"/>
<path d="M48.719 166.169L39.1141 170.534L37.5593 168.623L43.7808 160.098L44.8939 161.466L40.3701 167.419L39.3766 168.661L39.4384 168.737L40.856 168.017L47.6059 164.8L48.719 166.169ZM45.6425 165.892L44.43 166.553L42.5395 164.229L43.4252 163.166L45.6425 165.892Z" fill="white"/>
<path d="M54.0653 171.331L47.0467 178.741L45.7559 177.518L52.7745 170.108L54.0653 171.331Z" fill="white"/>
<path d="M62.2831 178.088L53.8472 184.424L51.9164 182.894L56.1505 173.226L57.5328 174.322L54.4011 181.112L53.699 182.538L53.7758 182.599L55.0045 181.59L60.9008 176.992L62.2831 178.088ZM59.2194 178.482L58.1783 179.39L55.8306 177.528L56.4658 176.299L59.2194 178.482Z" fill="white"/>
<path d="M73.3553 184.603L68.3887 193.519L66.8476 192.661L71.8142 183.745L73.3553 184.603ZM68.671 181.994L63.7044 190.91L62.1756 190.058L67.1422 181.142L68.671 181.994ZM69.9765 187.849L69.2408 189.17L65.4126 187.038L66.1484 185.717L69.9765 187.849Z" fill="white"/>
<path d="M79.5451 187.248L76.1178 195.421L74.504 194.744L77.9312 186.571L79.5451 187.248ZM78.3443 196.157L77.7541 197.564L71.7894 195.063L72.3795 193.656L78.3443 196.157Z" fill="white"/>
<path d="M85.4973 189.335L82.3023 199.028L80.6136 198.472L83.8087 188.779L85.4973 189.335Z" fill="white"/>
<path d="M96.9164 192.111L96.6585 202.495L94.8655 202.109L95.2364 195.859L95.3967 193.516L95.3009 193.496L94.4562 195.691L92.1418 201.523L90.0888 201.081L90.3873 194.902L90.5135 192.451L90.4177 192.431L89.5934 194.731L87.3925 200.501L85.5995 200.115L89.635 190.544L91.9618 191.045L91.6805 196.612L91.5013 199.309L91.5971 199.329L92.5427 196.797L94.6033 191.613L96.9164 192.111Z" fill="white"/>
<path d="M108.383 192.887C108.952 192.904 109.462 193.032 109.912 193.271C110.352 193.509 110.725 193.852 111.028 194.3C111.331 194.748 111.557 195.297 111.705 195.946C111.843 196.595 111.899 197.343 111.873 198.192C111.845 199.06 111.733 199.818 111.535 200.465C111.337 201.122 111.059 201.664 110.7 202.092C110.341 202.529 109.911 202.851 109.409 203.06C108.908 203.268 108.33 203.362 107.677 203.342C106.94 203.319 106.31 203.163 105.787 202.876C105.254 202.589 104.838 202.174 104.537 201.633C104.237 201.1 104.065 200.451 104.024 199.684L105.745 199.737C105.796 200.206 105.91 200.592 106.087 200.897C106.255 201.201 106.477 201.427 106.752 201.576C107.027 201.734 107.356 201.819 107.739 201.831C108.242 201.847 108.667 201.71 109.012 201.422C109.357 201.144 109.617 200.727 109.794 200.172C109.97 199.618 110.07 198.944 110.095 198.151C110.113 197.563 110.083 197.035 110.005 196.565C109.926 196.105 109.802 195.714 109.635 195.391C109.459 195.068 109.233 194.818 108.958 194.641C108.684 194.465 108.364 194.371 108.001 194.359C107.562 194.346 107.186 194.437 106.872 194.632C106.548 194.827 106.296 195.118 106.116 195.505C105.926 195.891 105.823 196.374 105.804 196.952L105.785 197.568L105.379 197.121L108.066 197.205L108.024 198.52L104.008 198.394L104.181 192.895L105.454 192.935L105.485 194.617L105.569 194.619C105.712 194.222 105.924 193.893 106.203 193.631C106.482 193.369 106.81 193.174 107.187 193.045C107.555 192.926 107.954 192.873 108.383 192.887Z" fill="white"/>
<path d="M121.653 192.332L122.561 202.498L120.511 202.681L116.484 195.676L116.414 195.682L116.794 198.993L117.151 202.981L115.505 203.128L114.597 192.963L116.577 192.786L120.612 199.72L120.696 199.713L120.332 196.583L119.965 192.483L121.653 192.332Z" fill="white"/>
<path d="M126.156 191.474L127.954 201.52L126.203 201.834L124.405 191.787L126.156 191.474Z" fill="white"/>
<path d="M132.722 189.898L134.964 198.472L133.271 198.915L131.029 190.341L132.722 189.898ZM137.18 197.704L137.566 199.181L131.309 200.817L130.923 199.341L137.18 197.704Z" fill="white"/>
<path d="M142.339 186.578L145.911 196.138L144.246 196.761L141.109 188.368L141.511 188.561L138.075 189.845L137.526 188.377L142.339 186.578Z" fill="white"/>
<path d="M148.27 183.577C148.944 183.235 149.58 183.075 150.177 183.097C150.77 183.132 151.303 183.327 151.776 183.684C152.254 184.049 152.659 184.56 152.993 185.218L156.035 191.225L154.499 192.003L151.463 186.008C151.243 185.575 151.004 185.257 150.744 185.054C150.476 184.855 150.194 184.752 149.897 184.745C149.601 184.739 149.29 184.817 148.966 184.982C148.616 185.159 148.358 185.373 148.192 185.624C148.031 185.884 147.959 186.177 147.978 186.502C148 186.836 148.113 187.203 148.315 187.602L151.351 193.597L149.828 194.369L146.785 188.362C146.439 187.679 146.269 187.033 146.274 186.423C146.284 185.822 146.458 185.279 146.798 184.793C147.13 184.311 147.62 183.906 148.27 183.577Z" fill="white"/>
<path d="M155.229 179.514C155.879 179.093 156.489 178.859 157.059 178.811C157.634 178.772 158.161 178.898 158.639 179.189C159.109 179.485 159.525 179.904 159.889 180.447L158.491 181.354C158.247 180.978 157.989 180.7 157.717 180.521C157.45 180.349 157.172 180.273 156.885 180.293C156.589 180.317 156.281 180.434 155.96 180.642C155.678 180.825 155.47 181.027 155.335 181.248C155.2 181.469 155.142 181.696 155.159 181.929C155.174 182.175 155.266 182.427 155.433 182.686C155.581 182.913 155.734 183.08 155.893 183.189C156.057 183.305 156.245 183.372 156.457 183.39C156.667 183.421 156.909 183.409 157.184 183.352C157.456 183.309 157.776 183.236 158.142 183.132C158.553 183.01 158.942 182.924 159.31 182.875C159.679 182.825 160.025 182.828 160.351 182.884C160.681 182.948 160.99 183.081 161.278 183.284C161.57 183.495 161.838 183.788 162.082 184.164C162.417 184.681 162.591 185.18 162.603 185.662C162.612 186.156 162.476 186.623 162.193 187.062C161.916 187.509 161.507 187.908 160.966 188.258C160.395 188.629 159.847 188.839 159.324 188.89C158.797 188.953 158.308 188.859 157.855 188.607C157.4 188.368 156.997 187.979 156.647 187.439L158.045 186.532C158.273 186.884 158.508 187.127 158.75 187.259C158.997 187.4 159.245 187.456 159.493 187.428C159.742 187.4 159.996 187.302 160.254 187.135C160.513 186.967 160.698 186.78 160.809 186.575C160.925 186.377 160.977 186.165 160.965 185.94C160.944 185.72 160.858 185.492 160.705 185.257C160.517 184.967 160.31 184.768 160.084 184.659C159.855 184.563 159.577 184.537 159.25 184.582C158.92 184.64 158.515 184.736 158.035 184.87C157.668 184.974 157.308 185.052 156.952 185.105C156.589 185.162 156.234 185.164 155.888 185.111C155.547 185.065 155.217 184.934 154.899 184.718C154.586 184.509 154.287 184.186 154.003 183.747C153.672 183.238 153.498 182.729 153.478 182.218C153.456 181.721 153.592 181.244 153.885 180.787C154.178 180.33 154.626 179.905 155.229 179.514Z" fill="white"/>
<path d="M165.648 171.809L172.081 179.732L170.483 181.03L163.229 177.47L163.175 177.514L165.34 180.048L167.864 183.156L166.582 184.197L160.149 176.274L161.692 175.021L168.913 178.518L168.978 178.465L166.928 176.072L164.333 172.877L165.648 171.809Z" fill="white"/>
<path d="M170.067 167.19C170.508 166.734 170.978 166.402 171.476 166.196C171.974 166.003 172.501 165.934 173.057 165.991C173.606 166.054 174.177 166.249 174.77 166.576C175.356 166.909 175.961 167.377 176.586 167.98C177.21 168.584 177.695 169.169 178.041 169.738C178.388 170.319 178.602 170.883 178.684 171.43C178.759 171.983 178.705 172.509 178.522 173.007C178.34 173.518 178.028 174.002 177.587 174.458C177.146 174.915 176.676 175.24 176.177 175.433C175.679 175.639 175.156 175.711 174.607 175.648C174.051 175.591 173.48 175.396 172.894 175.063C172.301 174.736 171.696 174.275 171.078 173.678C170.454 173.075 169.966 172.479 169.612 171.891C169.266 171.309 169.052 170.745 168.97 170.199C168.895 169.659 168.948 169.133 169.131 168.622C169.314 168.124 169.626 167.646 170.067 167.19ZM171.144 168.231C170.807 168.58 170.629 168.973 170.61 169.409C170.598 169.851 170.734 170.321 171.02 170.817C171.312 171.321 171.744 171.848 172.314 172.399C172.757 172.828 173.175 173.167 173.569 173.418C173.969 173.675 174.345 173.843 174.696 173.923C175.048 174.016 175.378 174.017 175.686 173.926C175.989 173.842 176.263 173.672 176.51 173.417C176.847 173.068 177.025 172.676 177.044 172.24C177.063 171.804 176.926 171.334 176.634 170.831C176.348 170.334 175.92 169.81 175.35 169.259C174.907 168.831 174.485 168.488 174.085 168.231C173.684 167.974 173.309 167.798 172.957 167.705C172.606 167.626 172.279 167.628 171.977 167.712C171.675 167.796 171.397 167.969 171.144 168.231Z" fill="white"/>
<path d="M176.069 160.136C176.449 159.639 176.872 159.263 177.337 159.008C177.804 158.766 178.314 158.644 178.866 158.644C179.419 158.643 180.008 158.771 180.635 159.027C181.256 159.29 181.912 159.685 182.601 160.212C183.284 160.734 183.833 161.26 184.25 161.79C184.662 162.327 184.94 162.863 185.084 163.396C185.223 163.937 185.23 164.465 185.106 164.981C184.984 165.51 184.73 166.027 184.344 166.531C183.902 167.11 183.411 167.521 182.871 167.767C182.333 168.025 181.756 168.112 181.139 168.028C180.523 167.957 179.884 167.71 179.222 167.285L180.267 165.917C180.665 166.151 181.037 166.294 181.383 166.348C181.738 166.407 182.063 166.373 182.359 166.247C182.657 166.134 182.922 165.926 183.154 165.622C183.449 165.236 183.58 164.826 183.549 164.39C183.512 163.962 183.322 163.512 182.979 163.038C182.638 162.578 182.152 162.107 181.522 161.625C181.032 161.251 180.574 160.959 180.146 160.75C179.719 160.541 179.325 160.41 178.965 160.358C178.607 160.32 178.283 160.36 177.993 160.478C177.702 160.597 177.447 160.801 177.225 161.09C176.993 161.394 176.859 161.709 176.822 162.033C176.786 162.358 176.842 162.683 176.992 163.009C177.15 163.341 177.396 163.664 177.731 163.979L176.686 165.347C176.067 164.804 175.638 164.235 175.399 163.641C175.167 163.053 175.112 162.465 175.233 161.876C175.354 161.287 175.633 160.707 176.069 160.136Z" fill="white"/>
<path d="M182.47 150.333C182.847 149.657 183.277 149.165 183.759 148.856C184.249 148.553 184.773 148.418 185.332 148.451C185.885 148.493 186.45 148.669 187.025 148.979L186.213 150.434C185.822 150.216 185.464 150.091 185.14 150.06C184.823 150.033 184.543 150.095 184.298 150.247C184.048 150.407 183.83 150.654 183.643 150.988C183.48 151.282 183.39 151.558 183.374 151.816C183.358 152.074 183.413 152.302 183.537 152.5C183.666 152.711 183.864 152.891 184.133 153.041C184.37 153.173 184.583 153.25 184.775 153.271C184.974 153.297 185.172 153.268 185.368 153.185C185.567 153.115 185.776 152.99 185.993 152.812C186.213 152.647 186.461 152.432 186.736 152.169C187.042 151.869 187.346 151.612 187.649 151.396C187.951 151.179 188.259 151.02 188.573 150.917C188.895 150.819 189.23 150.792 189.579 150.837C189.936 150.887 190.311 151.021 190.702 151.239C191.24 151.54 191.627 151.9 191.862 152.32C192.102 152.753 192.199 153.229 192.155 153.75C192.118 154.274 191.943 154.818 191.63 155.38C191.298 155.975 190.912 156.417 190.473 156.707C190.037 157.009 189.56 157.154 189.043 157.143C188.529 157.145 187.991 156.989 187.428 156.675L188.24 155.22C188.607 155.425 188.928 155.529 189.203 155.534C189.487 155.542 189.732 155.476 189.939 155.335C190.146 155.194 190.325 154.989 190.475 154.72C190.625 154.451 190.701 154.2 190.703 153.966C190.714 153.736 190.661 153.525 190.544 153.332C190.423 153.147 190.24 152.986 189.996 152.849C189.694 152.681 189.418 152.602 189.167 152.611C188.919 152.633 188.662 152.741 188.394 152.933C188.13 153.139 187.816 153.413 187.454 153.756C187.179 154.019 186.896 154.257 186.607 154.469C186.313 154.69 186 154.858 185.669 154.972C185.346 155.091 184.993 155.13 184.611 155.087C184.237 155.049 183.821 154.903 183.365 154.648C182.835 154.353 182.442 153.984 182.186 153.542C181.934 153.113 181.831 152.628 181.876 152.086C181.922 151.545 182.12 150.961 182.47 150.333Z" fill="white"/>
<path d="M185.889 143.452C186.202 142.744 186.585 142.214 187.036 141.862C187.496 141.514 188.005 141.331 188.565 141.313C189.12 141.303 189.698 141.426 190.299 141.682L189.626 143.206C189.216 143.025 188.848 142.934 188.522 142.932C188.205 142.935 187.931 143.023 187.701 143.197C187.467 143.379 187.273 143.646 187.119 143.996C186.983 144.303 186.919 144.586 186.927 144.845C186.935 145.103 187.01 145.325 187.153 145.511C187.3 145.709 187.515 145.87 187.796 145.994C188.044 146.104 188.264 146.16 188.456 146.163C188.657 146.171 188.851 146.124 189.039 146.023C189.231 145.934 189.427 145.791 189.626 145.594C189.831 145.409 190.058 145.172 190.307 144.885C190.584 144.558 190.863 144.273 191.144 144.03C191.425 143.787 191.717 143.6 192.02 143.468C192.332 143.341 192.663 143.283 193.015 143.296C193.375 143.312 193.76 143.411 194.17 143.592C194.733 143.841 195.152 144.164 195.425 144.56C195.704 144.969 195.845 145.435 195.849 145.957C195.861 146.483 195.737 147.04 195.477 147.629C195.202 148.252 194.859 148.728 194.448 149.057C194.042 149.398 193.581 149.587 193.064 149.624C192.553 149.673 192.003 149.568 191.414 149.308L192.087 147.784C192.471 147.954 192.801 148.028 193.075 148.006C193.359 147.989 193.597 147.9 193.79 147.741C193.983 147.581 194.142 147.36 194.266 147.079C194.391 146.797 194.443 146.54 194.424 146.306C194.413 146.077 194.341 145.872 194.207 145.69C194.069 145.517 193.872 145.374 193.616 145.26C193.3 145.121 193.017 145.067 192.768 145.1C192.524 145.145 192.277 145.276 192.029 145.492C191.784 145.721 191.498 146.023 191.169 146.398C190.919 146.686 190.66 146.949 190.391 147.187C190.119 147.434 189.823 147.63 189.504 147.775C189.194 147.923 188.846 147.994 188.461 147.987C188.085 147.984 187.658 147.877 187.18 147.666C186.625 147.42 186.2 147.09 185.904 146.673C185.613 146.269 185.466 145.796 185.461 145.253C185.456 144.71 185.599 144.109 185.889 143.452Z" fill="white"/>
<path d="M189.947 132.788L199.638 135.988L197.856 141.386L196.42 140.911L197.759 136.857L197.964 137.263L190.532 134.81L190.939 134.605L189.596 138.673L188.16 138.199L189.947 132.788ZM193.784 135.544L195.127 135.988L193.941 139.577L192.599 139.134L193.784 135.544Z" fill="white"/>
<path d="M192.139 123.022L202.125 125.128L201.7 127.142L193.823 128.943L193.809 129.012L197.087 129.617L201.004 130.443L200.664 132.059L190.677 129.954L191.087 128.009L198.899 126.179L198.916 126.097L195.817 125.529L191.789 124.68L192.139 123.022Z" fill="white"/>
<path d="M192.636 118.465L202.769 119.685L202.556 121.45L192.423 120.23L192.636 118.465Z" fill="white"/>
<path d="M192.843 113.724C192.879 112.95 193.043 112.318 193.337 111.826C193.639 111.336 194.048 110.981 194.563 110.761C195.077 110.551 195.66 110.457 196.313 110.477L196.237 112.141C195.79 112.121 195.414 112.169 195.109 112.286C194.814 112.403 194.591 112.585 194.44 112.83C194.288 113.085 194.203 113.403 194.186 113.785C194.171 114.121 194.214 114.408 194.315 114.646C194.416 114.884 194.567 115.064 194.767 115.185C194.976 115.316 195.234 115.389 195.541 115.403C195.812 115.415 196.037 115.388 196.218 115.322C196.408 115.256 196.572 115.142 196.71 114.98C196.857 114.828 196.988 114.624 197.102 114.367C197.226 114.121 197.352 113.818 197.48 113.459C197.62 113.055 197.777 112.688 197.951 112.36C198.125 112.031 198.329 111.751 198.564 111.519C198.808 111.287 199.097 111.114 199.429 110.998C199.77 110.883 200.165 110.835 200.613 110.856C201.228 110.884 201.735 111.033 202.134 111.304C202.541 111.584 202.841 111.967 203.034 112.452C203.236 112.938 203.322 113.502 203.293 114.146C203.262 114.826 203.114 115.394 202.851 115.849C202.596 116.314 202.234 116.657 201.767 116.879C201.308 117.11 200.756 117.211 200.113 117.182L200.189 115.517C200.609 115.537 200.943 115.486 201.191 115.367C201.449 115.248 201.639 115.079 201.761 114.861C201.883 114.642 201.951 114.379 201.965 114.071C201.979 113.763 201.935 113.504 201.832 113.294C201.739 113.084 201.597 112.919 201.407 112.798C201.216 112.687 200.98 112.625 200.7 112.612C200.355 112.596 200.073 112.648 199.852 112.769C199.641 112.9 199.458 113.111 199.305 113.403C199.16 113.705 199.002 114.09 198.832 114.558C198.703 114.917 198.557 115.256 198.393 115.575C198.228 115.904 198.023 116.194 197.778 116.444C197.543 116.695 197.244 116.887 196.883 117.02C196.531 117.153 196.094 117.208 195.572 117.184C194.966 117.156 194.45 117.002 194.024 116.721C193.606 116.45 193.297 116.062 193.096 115.557C192.895 115.053 192.811 114.442 192.843 113.724Z" fill="white"/>
<path d="M192.719 104.13C192.673 103.375 192.779 102.728 193.036 102.189C193.303 101.658 193.694 101.246 194.209 100.953C194.733 100.659 195.363 100.49 196.099 100.445L202.821 100.036L202.926 101.754L196.218 102.163C195.734 102.193 195.347 102.286 195.057 102.444C194.768 102.612 194.562 102.83 194.438 103.099C194.314 103.369 194.263 103.685 194.285 104.048C194.309 104.44 194.403 104.761 194.568 105.013C194.743 105.264 194.983 105.446 195.289 105.558C195.604 105.67 195.985 105.712 196.433 105.685L203.14 105.276L203.244 106.981L196.523 107.39C195.759 107.437 195.098 107.337 194.541 107.09C193.993 106.843 193.563 106.467 193.252 105.963C192.941 105.467 192.763 104.856 192.719 104.13Z" fill="white"/>
<path d="M191.084 91.6647L201.131 89.8707L201.768 93.4402C201.934 94.3682 201.822 95.0946 201.432 95.6192C201.053 96.1515 200.464 96.489 199.665 96.6317C199.297 96.6973 198.951 96.6975 198.626 96.6322C198.302 96.5669 198.018 96.4374 197.775 96.2438C197.532 96.0502 197.339 95.7954 197.198 95.4794L197.115 95.4942C197.106 95.9224 197.014 96.2848 196.84 96.5815C196.665 96.8781 196.424 97.1203 196.116 97.308C195.818 97.494 195.471 97.6223 195.076 97.6929C194.469 97.8012 193.933 97.769 193.466 97.5964C193.009 97.4313 192.629 97.1342 192.325 96.705C192.021 96.2758 191.808 95.7212 191.687 95.0413L191.084 91.6647ZM192.737 93.1187L193.02 94.7037C193.114 95.2274 193.32 95.5841 193.638 95.7737C193.958 95.9726 194.38 96.0253 194.903 95.9317C195.418 95.8399 195.781 95.6423 195.992 95.3391C196.205 95.0451 196.272 94.6776 196.193 94.2366L195.861 92.376L197.115 92.1521L197.44 93.9713C197.493 94.2653 197.596 94.4981 197.75 94.6697C197.913 94.8397 198.108 94.9518 198.336 95.0059C198.573 95.0584 198.838 95.0584 199.132 95.0059C199.61 94.9206 199.956 94.7355 200.171 94.4507C200.386 94.1659 200.454 93.803 200.375 93.3619L200.097 91.8046L192.737 93.1187Z" fill="white"/>
<path d="M187.072 78.8216L196.713 75.4739L197.728 78.3967C198.025 79.2519 198.082 80.0275 197.898 80.7235C197.727 81.4251 197.33 82.047 196.708 82.589C196.095 83.1279 195.273 83.5765 194.241 83.9347C193.527 84.1826 192.849 84.3342 192.206 84.3895C191.566 84.4535 190.98 84.4003 190.446 84.2299C189.916 84.0682 189.447 83.7863 189.041 83.384C188.643 82.9786 188.325 82.4321 188.086 81.7444L187.072 78.8216ZM189.069 79.9656L189.51 81.2352C189.63 81.5791 189.798 81.8662 190.017 82.0967C190.235 82.3272 190.513 82.4875 190.851 82.5778C191.191 82.6768 191.595 82.6999 192.06 82.6468C192.538 82.5996 193.085 82.4688 193.702 82.2545C194.531 81.9667 195.16 81.6445 195.59 81.2879C196.022 80.9401 196.286 80.562 196.382 80.1535C196.489 79.7507 196.464 79.3245 196.308 78.8748L195.867 77.6052L189.069 79.9656Z" fill="white"/>
<path d="M182.763 69.7978L191.933 65.316L192.836 67.165L187.733 73.4303L187.764 73.4932L190.721 71.9546L194.318 70.1963L195.043 71.6805L185.874 76.1623L185.001 74.3762L190.035 68.129L189.998 68.0536L187.205 69.5123L183.507 71.3198L182.763 69.7978Z" fill="white"/>
<path d="M177.066 60.8346L187.085 57.5275L188.425 59.5952L181.322 67.4018L180.363 65.9215L185.501 60.4894L186.622 59.3622L186.569 59.28L185.082 59.8432L178.025 62.3149L177.066 60.8346ZM180.095 61.4407L181.371 60.9136L183.001 63.4277L182.006 64.3895L180.095 61.4407Z" fill="white"/>
<path d="M169.722 52.2483L177.341 45.4584L181.123 49.702L179.994 50.7079L177.153 47.52L177.608 47.5462L171.765 52.7527L171.791 52.2981L174.641 55.4965L173.513 56.5024L169.722 52.2483ZM174.028 50.3049L175.084 49.3642L177.599 52.1863L176.543 53.127L174.028 50.3049Z" fill="white"/>
<path d="M165.498 48.4507C165.035 48.0307 164.695 47.5782 164.48 47.0932C164.278 46.6076 164.199 46.0894 164.245 45.5387C164.291 44.9881 164.467 44.4112 164.775 43.808C165.089 43.2111 165.538 42.5911 166.121 41.948C166.697 41.3118 167.267 40.8081 167.831 40.4369C168.401 40.0719 168.958 39.8398 169.501 39.7404C170.052 39.6473 170.579 39.6843 171.082 39.8512C171.599 40.0174 172.093 40.3137 172.563 40.7399C173.103 41.2289 173.472 41.7526 173.671 42.3111C173.883 42.8689 173.922 43.4518 173.787 44.0597C173.664 44.667 173.364 45.283 172.886 45.9078L171.61 44.7512C171.876 44.3748 172.05 44.016 172.132 43.675C172.221 43.3271 172.215 43.0003 172.114 42.6947C172.026 42.3884 171.841 42.1068 171.557 41.8498C171.198 41.5238 170.8 41.3584 170.363 41.3533C169.934 41.3546 169.469 41.5062 168.968 41.8083C168.481 42.1097 167.971 42.5543 167.438 43.1421C167.024 43.5985 166.695 44.0309 166.451 44.4394C166.207 44.8478 166.044 45.2291 165.962 45.5834C165.893 45.9369 165.906 46.2634 166 46.5627C166.094 46.8621 166.276 47.134 166.546 47.3784C166.829 47.6354 167.131 47.7957 167.451 47.8593C167.772 47.9229 168.1 47.8935 168.438 47.7712C168.782 47.642 169.125 47.4237 169.466 47.1162L170.742 48.2727C170.149 48.8436 169.547 49.2234 168.935 49.412C168.329 49.5937 167.738 49.5995 167.162 49.4296C166.585 49.2597 166.03 48.9334 165.498 48.4507Z" fill="white"/>
<path d="M159.284 43.2048L165.485 35.0986L166.898 36.1789L160.697 44.285L159.284 43.2048Z" fill="white"/>
<path d="M152.707 38.813L155.866 28.7316L157.38 29.6911L155.248 35.799L154.41 38.2185L154.493 38.271L156.305 36.4855L160.939 31.9475L162.452 32.9071L154.67 40.0574L152.707 38.813Z" fill="white"/>
<path d="M142.633 33.6088L147.065 24.4154L150.419 26.0325C150.764 26.1987 151.059 26.3823 151.304 26.5833C151.561 26.78 151.771 27.0003 151.933 27.2442C152.099 27.4798 152.209 27.7349 152.263 28.0096C152.33 28.28 152.338 28.5742 152.289 28.8922C152.239 29.2101 152.129 29.5457 151.959 29.8988C151.683 30.4705 151.326 30.8889 150.887 31.1541C150.453 31.4108 149.964 31.4909 149.419 31.3944L149.383 31.4701C149.678 31.6745 149.884 31.9032 150 32.1562C150.117 32.4092 150.156 32.682 150.119 32.9748C150.081 33.2675 149.977 33.5905 149.807 33.9436L149.053 35.5073C148.972 35.6755 148.897 35.8415 148.829 36.0052C148.768 36.1731 148.725 36.349 148.698 36.5331L147.122 35.7731C147.141 35.6268 147.182 35.4655 147.247 35.2892C147.311 35.1129 147.385 34.9365 147.471 34.76L148.133 33.3854C148.283 33.0743 148.365 32.8081 148.378 32.5866C148.4 32.3692 148.352 32.18 148.233 32.0189C148.113 31.8578 147.911 31.7084 147.625 31.5706L145.784 30.683L146.386 29.4345L148.113 30.2674C148.618 30.5106 149.044 30.5399 149.392 30.3554C149.74 30.1708 150.021 29.8558 150.236 29.4102C150.358 29.158 150.434 28.9252 150.464 28.7119C150.494 28.4985 150.475 28.3026 150.405 28.1241C150.349 27.9413 150.246 27.7779 150.098 27.6339C149.958 27.494 149.77 27.3673 149.535 27.2538L147.984 26.506L144.196 34.3627L142.633 33.6088Z" fill="white"/>
<path d="M134.691 30.7101L138.12 21.0975L143.474 23.0074L142.966 24.4315L138.944 22.9967L139.355 22.8016L136.726 30.1726L136.531 29.7611L140.566 31.2006L140.058 32.6247L134.691 30.7101ZM137.537 26.9393L138.013 25.6075L141.573 26.8777L141.098 28.2095L137.537 26.9393Z" fill="white"/>
<path d="M130.088 29.6297C129.336 29.4415 128.749 29.1549 128.326 28.7699C127.905 28.3759 127.638 27.9049 127.525 27.3571C127.421 26.8115 127.444 26.2207 127.594 25.5846L129.21 25.9894C129.101 26.424 129.074 26.802 129.128 27.1234C129.184 27.4359 129.318 27.6906 129.528 27.8876C129.748 28.0869 130.043 28.233 130.414 28.326C130.74 28.4076 131.03 28.4224 131.283 28.3705C131.537 28.3185 131.743 28.2066 131.902 28.0346C132.071 27.8558 132.194 27.6171 132.269 27.3183C132.334 27.0557 132.353 26.8294 132.323 26.6392C132.296 26.44 132.217 26.2566 132.086 26.089C131.966 25.9147 131.792 25.746 131.563 25.5829C131.346 25.413 131.074 25.2296 130.748 25.0325C130.379 24.815 130.051 24.5885 129.764 24.353C129.477 24.1174 129.242 23.8615 129.061 23.5853C128.883 23.3 128.77 22.983 128.722 22.6344C128.677 22.2767 128.709 21.8806 128.818 21.446C128.967 20.8485 129.214 20.3811 129.559 20.044C129.914 19.7001 130.349 19.4818 130.863 19.3892C131.379 19.2876 131.949 19.315 132.574 19.4714C133.235 19.6369 133.762 19.8941 134.156 20.2428C134.561 20.5848 134.826 21.0071 134.95 21.5097C135.086 22.0055 135.075 22.5657 134.919 23.1904L133.303 22.7857C133.405 22.3783 133.422 22.041 133.354 21.7739C133.289 21.4977 133.161 21.2781 132.971 21.115C132.781 20.9519 132.536 20.833 132.237 20.7582C131.939 20.6833 131.676 20.6753 131.45 20.7341C131.225 20.7838 131.035 20.8901 130.879 21.053C130.732 21.2182 130.624 21.4366 130.556 21.7082C130.472 22.0432 130.468 22.3307 130.542 22.5707C130.628 22.8039 130.799 23.0246 131.055 23.233C131.322 23.4346 131.668 23.6656 132.093 23.9261C132.419 24.1232 132.723 24.3338 133.003 24.558C133.293 24.7845 133.536 25.0427 133.733 25.3325C133.932 25.6133 134.061 25.9438 134.12 26.3242C134.181 26.6954 134.148 27.1346 134.021 27.6416C133.873 28.2301 133.619 28.7053 133.259 29.0674C132.911 29.4226 132.469 29.6488 131.935 29.7459C131.401 29.843 130.785 29.8043 130.088 29.6297Z" fill="white"/>
<path d="M117.151 27.3303L118.092 18.5185L119.833 18.7044L118.891 27.5162L117.151 27.3303ZM115.748 18.4511L115.91 16.9337L122.342 17.6208L122.18 19.1382L115.748 18.4511Z" fill="white"/>
<path d="M110.849 27.0328L111.132 16.8307L112.909 16.88L112.626 27.0821L110.849 27.0328Z" fill="white"/>
</svg>
