<svg width="120" height="120" viewBox="0 0 120 120" fill="none" xmlns="http://www.w3.org/2000/svg">
<path d="M19.1414 34.7942C19.8533 33.4963 20.6332 32.2365 21.4811 31.0186C16.6656 23.6593 12.0701 14.9922 7.82052 5.1992C7.60654 4.70725 7.21458 4.32729 6.71663 4.13531C6.22668 3.94333 5.68874 3.95533 5.20279 4.1733C4.17489 4.62126 3.72694 5.77914 4.17089 6.80904C8.87441 17.6379 13.9039 27.027 19.1414 34.7942Z" fill="white"/>
<path d="M90.8898 80.0254L94.4974 93.46C94.6654 94.0619 94.5414 94.7099 94.1655 95.2078C93.7875 95.7058 93.1975 95.9997 92.5716 95.9997H75.9933C53.5196 95.9997 43.5986 90.6843 36.8573 85.4828C27.6882 78.4015 21.9268 67.0267 21.8208 55.7998C21.7988 52.3322 22.3127 48.8605 23.3486 45.4789C24.2285 42.4772 25.5344 39.5795 27.2222 36.8857C29.788 32.7482 33.1716 29.2105 37.0112 26.6568C46.8743 20.1074 59.8709 19.3815 69.354 24.851C77.7691 29.7125 79.295 37.9676 78.0451 43.5571C76.6292 49.8924 73.1316 54.206 67.6541 56.3798C60.1229 59.4055 49.206 57.7516 41.1088 52.3442C37.0772 49.6544 33.0877 46.0028 29.224 41.4653C28.5501 42.7951 28.0062 44.179 27.5362 45.5869C31.2078 49.6824 35.0175 53.0861 38.8811 55.6538C44.7885 59.6114 52.1817 61.8792 59.171 61.8792C62.8546 61.8792 66.2103 61.2813 69.144 60.1034C75.8273 57.4197 80.2509 52.0042 81.9387 44.445C83.6185 36.9737 80.9948 26.9507 71.3518 21.3953C60.5709 15.1679 45.8844 15.9379 34.7995 23.3091C31.1798 25.7129 28.0562 28.7166 25.5144 32.2342C25.5084 32.2422 25.4984 32.2442 25.4924 32.2522L25.5004 32.2582C23.8166 34.51 22.3847 36.9517 21.2469 39.5135C18.9671 44.611 17.7832 50.2504 17.8212 55.8258C17.9352 68.4485 24.1346 80.7133 34.4015 88.6325C41.6988 94.2519 52.3497 99.9973 75.9933 99.9973H92.5716C93.1955 99.9973 93.7855 100.289 94.1655 100.789C94.5414 101.287 94.6654 101.935 94.4974 102.537L90.7578 115.896L115.947 98.0715L90.8918 80.0274L90.8898 80.0254Z" fill="white"/>
</svg>
