<svg width="24" height="24" viewBox="0 0 24 24" fill="none" xmlns="http://www.w3.org/2000/svg">
<path fill-rule="evenodd" clip-rule="evenodd" d="M10.404 22.4058C4.66517 22.4058 0 17.7406 0 12.0017C0 6.26288 4.66517 1.59766 10.404 1.59766C13.0356 1.59766 15.5052 2.55347 17.4292 4.31715C16.7892 4.69557 16.1716 5.11473 15.5776 5.56844C14.1198 4.39234 12.3071 3.7448 10.404 3.7448C5.85589 3.7448 2.14714 7.4536 2.14714 12.0017C2.14714 16.5498 5.85589 20.2587 10.404 20.2587C16.7323 20.2587 20.4895 13.4942 17.7676 8.23473C18.1801 7.85111 18.6047 7.47929 19.0405 7.11986C19.1692 7.01373 19.299 6.90859 19.4297 6.80451C20.3402 8.37713 20.8082 10.1602 20.8082 12.0017C20.8081 17.7406 16.1429 22.4058 10.404 22.4058Z" fill="#1E8A8A"/>
<path fill-rule="evenodd" clip-rule="evenodd" d="M10.6782 17.349C10.5611 17.349 10.4635 17.2709 10.4244 17.1733C10.405 17.1343 8.7262 12.8009 6.13006 11.1612C5.62253 10.8489 5.23221 10.517 5.38834 9.77528C5.54447 9.05305 6.03251 8.64313 6.91086 8.44792C8.47241 8.11606 10.1511 10.5365 10.7758 11.5321C12.962 8.35036 17.3344 3.35323 23.6979 2.76765C24.0049 2.73166 24.1184 3.1867 23.8345 3.3142C23.7369 3.35323 14.6406 7.51104 10.9514 17.1929C10.8929 17.2904 10.7953 17.349 10.6782 17.349Z" fill="#1E8A8A"/>
</svg>
