<svg width="180" height="180" viewBox="0 0 180 180" fill="none" xmlns="http://www.w3.org/2000/svg">
<circle cx="90" cy="90" r="90" fill="#0C1E21"/>
<path d="M32.4789 66.6496C32.0975 66.4833 31.8471 66.217 31.7275 65.8507C31.6144 65.4698 31.6473 65.0739 31.8264 64.6633C32.0054 64.2526 32.2698 63.9664 32.6196 63.8048C32.9758 63.6284 33.3445 63.6234 33.7258 63.7896C34.1072 63.9559 34.3544 64.2295 34.4676 64.6105C34.5725 64.9704 34.5354 65.3557 34.3563 65.7664C34.1773 66.177 33.917 66.4737 33.5755 66.6565C33.2258 66.8182 32.8602 66.8159 32.4789 66.6496Z" fill="white"/>
<path d="M28.3368 78.4261C28.8248 78.5149 29.4208 78.5907 30.1249 78.6537L29.7213 80.8733C28.3732 80.5956 27.1003 80.2178 25.9025 79.7398C24.7075 79.246 23.4547 78.4896 22.1438 77.4707C20.8172 76.4488 19.4878 75.085 18.1555 73.3791L17.2709 78.2433C17.145 78.936 17.1621 79.4676 17.3224 79.8383C17.4698 80.1903 17.7818 80.4422 18.2583 80.5939L18.1037 81.444L17.6444 81.2872C16.199 80.8293 15.3661 80.5802 15.1457 80.5401C15.2302 80.3441 15.4241 79.4117 15.7275 77.7431L16.8139 71.7691L17.8228 71.855C19.1007 73.5022 20.6255 74.9097 22.3972 76.0775C24.1688 77.2453 26.1487 78.0282 28.3368 78.4261Z" fill="white"/>
<path d="M19.474 90.0297C19.4618 88.6858 19.892 87.6098 20.7647 86.8018C21.6213 85.978 22.7695 85.5596 24.2094 85.5465C25.7614 85.5324 26.9975 85.9771 27.9177 86.8808C28.838 87.7845 29.3049 88.9803 29.3184 90.4682C29.3338 92.1642 28.7531 93.4095 27.5763 94.2042C26.3833 94.9831 24.7309 95.3821 22.619 95.4013C20.411 95.4214 18.5112 95.0067 16.9194 94.1571C15.3116 93.3077 14.4983 91.851 14.4796 89.7871C14.4726 89.0191 14.5868 88.3781 14.8221 87.8639C15.0413 87.3339 15.3258 86.9473 15.6756 86.7041C16.0253 86.4449 16.3841 86.3136 16.7521 86.3103C17.1041 86.3071 17.4091 86.4163 17.6671 86.638C17.925 86.8437 18.0557 87.1465 18.0594 87.5465C18.0621 87.8504 17.9925 88.1071 17.8504 88.3164C17.6923 88.5258 17.4772 88.6318 17.2052 88.6343C17.0932 88.6353 16.9489 88.6046 16.7724 88.5422C16.5958 88.4798 16.4435 88.4492 16.3155 88.4503C15.9795 88.4534 15.7009 88.6079 15.4797 88.914C15.2583 89.204 15.1497 89.581 15.154 90.045C15.1637 91.1169 15.7712 91.9354 16.9764 92.5005C18.1655 93.0657 19.6722 93.348 21.4962 93.3475C20.8696 93.0651 20.3778 92.6456 20.0207 92.0888C19.6637 91.532 19.4814 90.8457 19.474 90.0297ZM28.7162 90.2337C28.7001 88.4578 27.3081 87.5824 24.5402 87.6075C23.3402 87.6185 22.3021 87.8279 21.4258 88.2359C20.5493 88.6279 20.1157 89.3358 20.125 90.3598C20.1338 91.3198 20.5405 92.0601 21.3453 92.5808C22.15 93.1015 23.1844 93.3561 24.4483 93.3446C25.6323 93.3339 26.6459 93.0686 27.4892 92.5489C28.3165 92.0294 28.7255 91.2577 28.7162 90.2337Z" fill="white"/>
<path d="M21.4242 104.669C21.1185 103.245 21.2643 102.019 21.8616 100.991C22.459 99.9623 23.5007 99.2886 24.9868 98.9694C25.9254 98.7678 26.7971 98.826 27.6018 99.1441C28.3876 99.4499 29.0522 99.9536 29.5956 100.655C30.139 101.357 30.5099 102.169 30.7081 103.092C30.8694 103.843 30.9161 104.594 30.8483 105.345C30.7649 106.099 30.5372 106.753 30.1654 107.308C29.7935 107.862 29.2634 108.213 28.5751 108.361C28.1528 108.452 27.8259 108.416 27.5945 108.253C27.3441 108.077 27.1786 107.802 27.0979 107.427C27.0374 107.145 27.0636 106.886 27.1763 106.649C27.2857 106.396 27.489 106.238 27.7863 106.174C27.974 106.134 28.1874 106.137 28.4266 106.184C28.4769 106.189 28.5523 106.198 28.6529 106.209C28.7535 106.22 28.8585 106.214 28.968 106.19C29.5155 106.073 29.8746 105.726 30.0453 105.149C30.2127 104.557 30.2207 103.908 30.0695 103.204C29.8713 102.281 29.3474 101.633 28.498 101.259C27.6485 100.885 26.598 100.833 25.3466 101.101C24.2828 101.33 23.4941 101.81 22.9804 102.542C22.4667 103.275 22.3157 104.133 22.5274 105.119C22.6584 105.729 22.8984 106.275 23.2473 106.756C23.5962 107.238 23.9824 107.588 24.4061 107.808L24.5422 108.442L17.1857 109.507L15.8854 103.453C15.7476 102.811 15.5847 102.167 15.3967 101.52C15.7241 101.597 16.2873 101.591 17.0863 101.501L18.5781 108.447L23.3333 107.842C22.8951 107.478 22.4993 107.007 22.1458 106.428C21.7891 105.834 21.5485 105.247 21.4242 104.669Z" fill="white"/>
<path d="M27.9663 113.727L27.1993 111.966L28.7174 111.305L29.4844 113.065L31.9486 111.991C32.242 111.863 32.3279 111.66 32.2065 111.381L31.7435 110.379L32.2715 110.149L34.4574 115.165L33.9294 115.395L33.309 113.912C33.194 113.648 32.9898 113.58 32.6964 113.707L30.2322 114.781L32.8112 120.7L31.4911 121.275C31.1203 121.105 30.8044 120.981 30.5434 120.902L29.5833 120.562L21.3001 118.254L20.6626 118.113L19.8452 117.92L19.6056 117.37L27.9663 113.727ZM22.9056 117.974L30.7658 120.151L28.7141 115.443L22.9056 117.974Z" fill="white"/>
<path d="M39.4237 131.738L38.3738 132.538L35.3772 128.606L36.4271 127.806L39.4237 131.738Z" fill="white"/>
<path d="M45.9356 139.739L44.442 138.533L45.4825 137.244L46.9761 138.451L48.6652 136.36C48.8662 136.111 48.8485 135.891 48.612 135.7L47.7381 135.025L48.1001 134.577L52.3569 138.015L51.9949 138.463L50.7591 137.434C50.5351 137.253 50.3225 137.287 50.1214 137.536L48.4324 139.627L53.4547 143.684L52.5499 144.804C52.1425 144.825 51.8049 144.861 51.5373 144.912L50.5284 145.053L42.1165 146.835L41.486 147.005L40.6717 147.211L40.205 146.834L45.9356 139.739ZM43.4106 145.844L51.3873 144.143L47.3919 140.915L43.4106 145.844Z" fill="white"/>
<path d="M54.8085 156.898C53.3054 156.113 52.4913 155.01 52.3664 153.591C52.2199 152.178 52.6358 150.536 53.6139 148.664C54.6365 146.708 55.9012 145.22 57.408 144.202C58.9073 143.199 60.5717 143.175 62.401 144.131C63.0816 144.486 63.6041 144.886 63.9683 145.329C64.3109 145.778 64.5142 146.219 64.578 146.649C64.6277 147.072 64.5673 147.447 64.3969 147.773C64.2339 148.085 64.0009 148.306 63.698 148.437C63.3809 148.56 63.0451 148.529 62.6906 148.344C62.4212 148.203 62.2313 148.013 62.1211 147.775C62.0034 147.551 62.0076 147.319 62.1336 147.078C62.1854 146.979 62.2805 146.866 62.4187 146.739C62.557 146.613 62.6557 146.493 62.715 146.38C62.8706 146.082 62.8727 145.767 62.7211 145.435C62.5555 145.096 62.267 144.819 61.8558 144.604C60.9057 144.107 59.9012 144.25 58.8423 145.033C57.7761 145.83 56.8135 147.033 55.9545 148.642C56.4988 148.222 57.1006 147.986 57.7599 147.934C58.4193 147.881 59.1105 148.044 59.8337 148.421C61.0249 149.044 61.782 149.927 62.1051 151.071C62.4066 152.221 62.2238 153.434 61.5569 154.711C60.8381 156.086 59.8634 156.967 58.6327 157.353C57.402 157.739 56.1273 157.587 54.8085 156.898ZM59.2358 148.84C58.385 148.396 57.5403 148.405 56.7019 148.87C55.8634 149.334 55.1515 150.127 54.5661 151.247C54.0177 152.296 53.7778 153.308 53.8462 154.283C53.9072 155.272 54.3915 156.003 55.2991 156.477C56.8731 157.3 58.3012 156.485 59.5831 154.031C60.1389 152.968 60.4504 151.957 60.5176 150.999C60.5706 150.034 60.1434 149.314 59.2358 148.84Z" fill="white"/>
<path d="M67.6785 151.226C68.6084 149.294 69.1673 148.056 69.3551 147.51C69.4805 147.596 69.8896 147.737 70.5824 147.933L78.133 150.073L77.8848 151.125L74.4568 152.922C73.3197 153.531 72.3803 154.088 71.6385 154.593C70.8814 155.094 70.2365 155.668 69.7038 156.315C69.1558 156.958 68.7618 157.703 68.5218 158.549C68.247 159.519 68.2433 160.325 68.5106 160.966C68.7779 161.607 69.2656 162.028 69.9737 162.229C70.6665 162.425 71.2741 162.422 71.7968 162.221C72.3151 162.036 72.6527 161.666 72.8097 161.111C72.8621 160.927 72.8813 160.683 72.8675 160.379C72.8429 160.173 72.8567 159.977 72.9091 159.793C72.9963 159.485 73.175 159.294 73.4452 159.221C73.6956 159.159 73.9517 159.165 74.2134 159.239C74.5674 159.34 74.8195 159.536 74.9696 159.828C75.1043 160.115 75.1127 160.467 74.9949 160.883C74.8423 161.421 74.5367 161.884 74.0782 162.269C73.6153 162.67 73.0016 162.929 72.237 163.045C71.4724 163.16 70.5976 163.079 69.6123 162.8C68.3808 162.451 67.4554 161.872 66.8361 161.065C66.2124 160.273 66.0903 159.207 66.4698 157.868C66.6487 157.237 66.9442 156.664 67.3562 156.149C67.7485 155.644 68.3551 155.118 69.1759 154.569C69.9966 154.02 71.1304 153.393 72.5772 152.689L75.9232 151.093L71.8361 149.935C70.9741 149.69 70.2894 149.671 69.7822 149.876C69.2706 150.097 68.8464 150.626 68.5098 151.462L67.6785 151.226Z" fill="white"/>
<path d="M85.5948 156.711C85.7022 152.824 87.3496 149.101 90.5372 145.539L91.5688 145.568C90.8567 146.428 90.2263 147.523 89.6774 148.853C89.1125 150.182 88.6744 151.554 88.3632 152.97C88.052 154.386 87.8809 155.654 87.85 156.773C87.8191 157.893 87.9199 159.168 88.1525 160.599C88.3851 162.03 88.7467 163.425 89.2374 164.783C89.7121 166.14 90.2812 167.268 90.9446 168.167L89.913 168.139C86.9269 164.407 85.4875 160.598 85.5948 156.711Z" fill="white"/>
<path d="M105.006 156.765C105.34 159.19 105.076 161.092 104.215 162.47C103.357 163.864 102.072 164.678 100.36 164.913C98.6322 165.151 97.1661 164.706 95.9615 163.579C94.7434 162.471 93.9699 160.72 93.6411 158.326C93.3145 155.949 93.5804 154.063 94.4387 152.669C95.2992 151.291 96.6012 150.483 98.3449 150.243C100.089 150.004 101.554 150.44 102.74 151.553C103.929 152.682 104.684 154.419 105.006 156.765ZM102.894 157.08C102.661 155.384 102.343 154.071 101.941 153.141C101.538 152.211 101.056 151.582 100.495 151.256C99.9194 150.947 99.2354 150.847 98.4429 150.956C97.6344 151.067 96.9959 151.357 96.5273 151.825C96.0449 152.311 95.7354 153.056 95.5988 154.06C95.4463 155.066 95.4843 156.402 95.7129 158.066C95.9481 159.778 96.2747 161.098 96.6929 162.025C97.0973 162.971 97.5963 163.605 98.1896 163.927C98.7693 164.268 99.4634 164.382 100.272 164.271C101.461 164.108 102.279 163.479 102.726 162.384C103.173 161.289 103.229 159.521 102.894 157.08Z" fill="white"/>
<path d="M119.396 151.804C120.257 154.095 120.421 156.008 119.886 157.542C119.358 159.091 118.285 160.17 116.667 160.778C115.035 161.392 113.507 161.282 112.083 160.45C110.649 159.639 109.508 158.102 108.658 155.841C107.813 153.594 107.655 151.696 108.184 150.147C108.718 148.613 109.809 147.536 111.456 146.917C113.104 146.298 114.629 146.399 116.033 147.222C117.441 148.06 118.563 149.587 119.396 151.804ZM117.405 152.578C116.802 150.975 116.202 149.765 115.604 148.947C115.006 148.129 114.397 147.623 113.777 147.429C113.148 147.255 112.459 147.309 111.71 147.591C110.946 147.878 110.387 148.302 110.034 148.862C109.671 149.443 109.534 150.238 109.623 151.247C109.697 152.262 110.029 153.556 110.62 155.128C111.229 156.746 111.839 157.961 112.452 158.773C113.056 159.606 113.683 160.114 114.333 160.297C114.973 160.5 115.675 160.458 116.439 160.171C117.562 159.749 118.221 158.955 118.415 157.788C118.609 156.621 118.272 154.884 117.405 152.578Z" fill="white"/>
<path d="M126.077 148.743C125.198 148.797 124.45 148.803 123.834 148.763C123.226 148.737 122.653 148.602 122.115 148.358C121.573 148.137 121.132 147.765 120.794 147.241C120.377 146.595 120.219 145.879 120.319 145.09C120.42 144.302 120.735 143.536 121.265 142.794C121.791 142.074 122.457 141.453 123.263 140.933C124.352 140.23 125.438 139.862 126.521 139.829C127.613 139.809 128.459 140.263 129.058 141.191C129.561 141.971 129.737 142.847 129.585 143.822C129.442 144.809 129.044 145.742 128.392 146.62C129.494 146.556 130.394 146.623 131.092 146.819C131.799 147.03 132.361 147.457 132.777 148.102C133.168 148.707 133.329 149.355 133.261 150.047C133.202 150.752 132.941 151.425 132.479 152.066C132.026 152.72 131.416 153.295 130.65 153.79C129.588 154.475 128.567 154.811 127.586 154.796C126.592 154.791 125.822 154.364 125.275 153.518C124.772 152.738 124.633 151.904 124.859 151.015C125.085 150.126 125.491 149.369 126.077 148.743ZM130.177 153.323C130.89 152.863 131.348 152.32 131.553 151.693C131.757 151.065 131.669 150.456 131.287 149.865C130.888 149.246 130.332 148.872 129.619 148.742C128.915 148.625 127.952 148.608 126.731 148.693C125.809 150.126 125.742 151.454 126.532 152.677C126.975 153.363 127.515 153.757 128.152 153.859C128.79 153.962 129.465 153.783 130.177 153.323ZM123.494 141.555C122.727 142.05 122.219 142.635 121.97 143.31C121.729 143.999 121.821 144.673 122.246 145.331C122.585 145.856 123.043 146.226 123.621 146.443C124.2 146.66 124.795 146.771 125.407 146.776C126.02 146.78 126.786 146.743 127.706 146.663C128.106 145.986 128.324 145.217 128.359 144.356C128.389 143.518 128.195 142.776 127.779 142.131C127.336 141.445 126.73 141.037 125.96 140.906C125.176 140.783 124.354 141 123.494 141.555Z" fill="white"/>
<path d="M136.429 138.142C139.016 141.044 140.371 144.884 140.493 149.662L139.723 150.349C139.651 149.234 139.365 147.999 138.865 146.645C138.353 145.301 137.724 144.007 136.98 142.763C136.235 141.519 135.49 140.479 134.745 139.643C134 138.807 133.052 137.948 131.901 137.066C130.751 136.184 129.537 135.412 128.261 134.749C126.972 134.097 125.778 133.672 124.679 133.473L125.449 132.786C130.182 133.454 133.842 135.24 136.429 138.142Z" fill="white"/>
<path d="M151.596 130.011C151.279 130.925 151.146 131.98 151.198 133.176C151.212 133.598 151.265 134.088 151.359 134.646L151.122 134.978L139.902 126.986C139.641 126.8 139.423 126.831 139.246 127.078L138.361 128.363L137.892 128.029L141.345 123.181L141.814 123.515L140.875 124.791C140.68 125.065 140.713 125.295 140.974 125.48L149.849 131.802C149.966 131.885 150.085 131.911 150.206 131.88C150.327 131.848 150.403 131.755 150.434 131.6L150.82 129.694L151.596 130.011Z" fill="white"/>
<path d="M147.975 112.574C148.359 112.734 148.614 112.997 148.739 113.361C148.858 113.741 148.831 114.137 148.658 114.55C148.485 114.964 148.225 115.254 147.878 115.421C147.525 115.602 147.156 115.613 146.772 115.453C146.388 115.292 146.137 115.022 146.018 114.643C145.908 114.285 145.939 113.899 146.112 113.486C146.284 113.072 146.54 112.772 146.879 112.584C147.226 112.417 147.592 112.414 147.975 112.574Z" fill="white"/>
<path d="M151.938 100.735C151.449 100.654 150.852 100.587 150.147 100.534L150.516 98.309C151.869 98.5662 153.147 98.9246 154.352 99.3844C155.554 99.86 156.819 100.597 158.145 101.596C159.487 102.598 160.837 103.941 162.195 105.627L163.005 100.75C163.121 100.055 163.096 99.5238 162.93 99.1556C162.777 98.8059 162.461 98.5588 161.982 98.4143L162.124 97.562L162.586 97.7117C164.038 98.1477 164.874 98.3841 165.095 98.4208C165.014 98.6181 164.834 99.5533 164.556 101.226L163.561 107.216L162.551 107.146C161.248 105.518 159.702 104.134 157.913 102.993C156.123 101.852 154.132 101.1 151.938 100.735Z" fill="white"/>
<path d="M160.625 88.9976C160.658 90.3412 160.244 91.4235 159.384 92.2447C158.54 93.0814 157.398 93.5172 155.959 93.5522C154.407 93.5899 153.164 93.1639 152.23 92.2743C151.297 91.3847 150.812 90.1961 150.775 88.7086C150.734 87.0131 151.296 85.7591 152.461 84.9466C153.642 84.1497 155.288 83.7256 157.399 83.6743C159.607 83.6207 161.512 84.0066 163.117 84.8319C164.737 85.6568 165.573 87.1009 165.623 89.1643C165.641 89.9321 165.537 90.5748 165.31 91.0925C165.098 91.6258 164.82 92.0167 164.474 92.2651C164.128 92.5296 163.771 92.6663 163.403 92.6752C163.052 92.6838 162.745 92.5792 162.484 92.3615C162.223 92.1597 162.087 91.8589 162.078 91.4591C162.07 91.1551 162.136 90.8975 162.275 90.686C162.43 90.4742 162.643 90.365 162.915 90.3584C163.027 90.3557 163.172 90.3842 163.349 90.4439C163.527 90.5036 163.679 90.5319 163.807 90.5288C164.143 90.5206 164.42 90.3619 164.636 90.0525C164.853 89.7592 164.956 89.3806 164.945 88.9167C164.919 87.845 164.299 87.0358 163.085 86.4891C161.888 85.942 160.377 85.6826 158.553 85.7109C159.184 85.9837 159.682 86.3957 160.047 86.947C160.413 87.4983 160.606 88.1818 160.625 88.9976ZM151.381 88.934C151.424 90.7094 152.829 91.5636 155.597 91.4964C156.796 91.4673 157.831 91.2421 158.701 90.8208C159.571 90.4156 159.994 89.7011 159.969 88.6774C159.946 87.7177 159.528 86.9836 158.716 86.4752C157.903 85.9668 156.865 85.7279 155.601 85.7586C154.418 85.7873 153.408 86.0679 152.573 86.6003C151.753 87.1324 151.356 87.9103 151.381 88.934Z" fill="white"/>
<path d="M158.452 74.3932C158.78 75.8119 158.652 77.0399 158.071 78.0772C157.489 79.1146 156.458 79.8041 154.977 80.1458C154.041 80.3617 153.169 80.3166 152.359 80.0108C151.569 79.717 150.897 79.2234 150.343 78.5303C149.789 77.8371 149.406 77.0306 149.193 76.1107C149.021 75.3624 148.962 74.6122 149.019 73.8603C149.091 73.1048 149.309 72.447 149.672 71.887C150.035 71.3269 150.56 70.9678 151.246 70.8095C151.667 70.7124 151.994 70.7436 152.228 70.9031C152.481 71.0746 152.651 71.3474 152.737 71.7216C152.802 72.0022 152.78 72.2619 152.671 72.5005C152.565 72.7547 152.364 72.916 152.068 72.9844C151.881 73.0275 151.667 73.0275 151.428 72.9844C151.377 72.9796 151.302 72.9724 151.201 72.9628C151.1 72.9532 150.995 72.961 150.886 72.9861C150.34 73.112 149.987 73.4646 149.825 74.0438C149.666 74.6387 149.668 75.2869 149.83 75.9884C150.042 76.9083 150.576 77.5487 151.431 77.9097C152.286 78.2707 153.337 78.3073 154.584 78.0195C155.645 77.7749 156.426 77.2827 156.928 76.5428C157.431 75.8028 157.569 74.9418 157.342 73.9596C157.202 73.3516 156.954 72.8095 156.598 72.3334C156.241 71.8573 155.85 71.5125 155.423 71.299L155.277 70.6676L162.617 69.4914L164.009 75.5249C164.156 76.1641 164.329 76.8057 164.527 77.4497C164.198 77.3777 163.635 77.3927 162.838 77.4946L161.241 70.5724L156.495 71.2486C156.939 71.606 157.342 72.0714 157.704 72.6446C158.07 73.2335 158.319 73.8163 158.452 74.3932Z" fill="white"/>
<path d="M151.773 65.4324L152.566 67.1807L151.059 67.8652L150.265 66.1169L147.817 67.228C147.526 67.3603 147.443 67.5648 147.569 67.8416L148.047 68.837L147.522 69.0751L145.261 64.0924L145.785 63.8543L146.428 65.3284C146.547 65.5907 146.752 65.6557 147.044 65.5234L149.491 64.4123L146.823 58.5336L148.134 57.9384C148.507 58.1028 148.825 58.2222 149.087 58.2964L150.052 58.6227L158.37 60.8038L159.009 60.9352L159.829 61.1164L160.077 61.6627L151.773 65.4324ZM156.768 61.1089L148.876 59.0511L150.999 63.7278L156.768 61.1089Z" fill="white"/>
<path d="M140.042 47.5994L141.08 46.7835L144.136 50.6699L143.098 51.4858L140.042 47.5994Z" fill="white"/>
<path d="M133.411 39.6953L134.923 40.8789L133.902 42.1828L132.39 40.9992L130.733 43.1156C130.536 43.3676 130.557 43.5873 130.796 43.7747L131.68 44.4364L131.325 44.8899L127.016 41.5166L127.372 41.0631L128.623 42.0732C128.85 42.2508 129.062 42.2136 129.259 41.9616L130.916 39.8451L125.833 35.8652L126.72 34.7314C127.127 34.7046 127.464 34.6636 127.731 34.6083L128.738 34.4516L137.122 32.542L137.75 32.3629L138.561 32.1445L139.033 32.5144L133.411 39.6953ZM135.843 33.5524L127.893 35.375L131.937 38.5412L135.843 33.5524Z" fill="white"/>
<path d="M124.278 22.6736C125.793 23.4362 126.623 24.526 126.77 25.9432C126.938 27.3533 126.547 29.0015 125.597 30.888C124.604 32.8602 123.362 34.3667 121.871 35.4074C120.387 36.4337 118.724 36.4829 116.88 35.5549C116.194 35.2096 115.666 34.8182 115.295 34.3807C114.945 33.9361 114.735 33.4991 114.665 33.0696C114.609 32.6472 114.663 32.2717 114.829 31.943C114.987 31.6286 115.217 31.4038 115.518 31.2687C115.833 31.1407 116.169 31.1667 116.526 31.3465C116.798 31.4832 116.991 31.6698 117.104 31.9062C117.226 32.1284 117.225 32.3609 117.103 32.6039C117.052 32.7039 116.959 32.8182 116.823 32.9466C116.686 33.075 116.589 33.1964 116.532 33.3107C116.381 33.6108 116.383 33.9257 116.54 34.2553C116.711 34.592 117.003 34.8647 117.418 35.0734C118.375 35.5554 119.378 35.3971 120.424 34.5985C121.479 33.7856 122.423 32.5681 123.257 30.9461C122.719 31.374 122.121 31.6192 121.463 31.6819C120.804 31.7445 120.111 31.5923 119.382 31.2254C118.181 30.6211 117.411 29.7497 117.07 28.6111C116.752 27.4653 116.916 26.2493 117.563 24.9631C118.261 23.5768 119.222 22.6814 120.447 22.2769C121.672 21.8723 122.949 22.0045 124.278 22.6736ZM119.973 30.7977C120.831 31.2294 121.675 31.2066 122.506 30.7294C123.338 30.2522 124.038 29.4491 124.606 28.3201C125.138 27.2625 125.363 26.2471 125.28 25.2737C125.204 24.2861 124.708 23.562 123.794 23.1016C122.207 22.3031 120.792 23.14 119.547 25.6124C119.008 26.6843 118.711 27.6996 118.659 28.6583C118.62 29.6241 119.059 30.3373 119.973 30.7977Z" fill="white"/>
<path d="M111.496 28.5383C110.595 30.4838 110.055 31.7307 109.876 32.279C109.749 32.1954 109.338 32.0608 108.642 31.875L101.06 29.8503L101.292 28.7945L104.693 26.9451C105.82 26.3189 106.751 25.7477 107.485 25.2316C108.235 24.7196 108.871 24.136 109.393 23.4807C109.932 22.8295 110.314 22.0788 110.541 21.2286C110.801 20.2547 110.793 19.4492 110.516 18.8122C110.239 18.1752 109.745 17.7617 109.034 17.5718C108.338 17.386 107.731 17.3977 107.211 17.6067C106.696 17.8003 106.364 18.1754 106.215 18.7319C106.166 18.9174 106.15 19.1616 106.168 19.4646C106.196 19.6708 106.185 19.8666 106.136 20.0521C106.053 20.3613 105.877 20.5544 105.608 20.6317C105.359 20.6975 105.103 20.6954 104.84 20.6252C104.485 20.5303 104.229 20.338 104.075 20.0483C103.936 19.7627 103.922 19.4113 104.034 18.9939C104.178 18.4529 104.477 17.9861 104.929 17.5936C105.386 17.1856 105.996 16.9178 106.758 16.7903C107.521 16.6628 108.397 16.7311 109.386 16.9953C110.623 17.3255 111.557 17.8896 112.189 18.6876C112.824 19.47 112.963 20.5337 112.604 21.8786C112.434 22.5124 112.148 23.09 111.743 23.6113C111.359 24.1214 110.76 24.6571 109.948 25.2185C109.136 25.7799 108.011 26.4237 106.575 27.1498L103.254 28.7967L107.358 29.8927C108.224 30.1238 108.909 30.1328 109.413 29.9197C109.921 29.691 110.337 29.1563 110.661 28.3154L111.496 28.5383Z" fill="white"/>
<path d="M93.4976 23.3287C93.4493 27.2164 91.8586 30.965 88.7255 34.5743L87.6936 34.5615C88.3925 33.6901 89.0063 32.5856 89.5349 31.2481C90.0796 29.9108 90.4967 28.5318 90.7864 27.1113C91.0761 25.6908 91.2279 24.4206 91.2418 23.3007C91.2557 22.1808 91.1355 20.9072 90.8813 19.4799C90.627 18.0527 90.2442 16.6638 89.7329 15.3133C89.2377 13.9631 88.6515 12.8437 87.9745 11.9552L89.0064 11.9681C92.0489 15.6541 93.5459 19.441 93.4976 23.3287Z" fill="white"/>
<path d="M74.0872 23.5688C73.7173 21.1489 73.9521 19.2435 74.7916 17.8527C75.6286 16.446 76.9012 15.6122 78.6094 15.351C80.3334 15.0875 81.8061 15.5098 83.0276 16.618C84.2624 17.7079 85.0624 19.447 85.4275 21.8352C85.7902 24.2077 85.553 26.0972 84.7159 27.5038C83.8764 28.8947 82.5868 29.7231 80.847 29.989C79.1072 30.255 77.6357 29.8406 76.4325 28.7458C75.2268 27.6352 74.4451 25.9096 74.0872 23.5688ZM76.1951 23.2223C76.4538 24.9146 76.7913 26.2226 77.2077 27.1463C77.624 28.07 78.1155 28.6909 78.6821 29.0089C79.262 29.3087 79.9474 29.3982 80.7382 29.2773C81.5448 29.154 82.1789 28.8547 82.6404 28.3795C83.1153 27.8861 83.4134 27.1364 83.5348 26.1305C83.672 25.1222 83.6137 23.7877 83.3598 22.127C83.0987 20.4189 82.7521 19.1041 82.3199 18.1829C81.9011 17.2434 81.3926 16.617 80.7944 16.3038C80.2096 15.9724 79.5139 15.8683 78.7073 15.9916C77.5211 16.1729 76.7127 16.8145 76.2823 17.9161C75.8518 19.0178 75.8227 20.7866 76.1951 23.2223Z" fill="white"/>
<path d="M59.7754 28.7511C58.8793 26.473 58.6867 24.5629 59.1977 23.0208C59.7028 21.4638 60.7594 20.3691 62.3674 19.7365C63.9904 19.0981 65.52 19.1841 66.9564 19.9946C68.4018 20.7843 69.5667 22.3033 70.4511 24.5516C71.3297 26.785 71.5164 28.6802 71.0113 30.2372C70.5003 31.7793 69.4259 32.8724 67.7881 33.5167C66.1502 34.161 64.6235 34.0824 63.2079 33.281C61.7864 32.4647 60.6422 30.9547 59.7754 28.7511ZM61.7543 27.9468C62.381 29.54 62.9996 30.7409 63.61 31.5496C64.2204 32.3583 64.837 32.855 65.4599 33.0398C66.0918 33.2039 66.78 33.1395 67.5245 32.8467C68.2839 32.548 68.836 32.1159 69.1809 31.5503C69.5349 30.9641 69.6598 30.167 69.5556 29.1592C69.4664 28.1455 69.1142 26.857 68.4993 25.2936C67.8667 23.6855 67.2378 22.4801 66.6125 21.6773C65.9962 20.8537 65.3618 20.3553 64.7091 20.1822C64.0655 19.9884 63.364 20.0408 62.6046 20.3395C61.4879 20.7788 60.8415 21.5833 60.6655 22.7529C60.4894 23.9225 60.8524 25.6538 61.7543 27.9468Z" fill="white"/>
<path d="M53.1424 31.9118C54.021 31.8448 54.7688 31.8267 55.3856 31.8575C55.9936 31.8749 56.5683 32.0011 57.1098 32.236C57.6557 32.4488 58.1019 32.8146 58.4483 33.3337C58.8746 33.9725 59.0436 34.6869 58.9552 35.4768C58.8668 36.2667 58.5632 37.0368 58.0444 37.787C57.53 38.515 56.8736 39.1455 56.075 39.6784C54.9971 40.3978 53.9167 40.7822 52.8339 40.8315C51.7423 40.8676 50.8901 40.4264 50.2772 39.5082C49.7621 38.7363 49.5731 37.8622 49.7102 36.8858C49.8384 35.8962 50.2218 34.9574 50.8603 34.0696C49.7598 34.15 48.859 34.0972 48.1578 33.9112C47.4476 33.7118 46.8794 33.2928 46.4531 32.6539C46.0534 32.0551 45.8823 31.4095 45.9396 30.7172C45.9881 30.0116 46.2385 29.3347 46.6908 28.6866C47.1342 28.0252 47.7352 27.4414 48.4938 26.9351C49.5452 26.2334 50.5612 25.8824 51.5419 25.8819C52.5359 25.8725 53.3127 26.2871 53.8723 27.1255C54.3874 27.8974 54.5387 28.7294 54.3261 29.6214C54.1136 30.5135 53.719 31.2769 53.1424 31.9118ZM48.9733 27.3941C48.2679 27.8649 47.8178 28.4154 47.6229 29.0456C47.4279 29.6758 47.5258 30.2837 47.9166 30.8693C48.3252 31.4815 48.8867 31.8473 49.6012 31.9668C50.3069 32.0729 51.2698 32.0747 52.4901 31.972C53.3902 30.5249 53.4362 29.1958 52.628 27.9848C52.175 27.306 51.629 26.9202 50.9899 26.8274C50.3508 26.7345 49.6786 26.9234 48.9733 27.3941ZM55.8351 39.0595C56.5937 38.5532 57.0926 37.9605 57.3319 37.2815C57.5623 36.5891 57.46 35.9168 57.0247 35.2647C56.6784 34.7457 56.2145 34.382 55.633 34.1738C55.0516 33.9655 54.4547 33.8637 53.8423 33.8684C53.2299 33.8732 52.4645 33.9224 51.5459 34.016C51.1557 34.6996 50.9498 35.4718 50.928 36.3327C50.9107 37.1715 51.1152 37.9102 51.5415 38.549C51.9944 39.2278 52.607 39.6268 53.3792 39.7463C54.1647 39.8568 54.9834 39.6279 55.8351 39.0595Z" fill="white"/>
<path d="M42.951 42.6668C40.3201 39.8042 38.9071 35.9851 38.7122 31.2095L39.4721 30.5112C39.561 31.6247 39.8658 32.8549 40.3865 34.2017C40.919 35.5377 41.5669 36.822 42.3302 38.0545C43.0936 39.287 43.8542 40.3156 44.612 41.1402C45.3699 41.9648 46.3308 42.8093 47.4947 43.6737C48.6585 44.5381 49.8837 45.2919 51.1701 45.935C52.4683 46.5673 53.6684 46.9746 54.7705 47.1569L54.0107 47.8553C49.2685 47.2589 45.5819 45.5294 42.951 42.6668Z" fill="white"/>
<path d="M27.909 51.024C28.2119 50.1056 28.3284 49.0489 28.2585 47.854C28.2385 47.432 28.1774 46.9429 28.0752 46.3865L28.3068 46.0506L39.6474 53.8718C39.9108 54.0534 40.1288 54.0191 40.3014 53.7689L41.1673 52.4711L41.6415 52.7981L38.2623 57.6978L37.7882 57.3708L38.7072 56.0805C38.898 55.8039 38.8616 55.5747 38.5982 55.3931L29.6285 49.207C29.51 49.1252 29.3905 49.1012 29.2702 49.1348C29.1498 49.1684 29.0751 49.2626 29.046 49.4175L28.6897 51.3292L27.909 51.024Z" fill="white"/>
</svg>
