<svg width="30" height="30" viewBox="0 0 30 30" fill="none" xmlns="http://www.w3.org/2000/svg">
<path d="M29.5312 26.0273H28.5938V7.74609C28.5938 7.62177 28.5444 7.50255 28.4565 7.41464C28.3685 7.32673 28.2493 7.27734 28.125 7.27734H24.375C24.2507 7.27734 24.1315 7.32673 24.0435 7.41464C23.9556 7.50255 23.9062 7.62177 23.9062 7.74609V26.0273H21.0938V11.4961C21.0938 11.3718 21.0444 11.2525 20.9565 11.1646C20.8685 11.0767 20.7493 11.0273 20.625 11.0273H16.875C16.7507 11.0273 16.6315 11.0767 16.5435 11.1646C16.4556 11.2525 16.4062 11.3718 16.4062 11.4961V26.0273H13.5938V15.2461C13.5938 15.1218 13.5444 15.0025 13.4565 14.9146C13.3685 14.8267 13.2493 14.7773 13.125 14.7773H9.375C9.25068 14.7773 9.13145 14.8267 9.04354 14.9146C8.95564 15.0025 8.90625 15.1218 8.90625 15.2461V26.0273H6.09375V18.9961C6.09375 18.8718 6.04436 18.7525 5.95646 18.6646C5.86855 18.5767 5.74932 18.5273 5.625 18.5273H1.875C1.75068 18.5273 1.63145 18.5767 1.54354 18.6646C1.45564 18.7525 1.40625 18.8718 1.40625 18.9961V26.0273H0.46875C0.34443 26.0273 0.225201 26.0767 0.137294 26.1646C0.049386 26.2525 0 26.3718 0 26.4961L0 27.9023C0 28.0267 0.049386 28.1459 0.137294 28.2338C0.225201 28.3217 0.34443 28.3711 0.46875 28.3711H29.5312C29.6556 28.3711 29.7748 28.3217 29.8627 28.2338C29.9506 28.1459 30 28.0267 30 27.9023V26.4961C30 26.3718 29.9506 26.2525 29.8627 26.1646C29.7748 26.0767 29.6556 26.0273 29.5312 26.0273ZM24.8438 8.21484H27.6562V26.0273H24.8438V8.21484ZM17.3438 11.9648H20.1562V26.0273H17.3438V11.9648ZM9.84375 15.7148H12.6562V26.0273H9.84375V15.7148ZM2.34375 19.4648H5.15625V26.0273H2.34375V19.4648ZM29.0625 27.4336H0.9375V26.9648H29.0625V27.4336Z" fill="#0F282C"/>
<path d="M7.06696 14.121C7.10008 14.1748 7.14372 14.2213 7.19526 14.2578C7.2468 14.2942 7.30518 14.3199 7.36689 14.3333C7.4286 14.3466 7.49237 14.3474 7.55437 14.3355C7.61638 14.3236 7.67534 14.2993 7.72772 14.264L20.6729 5.55246L21.1546 6.33428C21.1985 6.40551 21.2607 6.46369 21.3346 6.50278C21.4086 6.54187 21.4917 6.56045 21.5753 6.55659C21.6589 6.55273 21.7399 6.52656 21.8099 6.48081C21.88 6.43507 21.9365 6.3714 21.9737 6.29643L23.9366 2.33391C23.9719 2.26267 23.9884 2.18363 23.9848 2.10421C23.9811 2.0248 23.9573 1.94762 23.9156 1.87994C23.8739 1.81226 23.8157 1.75629 23.7464 1.71731C23.6771 1.67833 23.5991 1.6576 23.5196 1.65709L19.0974 1.62891H19.0944C19.011 1.62888 18.929 1.65114 18.8571 1.69338C18.7851 1.73561 18.7257 1.7963 18.685 1.86916C18.6443 1.94202 18.6239 2.02443 18.6257 2.10786C18.6275 2.19129 18.6515 2.27272 18.6954 2.34375L19.1969 3.15762L6.22075 11.89C6.1203 11.9575 6.04989 12.0614 6.02428 12.1797C5.99867 12.298 6.01984 12.4217 6.08335 12.5248L7.06696 14.121ZM20.0941 3.68373C20.1945 3.61614 20.2649 3.51232 20.2905 3.39401C20.3162 3.27569 20.295 3.15205 20.2315 3.04898L19.9374 2.57174L22.7638 2.58978L21.5094 5.12244L21.2154 4.64525C21.1822 4.59146 21.1386 4.54491 21.087 4.50841C21.0355 4.47191 20.9771 4.44621 20.9153 4.43285C20.8536 4.41949 20.7898 4.41875 20.7277 4.43067C20.6657 4.44259 20.6067 4.46693 20.5543 4.50223L7.60913 13.2138L7.1177 12.4163L20.0941 3.68373Z" fill="#0F282C"/>
</svg>
