<svg width="80" height="80" viewBox="0 0 80 80" fill="none" xmlns="http://www.w3.org/2000/svg">
<path d="M11.3162 41.6856C14.7437 41.6856 17.5195 38.919 17.5195 35.5296C17.5195 34.2242 17.0971 33.0145 16.3971 32.0085L26.8365 21.6128C27.8261 22.2834 29.033 22.6787 30.3243 22.6787C31.9415 22.6787 33.4018 22.0439 34.5121 21.0379L43.7687 27.8526C43.3705 28.667 43.1291 29.5653 43.1291 30.5234C43.1291 33.9248 45.9169 36.6794 49.3324 36.6794C52.7598 36.6794 55.5356 33.9128 55.5356 30.5234C55.5356 29.1341 55.0529 27.8765 54.2805 26.8466L66.6629 13.3249L66.0232 17.9C65.9388 18.5348 66.3732 19.1216 67.0129 19.2055C67.0732 19.2174 67.1215 19.2174 67.1818 19.2174C67.7491 19.2174 68.2559 18.7982 68.3404 18.2234L69.5111 9.93552C69.5111 9.91157 69.499 9.88762 69.499 9.85169C69.5111 9.73192 69.499 9.62413 69.4628 9.51634C69.4507 9.46843 69.4387 9.40855 69.4266 9.36064C69.3904 9.25285 69.318 9.15704 69.2456 9.06123C69.2214 9.0253 69.2094 8.97739 69.1732 8.95344C69.1611 8.94146 69.149 8.94146 69.1369 8.92948C69.1369 8.92948 69.1369 8.91751 69.1249 8.91751C69.1128 8.91751 69.1128 8.90553 69.1007 8.90553C68.8714 8.7139 68.5818 8.60611 68.2921 8.61809H68.2801C68.2439 8.61809 68.2077 8.61809 68.1835 8.61809L59.8321 9.77983C59.1924 9.86366 58.7459 10.4505 58.8424 11.0853C58.9269 11.72 59.5183 12.1632 60.1579 12.0674L65.3233 11.3488L52.5667 25.2896C51.6254 24.7147 50.5272 24.3674 49.3444 24.3674C47.7272 24.3674 46.2669 25.0021 45.1687 26.0082L35.9121 19.1935C36.3103 18.391 36.5396 17.4928 36.5396 16.5347C36.5396 13.1333 33.7518 10.3787 30.3364 10.3787C26.9209 10.3787 24.1331 13.1453 24.1331 16.5347C24.1331 17.8162 24.5314 19.0018 25.2072 19.9959L14.7437 30.4036C13.7662 29.7569 12.5834 29.3736 11.3283 29.3736C7.90082 29.3736 5.12504 32.1402 5.12504 35.5296C5.11297 38.931 7.88875 41.6856 11.3162 41.6856ZM49.3444 26.6789C51.4806 26.6789 53.2185 28.4035 53.2185 30.5234C53.2185 32.6433 51.4806 34.3679 49.3444 34.3679C47.2083 34.3679 45.4704 32.6433 45.4704 30.5234C45.4704 28.4035 47.2083 26.6789 49.3444 26.6789ZM30.3243 12.6782C32.4604 12.6782 34.1983 14.4028 34.1983 16.5227C34.1983 18.6425 32.4604 20.3672 30.3243 20.3672C28.1882 20.3672 26.4503 18.6425 26.4503 16.5227C26.4503 14.4028 28.1882 12.6782 30.3243 12.6782ZM11.3162 31.6851C13.4524 31.6851 15.1903 33.4098 15.1903 35.5296C15.1903 37.6495 13.4524 39.3741 11.3162 39.3741C9.18009 39.3741 7.44221 37.6495 7.44221 35.5296C7.44221 33.4098 9.18009 31.6851 11.3162 31.6851Z" fill="#1E8A8A"/>
<path d="M77.1839 68.3219H74.9875V29.6373C74.9875 27.721 73.4185 26.1641 71.4876 26.1641H65.236C63.305 26.1641 61.7361 27.721 61.7361 29.6373V68.3219H55.9794V47.0034C55.9794 45.0872 54.4105 43.5302 52.4795 43.5302H46.228C44.297 43.5302 42.7281 45.0872 42.7281 47.0034V68.3099H36.9713V37.7455C36.9713 35.8292 35.4024 34.2723 33.4714 34.2723H27.2199C25.2889 34.2723 23.72 35.8292 23.72 37.7455V68.3219H17.9633V57.4351C17.9633 55.5188 16.3944 53.9619 14.4634 53.9619H8.1877C6.25672 53.9619 4.6878 55.5188 4.6878 57.4351V68.3219H2.47925C1.83961 68.3219 1.30859 68.8369 1.30859 69.4836C1.30859 70.1304 1.82754 70.6454 2.47925 70.6454H77.1719C77.8115 70.6454 78.3425 70.1304 78.3425 69.4836C78.3425 68.8369 77.8236 68.3219 77.1839 68.3219ZM7.01705 68.3219V57.4351C7.01705 56.8003 7.536 56.2734 8.1877 56.2734H14.4392C15.0789 56.2734 15.6099 56.7884 15.6099 57.4351V68.3219H7.01705ZM26.0251 68.3219V37.7455C26.0251 37.1107 26.5441 36.5837 27.1958 36.5837H33.4473C34.0869 36.5837 34.618 37.0987 34.618 37.7455V68.3219H26.0251ZM45.0452 68.3219V47.0034C45.0452 46.3687 45.5642 45.8417 46.2159 45.8417H52.4674C53.1071 45.8417 53.6381 46.3567 53.6381 47.0034V68.3099H45.0452V68.3219ZM64.0533 68.3219V29.6373C64.0533 29.0025 64.5722 28.4756 65.224 28.4756H71.4755C72.1151 28.4756 72.6461 28.9906 72.6461 29.6373V68.3219H64.0533Z" fill="#1E8A8A"/>
</svg>
