<svg width="80" height="80" viewBox="0 0 80 80" fill="none" xmlns="http://www.w3.org/2000/svg">
<path d="M2.35156 62.2339C2.35156 64.8222 4.46921 66.9398 7.05744 66.9398H36.3516C37.0574 66.9398 37.528 66.4692 37.528 65.7633C37.528 65.0575 37.0574 64.5869 36.3516 64.5869H7.05744C5.76333 64.5869 4.7045 63.528 4.7045 62.2339V19.4104H68.2339V45.881C66.8221 44.8222 65.2927 43.9986 63.528 43.528L63.0574 39.528C62.9398 38.9398 62.4692 38.4692 61.881 38.4692H56.3516C55.7633 38.4692 55.2927 38.9398 55.1751 39.528L54.7045 43.528C52.4692 44.2339 50.4692 45.4104 48.7045 46.9398L45.0574 45.4104C44.4692 45.1751 43.881 45.4104 43.528 45.881L40.7045 50.7045C40.3516 51.1751 40.5869 51.881 41.0574 52.2339L44.2339 54.5869C43.7633 56.8222 43.7633 59.2927 44.2339 61.528L41.0574 63.881C40.5869 64.2339 40.4692 64.9398 40.7045 65.4104L43.528 70.2339C43.881 70.7045 44.4692 70.9398 45.0574 70.7045L48.7045 69.0575C50.3516 70.7045 52.4692 71.881 54.7045 72.4692L55.1751 76.4692C55.2927 77.0575 55.7633 77.528 56.3516 77.528H61.881C62.4692 77.528 62.9398 77.0575 63.0574 76.4692L63.528 72.4692C65.7633 71.7633 67.7633 70.5869 69.528 69.0575L73.1751 70.7045C73.7633 70.9398 74.3516 70.7045 74.7045 70.2339L77.528 65.4104C77.881 64.9398 77.6457 64.2339 77.1751 63.881L73.9986 61.528C74.4692 59.2927 74.4692 56.8222 73.9986 54.5869L77.1751 52.2339C77.6457 51.881 77.7633 51.1751 77.528 50.7045L74.7045 45.881C74.3516 45.4104 73.7633 45.1751 73.1751 45.4104L70.5869 46.5869C70.5869 42.4692 70.5869 61.1751 70.5869 7.05745C70.5869 4.46921 68.4692 2.35156 65.881 2.35156H7.05744C4.46921 2.35156 2.35156 4.46921 2.35156 7.05745V62.2339ZM74.9398 50.9398L71.881 53.1751C71.528 53.528 71.2927 53.9986 71.4104 54.4692C72.1163 56.7045 72.1163 59.4104 71.4104 61.6457C71.2927 62.1163 71.4104 62.5869 71.881 62.9398L74.9398 65.1751L73.1751 68.2339L69.7633 66.7045C69.2927 66.4692 68.8222 66.5869 68.4692 66.9398C66.8222 68.7045 64.5869 69.9986 62.2339 70.5869C61.7633 70.7045 61.4104 71.0575 61.2927 71.6457L60.8221 75.2927H57.4104L56.9398 71.528C56.9398 71.0575 56.4692 70.5869 55.9986 70.4692C53.6457 69.881 51.528 68.7045 49.7633 66.8222C49.4104 66.4692 48.9398 66.3516 48.4692 66.5869L45.0574 68.1163L43.2927 65.1751L46.3516 62.9398C46.7045 62.5869 46.9398 62.1163 46.8221 61.6457C46.1163 59.4104 46.1163 56.7045 46.8221 54.4692C46.9398 53.9986 46.8222 53.528 46.3516 53.1751L43.2927 50.9398L45.0574 47.9986L48.4692 49.528C48.9398 49.7633 49.4104 49.6457 49.7633 49.2927C51.4104 47.528 53.6457 46.2339 55.9986 45.7633C56.4692 45.6457 56.8222 45.2927 56.9398 44.7045L57.4104 40.9398H60.8221L61.2927 44.7045C61.2927 45.1751 61.7633 45.6457 62.2339 45.7633C64.5869 46.3516 66.7045 47.528 68.4692 49.2927C68.9398 49.7633 69.7633 49.7633 70.2339 49.4104L73.2927 48.1163L74.9398 50.9398ZM4.7045 7.05745C4.7045 5.76333 5.76333 4.7045 7.05744 4.7045H65.881C67.1751 4.7045 68.2339 5.76333 68.2339 7.05745V17.0574H4.7045V7.05745Z" fill="#1E8A8A"/>
<path d="M12.9392 7.28906C10.9394 7.28906 9.41016 8.81832 9.41016 10.8181C9.41016 12.8179 10.9394 14.3472 12.9392 14.3472C14.939 14.3472 16.4683 12.8179 16.4683 10.8181C16.4683 8.81832 14.8214 7.28906 12.9392 7.28906ZM12.9392 11.9945C12.2334 11.9945 11.7629 11.5239 11.7629 10.8181C11.7629 10.1123 12.2334 9.64177 12.9392 9.64177C13.645 9.64177 14.1156 10.1123 14.1156 10.8181C14.1156 11.5239 13.5274 11.9945 12.9392 11.9945Z" fill="#1E8A8A"/>
<path d="M22.822 7.28906C20.8222 7.28906 19.293 8.81832 19.293 10.8181C19.293 12.8179 20.8222 14.3472 22.822 14.3472C24.8218 14.3472 26.3511 12.8179 26.3511 10.8181C26.3511 8.81832 24.8218 7.28906 22.822 7.28906ZM22.822 11.9945C22.1162 11.9945 21.6457 11.5239 21.6457 10.8181C21.6457 10.1123 22.1162 9.64177 22.822 9.64177C23.5278 9.64177 23.9984 10.1123 23.9984 10.8181C23.9984 11.5239 23.5278 11.9945 22.822 11.9945Z" fill="#1E8A8A"/>
<path d="M32.822 7.28906C30.8222 7.28906 29.293 8.81832 29.293 10.8181C29.293 12.8179 30.8222 14.3472 32.822 14.3472C34.8218 14.3472 36.3511 12.8179 36.3511 10.8181C36.3511 8.81832 34.7042 7.28906 32.822 7.28906ZM32.822 11.9945C32.1162 11.9945 31.6457 11.5239 31.6457 10.8181C31.6457 10.1123 32.1162 9.64177 32.822 9.64177C33.5278 9.64177 33.9984 10.1123 33.9984 10.8181C33.9984 11.5239 33.4102 11.9945 32.822 11.9945Z" fill="#1E8A8A"/>
<path d="M60.824 9.64844H47.0593C46.3534 9.64844 45.8828 10.119 45.8828 10.8249C45.8828 11.5308 46.3534 12.0014 47.0593 12.0014H60.824C61.5299 12.0014 62.0005 11.5308 62.0005 10.8249C62.0005 10.119 61.5299 9.64844 60.824 9.64844Z" fill="#1E8A8A"/>
<path d="M11.4115 36.3506C9.05859 36.3506 7.05859 38.3506 7.05859 40.7036C7.05859 43.0565 9.05859 45.0565 11.4115 45.0565C13.7645 45.0565 15.7645 43.0565 15.7645 40.7036C15.7645 39.8801 15.5292 39.0565 15.0586 38.3506L18.588 34.3506C19.2939 34.8212 20.1174 35.0565 20.9409 35.0565C22.3527 35.0565 23.5292 34.3506 24.3527 33.4095L29.5292 36.5859C29.4115 36.8212 29.4115 37.1742 29.4115 37.5271C29.4115 39.8801 31.4115 41.8801 33.7645 41.8801C36.1174 41.8801 38.1174 39.8801 38.1174 37.5271C38.1174 36.8212 37.8821 36.1153 37.5292 35.5271L41.4115 31.0565C41.7645 31.1742 42.2351 31.2918 42.588 31.2918C44.9409 31.2918 46.9409 29.2918 46.9409 26.9389C46.9409 24.5859 44.9409 22.5859 42.588 22.5859C40.2351 22.5859 38.2351 24.5859 38.2351 26.9389C38.2351 27.9977 38.7057 29.0565 39.2939 29.7624L35.7645 33.8801C35.1762 33.5271 34.3527 33.2918 33.6468 33.2918C32.4704 33.2918 31.4115 33.7624 30.588 34.5859L25.1762 31.2918C25.1762 31.1742 25.1762 31.0565 25.1762 30.8212C25.1762 28.4683 23.1762 26.4683 20.8233 26.4683C18.4704 26.4683 16.4704 28.4683 16.4704 30.8212C16.4704 31.5271 16.588 32.1153 16.9409 32.7036L13.1762 36.9389C12.7057 36.4683 12.1174 36.3506 11.4115 36.3506ZM42.7057 24.8212C43.7645 24.8212 44.7057 25.7624 44.7057 26.8212C44.7057 27.8801 43.7645 28.8212 42.7057 28.8212C41.6468 28.8212 40.7057 27.8801 40.7057 26.8212C40.7057 25.7624 41.5292 24.8212 42.7057 24.8212ZM33.7645 35.5271C34.8233 35.5271 35.7645 36.4683 35.7645 37.5271C35.7645 38.5859 34.8233 39.5271 33.7645 39.5271C32.7057 39.5271 31.7645 38.5859 31.7645 37.5271C31.7645 36.4683 32.588 35.5271 33.7645 35.5271ZM11.4115 42.7036C10.3527 42.7036 9.41154 41.7624 9.41154 40.7036C9.41154 39.6448 10.3527 38.7036 11.4115 38.7036C12.4704 38.7036 13.4115 39.5271 13.4115 40.7036C13.4115 41.7624 12.4704 42.7036 11.4115 42.7036ZM20.9409 28.7036C21.9998 28.7036 22.9409 29.6448 22.9409 30.7036C22.9409 31.7624 21.9998 32.7036 20.9409 32.7036C19.8821 32.7036 18.9409 31.7624 18.9409 30.7036C19.0586 29.6448 19.8821 28.7036 20.9409 28.7036Z" fill="#1E8A8A"/>
<path d="M42.8203 34.8248V41.4124C42.8203 42.1182 43.2909 42.5887 43.9967 42.5887C44.7025 42.5887 45.173 42.1182 45.173 41.4124V34.8248C45.173 34.119 44.7025 33.6484 43.9967 33.6484C43.2909 33.6484 42.8203 34.2366 42.8203 34.8248Z" fill="#1E8A8A"/>
<path d="M8.35225 59.0565H39.8817C40.5875 59.0565 41.0581 58.5859 41.0581 57.8801C41.0581 57.1742 40.5875 56.7036 39.8817 56.7036H35.1758V45.5271C35.1758 44.8212 34.7052 44.3506 33.9993 44.3506C33.2934 44.3506 32.8228 44.8212 32.8228 45.5271V56.7036H22.9405V41.7624C22.9405 41.0565 22.4699 40.5859 21.764 40.5859C21.0581 40.5859 20.5875 41.0565 20.5875 41.7624V56.7036H12.8228V50.5859C12.8228 49.8801 12.3523 49.4095 11.6464 49.4095C10.9405 49.4095 10.4699 49.8801 10.4699 50.5859V56.7036H8.35225C7.64637 56.7036 7.17578 57.1742 7.17578 57.8801C7.17578 58.5859 7.64637 59.0565 8.35225 59.0565Z" fill="#1E8A8A"/>
<path d="M59.1762 50C54.7056 50 51.0586 53.6471 51.0586 58.1176C51.0586 62.5882 54.7056 66.2353 59.1762 66.2353C63.6468 66.2353 67.2939 62.5882 67.2939 58.1176C67.1762 53.6471 63.6468 50 59.1762 50ZM59.1762 63.7647C55.9998 63.7647 53.4115 61.1765 53.4115 58C53.4115 54.8235 55.9998 52.2353 59.1762 52.2353C62.3527 52.2353 64.9409 54.8235 64.9409 58C64.9409 61.1765 62.3527 63.7647 59.1762 63.7647Z" fill="#1E8A8A"/>
</svg>
