<svg width="80" height="80" viewBox="0 0 80 80" fill="none" xmlns="http://www.w3.org/2000/svg">
<path fill-rule="evenodd" clip-rule="evenodd" d="M70.6523 62.4H9.34922C5.25078 62.4 1.91797 59.0656 1.91797 54.9688V7.43125C1.91797 3.33438 5.25078 0 9.34922 0H70.6523C74.7508 0 78.0836 3.33438 78.0836 7.43125V54.9688C78.0836 59.0656 74.7508 62.4 70.6523 62.4ZM9.34922 1.875C6.28516 1.875 3.79297 4.36875 3.79297 7.43125V54.9688C3.79297 58.0328 6.28516 60.525 9.34922 60.525H70.6523C73.7164 60.525 76.2086 58.0328 76.2086 54.9688V7.43125C76.2086 4.36875 73.7164 1.875 70.6523 1.875H9.34922Z" fill="#1E8A8A"/>
<path fill-rule="evenodd" clip-rule="evenodd" d="M77.1461 50.8438H2.85547C2.33672 50.8438 1.91797 50.4234 1.91797 49.9063C1.91797 49.3891 2.33672 48.9688 2.85547 48.9688H77.1461C77.6648 48.9688 78.0836 49.3891 78.0836 49.9063C78.0836 50.4234 77.6648 50.8438 77.1461 50.8438Z" fill="#1E8A8A"/>
<path fill-rule="evenodd" clip-rule="evenodd" d="M45.7008 71.3609H34.3008C33.7836 71.3609 33.3633 70.9406 33.3633 70.4234V61.4609C33.3633 60.9438 33.7836 60.5234 34.3008 60.5234H45.7008C46.218 60.5234 46.6383 60.9438 46.6383 61.4609V70.4234C46.6383 70.9406 46.218 71.3609 45.7008 71.3609ZM35.2383 69.4859H44.7633V62.3984H35.2383V69.4859Z" fill="#1E8A8A"/>
<path fill-rule="evenodd" clip-rule="evenodd" d="M55.857 79.9969H24.1445C23.6273 79.9969 23.207 79.5766 23.207 79.0594V74.7406C23.207 71.8422 25.5648 69.4844 28.4633 69.4844H51.5383C54.4367 69.4844 56.7945 71.8422 56.7945 74.7406V79.0594C56.7945 79.5766 56.3742 79.9969 55.857 79.9969ZM25.082 78.1219H54.9195V74.7406C54.9195 72.875 53.4023 71.3594 51.5383 71.3594H28.4633C26.5992 71.3594 25.082 72.875 25.082 74.7406V78.1219Z" fill="#1E8A8A"/>
<path fill-rule="evenodd" clip-rule="evenodd" d="M24.3068 43.2346C24.2631 43.2346 24.2193 43.2315 24.174 43.2252L20.0662 42.644C19.6256 42.5815 19.2881 42.2159 19.2615 41.7705L18.9443 36.4034C18.4693 36.1659 18.01 35.8987 17.5693 35.6002L12.8428 38.1002C12.435 38.3143 11.9318 38.2018 11.6553 37.8346L9.16153 34.519C8.89435 34.1612 8.91466 33.6659 9.20997 33.333L12.7818 29.3112C12.6131 28.808 12.4772 28.2924 12.374 27.7721L7.26622 26.1971C6.82716 26.0612 6.5506 25.6268 6.61466 25.1705L7.19591 21.0627C7.25841 20.6205 7.62403 20.2846 8.06935 20.258L13.4381 19.9393C13.674 19.4659 13.9412 19.0049 14.2397 18.5643L11.7397 13.8393C11.5256 13.4315 11.6381 12.9284 12.0053 12.6518L15.3209 10.158C15.6787 9.88929 16.174 9.9096 16.5068 10.2065L20.5287 13.7768C21.0318 13.608 21.5475 13.4721 22.0678 13.3705L23.6428 8.26273C23.7787 7.8221 24.2147 7.54554 24.6693 7.61116L28.7772 8.19242C29.2193 8.25492 29.5553 8.61898 29.5818 9.06429L29.9006 14.433C30.3756 14.669 30.835 14.9377 31.2756 15.2346L36.0006 12.7362C36.4084 12.5205 36.9115 12.633 37.1881 13.0018L39.6818 16.3174C39.9506 16.6737 39.9303 17.169 39.6334 17.5034L36.0631 21.5237C36.2318 22.0284 36.3678 22.5424 36.4693 23.0627L41.5772 24.6377C42.0178 24.7737 42.2943 25.2096 42.2287 25.6659L41.6475 29.7737C41.585 30.2143 41.2209 30.5518 40.7756 30.5784L35.4068 30.8955C35.1709 31.3705 34.9022 31.8299 34.6053 32.2705L37.1037 36.9971C37.3193 37.4049 37.2068 37.908 36.8381 38.1846L33.5225 40.6784C33.1662 40.9455 32.6709 40.9252 32.3365 40.6299L28.3162 37.058C27.8131 37.2268 27.2975 37.3627 26.7772 37.4659L25.2022 42.5721C25.0787 42.9705 24.7131 43.2346 24.3068 43.2346ZM21.0881 40.894L23.6459 41.2565L25.1553 36.3612C25.2615 36.0159 25.5584 35.7612 25.9162 35.7096C26.6912 35.5987 27.4522 35.3971 28.1818 35.1143C28.5084 34.9862 28.8803 35.0534 29.1443 35.2862L33.0084 38.719L35.0725 37.1659L32.6787 32.6362C32.51 32.3159 32.5397 31.9268 32.7568 31.6377C33.2256 31.0096 33.624 30.3284 33.9381 29.6143C34.0803 29.294 34.3897 29.0784 34.7397 29.058L39.899 28.7518L40.2615 26.194L35.3662 24.6846C35.0209 24.5784 34.7662 24.2815 34.7147 23.9237C34.6022 23.1502 34.4022 22.3877 34.1178 21.658C33.9912 21.3299 34.0568 20.958 34.2912 20.6955L37.7225 16.8315L36.1709 14.7674L31.6412 17.1612C31.3209 17.3315 30.9318 17.3002 30.6412 17.083C30.0147 16.6143 29.3334 16.2174 28.6193 15.9018C28.2975 15.7596 28.0818 15.4502 28.0615 15.1002L27.7553 9.94085L25.199 9.57835L23.6897 14.4737C23.5818 14.8205 23.2865 15.0737 22.9272 15.1252C22.1537 15.2377 21.3928 15.4377 20.6631 15.7221C20.335 15.8487 19.9631 15.783 19.7006 15.5487L15.835 12.1174L13.7709 13.669L16.1662 18.1987C16.335 18.519 16.3053 18.908 16.0881 19.1987C15.6178 19.8268 15.2209 20.5065 14.9068 21.2205C14.7647 21.5424 14.4553 21.758 14.1037 21.7784L8.94435 22.0846L8.58341 24.6409L13.4772 26.1502C13.824 26.258 14.0772 26.5534 14.1303 26.9127C14.2412 27.6862 14.4428 28.4471 14.7256 29.1768C14.8537 29.5049 14.7865 29.8768 14.5537 30.1393L11.1209 34.0049L12.674 36.069L17.2022 33.6737C17.5225 33.5049 17.9131 33.5346 18.2022 33.7518C18.8303 34.2221 19.51 34.619 20.224 34.933C20.5459 35.0752 20.7615 35.3846 20.7818 35.7362L21.0881 40.894Z" fill="#1E8A8A"/>
<path fill-rule="evenodd" clip-rule="evenodd" d="M24.4235 32.7516C24.4219 32.7516 24.4063 32.7516 24.4063 32.7516C20.361 32.7406 17.0766 29.4422 17.086 25.3969C17.0969 21.3609 20.3875 18.0781 24.4235 18.0781H24.4406C28.486 18.0875 31.7688 21.3859 31.7594 25.4313C31.75 29.4672 28.4594 32.7516 24.4235 32.7516ZM24.436 19.9531C21.4188 19.9531 18.9688 22.3969 18.961 25.4016C18.9547 28.4125 21.3985 30.8687 24.411 30.8766L24.4235 31.8141V30.8766C27.4281 30.8766 29.8781 28.4312 29.8844 25.4281C29.8922 22.4156 27.4469 19.9609 24.436 19.9531Z" fill="#1E8A8A"/>
<path fill-rule="evenodd" clip-rule="evenodd" d="M59.2764 37.5268C59.2326 37.5268 59.1889 37.5237 59.1436 37.5174L55.9576 37.0674C55.5154 37.0049 55.1795 36.6393 55.1529 36.194L54.9139 32.1502C54.6139 31.9955 54.3201 31.8252 54.0373 31.6409L50.4826 33.5205C50.0764 33.7346 49.5717 33.6237 49.2951 33.2549L47.3608 30.683C47.0936 30.3268 47.1139 29.8299 47.4092 29.4971L50.0983 26.4674C49.9951 26.1471 49.9092 25.819 49.8404 25.4877L45.9983 24.3034C45.5576 24.1674 45.2811 23.7315 45.3451 23.2768L45.7967 20.0893C45.8592 19.6487 46.2233 19.3127 46.6686 19.2862L50.7123 19.0455C50.867 18.7455 51.0373 18.4534 51.2233 18.1705L49.3436 14.6143C49.1279 14.208 49.2404 13.7049 49.6092 13.4268L52.1811 11.494C52.5373 11.2252 53.0326 11.2455 53.367 11.5424L56.3951 14.2315C56.717 14.1284 57.0451 14.0409 57.3748 13.9721L58.5608 10.1299C58.6951 9.68929 59.1295 9.41273 59.5873 9.47835L62.7733 9.92835C63.2154 9.99085 63.5514 10.3565 63.5779 10.8018L63.817 14.844C64.1186 14.9987 64.4108 15.169 64.6936 15.3549L68.2483 13.4752C68.6561 13.2612 69.1592 13.3721 69.4358 13.7409L71.3701 16.3127C71.6389 16.669 71.6186 17.1643 71.3217 17.4987L68.6326 20.5268C68.7358 20.8487 68.8217 21.1752 68.892 21.5065L72.7342 22.6909C73.1733 22.8268 73.4498 23.2627 73.3858 23.719L72.9342 26.9049C72.8717 27.3471 72.5076 27.683 72.0623 27.7096L68.0186 27.9487C67.8639 28.2487 67.6936 28.5424 67.5092 28.8252L69.3873 32.3799C69.6029 32.7877 69.4904 33.2909 69.1233 33.5674L66.5514 35.5018C66.1951 35.769 65.6982 35.7502 65.3639 35.4534L62.3358 32.7643C62.0139 32.8674 61.6873 32.9534 61.3561 33.0237L60.1717 36.8659C60.0483 37.2627 59.6811 37.5268 59.2764 37.5268ZM56.9795 35.3174L58.6154 35.5487L59.7326 31.9237C59.8389 31.5784 60.1358 31.3237 60.4936 31.2721C61.0795 31.1877 61.6545 31.0362 62.2045 30.8221C62.5326 30.694 62.9045 30.7612 63.167 30.9955L66.0358 33.5424L67.3561 32.5502L65.5826 29.1955C65.4139 28.8752 65.4436 28.4862 65.6608 28.1955C66.0154 27.7221 66.3154 27.208 66.5529 26.669C66.6951 26.3471 67.0045 26.1315 67.3561 26.1112L71.1858 25.8846L71.417 24.2487L67.792 23.1299C67.4451 23.0237 67.192 22.7268 67.1404 22.369C67.0561 21.7846 66.9045 21.208 66.6904 20.658C66.5623 20.3299 66.6295 19.9596 66.8623 19.6955L69.4108 16.8268L68.417 15.5065L65.0623 17.2799C64.7436 17.4502 64.3529 17.419 64.0639 17.2018C63.5889 16.8471 63.0748 16.5471 62.5358 16.3096C62.2139 16.1674 61.9998 15.858 61.9779 15.508L61.7514 11.6784L60.1154 11.4471L58.9983 15.0721C58.892 15.4174 58.5951 15.6721 58.2373 15.7237C57.6529 15.808 57.0764 15.9596 56.5264 16.1737C56.1983 16.3002 55.8264 16.2346 55.5639 16.0002L52.6951 13.4534L51.3748 14.4455L53.1483 17.8002C53.317 18.1205 53.2873 18.5096 53.0701 18.8002C52.7154 19.2752 52.4154 19.7877 52.1779 20.3268C52.0358 20.6487 51.7264 20.8643 51.3748 20.8846L47.5467 21.1127L47.3139 22.7471L50.9389 23.8659C51.2858 23.9721 51.5389 24.269 51.5904 24.6268C51.6764 25.2112 51.8279 25.7877 52.042 26.3377C52.1686 26.6659 52.1029 27.0362 51.8686 27.3002L49.3217 30.169L50.3139 31.4893L53.6686 29.7159C53.9889 29.5471 54.3779 29.5768 54.667 29.794C55.142 30.1487 55.6561 30.4487 56.1951 30.6862C56.517 30.8284 56.7326 31.1377 56.7529 31.4877L56.9795 35.3174Z" fill="#1E8A8A"/>
<path fill-rule="evenodd" clip-rule="evenodd" d="M59.3649 29.3953C59.3649 29.3953 59.3524 29.3953 59.3508 29.3953C56.0977 29.3875 53.457 26.7344 53.4649 23.4797C53.4727 20.2344 56.1195 17.5938 59.3649 17.5938C60.9555 17.5969 62.4352 18.2141 63.5477 19.3313C64.6586 20.4484 65.2695 21.9328 65.2664 23.5078C65.2586 26.7547 62.6117 29.3953 59.3649 29.3953ZM59.3742 19.4688C57.1508 19.4688 55.3445 21.2703 55.3399 23.4844C55.3336 25.7047 57.1352 27.5156 59.3555 27.5203L59.3649 28.4578V27.5203C61.5789 27.5203 63.3852 25.7188 63.3914 23.5047C63.393 22.4281 62.9774 21.4172 62.218 20.6547C61.4602 19.8922 60.4492 19.4719 59.3742 19.4688Z" fill="#1E8A8A"/>
<path fill-rule="evenodd" clip-rule="evenodd" d="M68.3559 59.5039C66.2514 59.5039 64.5391 57.79 64.5391 55.6856C64.5391 53.5811 66.2514 51.8672 68.3559 51.8672C70.4619 51.8672 72.1742 53.5811 72.1742 55.6856C72.1742 57.79 70.4619 59.5039 68.3559 59.5039ZM68.3559 53.742C67.2857 53.742 66.4139 54.6138 66.4139 55.6856C66.4139 56.7573 67.2857 57.6291 68.3559 57.6291C69.4276 57.6291 70.2994 56.7573 70.2994 55.6856C70.2994 54.6138 69.4276 53.742 68.3559 53.742Z" fill="#1E8A8A"/>
</svg>
