<svg width="30" height="30" viewBox="0 0 30 30" fill="none" xmlns="http://www.w3.org/2000/svg">
<path d="M27.8143 8.51719C27.8143 8.50723 27.8137 8.49785 27.8131 8.48848C27.8131 8.48437 27.8131 8.48086 27.8125 8.47676C27.8072 8.42226 27.7908 8.3707 27.7662 8.32441C27.7604 8.31328 27.7533 8.30215 27.7463 8.2916C27.7463 8.2916 27.7457 8.29043 27.7451 8.28984C27.7375 8.27871 27.7299 8.26816 27.7217 8.2582C27.7129 8.24766 27.7035 8.23711 27.6936 8.22773L23.8504 4.38457C23.841 4.37519 23.8305 4.36582 23.8205 4.35703C23.8187 4.35586 23.817 4.3541 23.8152 4.35293C23.8064 4.3459 23.7977 4.33945 23.7883 4.33301C23.7865 4.33184 23.7842 4.33066 23.7818 4.32949C23.7725 4.32363 23.7631 4.31777 23.7537 4.3125C23.752 4.31191 23.7508 4.31133 23.749 4.31016C23.7385 4.30488 23.7285 4.29961 23.7174 4.29551C23.7162 4.29551 23.715 4.29492 23.7145 4.29434C23.7033 4.28965 23.6916 4.28555 23.6799 4.28203C23.6787 4.28203 23.677 4.28144 23.6758 4.28086C23.6646 4.27734 23.6529 4.27441 23.6412 4.27207C23.6377 4.27148 23.6348 4.2709 23.6313 4.27031C23.6213 4.26855 23.6113 4.2668 23.6014 4.26562C23.5879 4.26445 23.5744 4.26328 23.5604 4.26328H13.9797L14.3119 3.51152C14.3805 3.35684 14.3465 3.17578 14.227 3.05566L13.1107 1.93945C12.9912 1.81992 12.8102 1.78594 12.6549 1.85449L11.3898 2.41348C11.1303 2.28105 10.8602 2.16914 10.5824 2.07949L10.0832 0.789258C10.0223 0.631055 9.86992 0.527344 9.70059 0.527344H8.12207C7.95273 0.527344 7.80098 0.631641 7.73945 0.789258L7.24023 2.07949C6.9625 2.16914 6.6918 2.28105 6.43281 2.41348L5.16777 1.85449C5.01309 1.78594 4.83203 1.81992 4.71191 1.93945L3.5957 3.05566C3.47617 3.17519 3.44219 3.35625 3.51074 3.51152L4.06973 4.77598C3.93672 5.03555 3.82539 5.30566 3.73574 5.5834L2.44551 6.08262C2.2873 6.14355 2.18359 6.2959 2.18359 6.46523V8.04375C2.18359 8.21308 2.28789 8.36484 2.44551 8.42637L3.73574 8.92558C3.82539 9.20391 3.9373 9.47402 4.06973 9.73301L3.51074 10.998C3.44219 11.1527 3.47617 11.3338 3.5957 11.4539L4.71191 12.5701C4.83145 12.6896 5.0125 12.7236 5.16777 12.6551L6.43281 12.0961C6.69238 12.2291 6.9625 12.3404 7.24023 12.4301L7.50859 13.1238V29.0625C7.50859 29.2893 7.69199 29.4727 7.91875 29.4727H27.4029C27.6297 29.4727 27.8131 29.2893 27.8131 29.0625V8.51777L27.8143 8.51719ZM23.9705 5.66367L26.4139 8.10703H23.9705V5.66367ZM6.65137 11.2816C6.53887 11.2184 6.40293 11.2119 6.28457 11.2641L5.09395 11.7902L4.37559 11.0719L4.90176 9.88066C4.95391 9.7623 4.94746 9.62637 4.88418 9.51387C4.70605 9.19687 4.56543 8.85703 4.46641 8.5043C4.43125 8.38008 4.33984 8.2793 4.21973 8.23242L3.00508 7.76191V6.7459L4.21973 6.27598C4.34043 6.2291 4.43184 6.12832 4.46641 6.0041C4.56484 5.65195 4.70547 5.31211 4.88418 4.99394C4.94746 4.88144 4.95391 4.74551 4.90176 4.62715L4.37559 3.43652L5.09395 2.71816L6.28457 3.24434C6.40293 3.29648 6.53887 3.29004 6.65137 3.22676C6.96895 3.04805 7.30879 2.90742 7.66152 2.80898C7.78574 2.77441 7.88652 2.68242 7.9334 2.5623L8.40332 1.34766H9.41934L9.88926 2.5623C9.93613 2.68301 10.0369 2.77441 10.1611 2.80898C10.5133 2.90742 10.8531 3.04805 11.1713 3.22676C11.2838 3.29004 11.4197 3.29648 11.5381 3.24434L12.7287 2.71816L13.4471 3.43652L12.9725 4.51055C12.9725 4.51055 12.9713 4.51348 12.9701 4.51523L12.9203 4.62773C12.8682 4.74609 12.8746 4.88144 12.9379 4.99453C13.116 5.31211 13.2566 5.65195 13.3557 6.00469C13.3908 6.12891 13.4822 6.22969 13.6023 6.27656L14.8176 6.74648V7.7625L13.6029 8.23242C13.4822 8.2793 13.3908 8.38008 13.3563 8.5043C13.2578 8.85586 13.1172 9.1957 12.9385 9.51445C12.8752 9.62695 12.8687 9.76289 12.9209 9.88125L13.4471 11.0725L12.7287 11.7908L11.5375 11.2646C11.4191 11.2125 11.2832 11.2189 11.1707 11.2822C10.8531 11.4604 10.5139 11.601 10.1611 11.7C10.0369 11.7346 9.93613 11.8266 9.88926 11.9467L9.41875 13.1619H8.40273L7.93281 11.9473C7.88594 11.8266 7.78516 11.7352 7.66094 11.7006C7.30879 11.6021 6.96895 11.4615 6.65078 11.2828L6.65137 11.2816ZM8.32949 28.6518V13.9816H9.70059C9.86992 13.9816 10.0217 13.8773 10.0832 13.7197L10.5824 12.4295C10.8602 12.3398 11.1309 12.2279 11.3898 12.0955L12.6549 12.6545C12.8096 12.723 12.9906 12.6891 13.1107 12.5695L14.227 11.4533C14.3465 11.3338 14.3805 11.1527 14.3119 10.9975L13.7529 9.73242C13.8859 9.47285 13.9979 9.20273 14.0869 8.925L15.3771 8.42578C15.5354 8.36484 15.6391 8.2125 15.6391 8.04316V6.46465C15.6391 6.29531 15.5348 6.14355 15.3771 6.08203L14.0869 5.58281C14.0324 5.41289 13.968 5.24648 13.8971 5.08301H23.1502V8.5166C23.1502 8.74336 23.3336 8.92676 23.5604 8.92676H26.9939V28.6512H8.32949V28.6518ZM11.1127 9.45527C12.3262 8.2418 12.3262 6.2666 11.1127 5.05312C10.525 4.46543 9.74277 4.14141 8.91133 4.14141C8.07988 4.14141 7.29824 4.46543 6.71055 5.05312C6.12285 5.64082 5.79883 6.42246 5.79883 7.25391C5.79883 8.08535 6.12285 8.86699 6.71055 9.45469C7.31758 10.0617 8.11445 10.3652 8.91133 10.3652C9.7082 10.3652 10.5057 10.0617 11.1127 9.45469V9.45527ZM6.61914 7.25449C6.61914 6.64219 6.85762 6.06621 7.29063 5.6332C7.72363 5.20019 8.29902 4.96172 8.91191 4.96172C9.5248 4.96172 10.1002 5.20019 10.5332 5.6332C11.4268 6.52676 11.4268 7.98164 10.5332 8.87519C9.63965 9.76875 8.18477 9.76875 7.29121 8.87519C6.8582 8.44219 6.61973 7.8668 6.61973 7.25391L6.61914 7.25449ZM12.8857 15.184H10.2977C10.0709 15.184 9.8875 15.3674 9.8875 15.5941V18.1822C9.8875 18.409 10.0709 18.5924 10.2977 18.5924H12.8857C13.1125 18.5924 13.2959 18.409 13.2959 18.1822V15.5941C13.2959 15.3674 13.1125 15.184 12.8857 15.184ZM12.4756 17.7721H10.7078V16.0043H12.4756V17.7721ZM12.8857 19.4977H10.2977C10.0709 19.4977 9.8875 19.6811 9.8875 19.9078V22.4959C9.8875 22.7227 10.0709 22.9061 10.2977 22.9061H12.8857C13.1125 22.9061 13.2959 22.7227 13.2959 22.4959V19.9078C13.2959 19.6811 13.1125 19.4977 12.8857 19.4977ZM12.4756 22.0857H10.7078V20.318H12.4756V22.0857ZM12.8857 23.8113H10.2977C10.0709 23.8113 9.8875 23.9947 9.8875 24.2215V26.8096C9.8875 27.0363 10.0709 27.2197 10.2977 27.2197H12.8857C13.1125 27.2197 13.2959 27.0363 13.2959 26.8096V24.2215C13.2959 23.9947 13.1125 23.8113 12.8857 23.8113ZM12.4756 26.3994H10.7078V24.6316H12.4756V26.3994ZM18.2928 15.5561C18.4527 15.716 18.4527 15.9762 18.2928 16.1361L16.208 18.2209C16.1313 18.2977 16.027 18.341 15.918 18.341C15.809 18.341 15.7047 18.2977 15.6279 18.2209L14.5088 17.1012C14.3488 16.9412 14.3488 16.6811 14.5088 16.5211C14.6688 16.3611 14.9289 16.3611 15.0889 16.5211L15.9186 17.3508L17.7133 15.5561C17.8732 15.3961 18.1334 15.3961 18.2934 15.5561H18.2928ZM18.2928 19.8697C18.4527 20.0297 18.4527 20.2898 18.2928 20.4498L16.208 22.5346C16.1313 22.6113 16.027 22.6547 15.918 22.6547C15.809 22.6547 15.7047 22.6113 15.6279 22.5346L14.5088 21.4148C14.3488 21.2549 14.3488 20.9947 14.5088 20.8348C14.6688 20.6748 14.9289 20.6748 15.0889 20.8348L15.9186 21.6644L17.7133 19.8697C17.8732 19.7098 18.1334 19.7098 18.2934 19.8697H18.2928ZM18.2928 24.1834C18.4527 24.3434 18.4527 24.6035 18.2928 24.7635L16.208 26.8482C16.1277 26.9285 16.0229 26.9684 15.918 26.9684C15.8131 26.9684 15.7082 26.9285 15.6279 26.8482L14.5088 25.7291C14.3488 25.5691 14.3488 25.309 14.5088 25.149C14.6688 24.9891 14.9289 24.9891 15.0889 25.149L15.9186 25.9787L17.7133 24.184C17.8732 24.024 18.1334 24.024 18.2934 24.184L18.2928 24.1834ZM25.4354 16.8885C25.4354 17.1152 25.252 17.2986 25.0252 17.2986H20.8346C20.6078 17.2986 20.4244 17.1152 20.4244 16.8885C20.4244 16.6617 20.6078 16.4783 20.8346 16.4783H25.0252C25.252 16.4783 25.4354 16.6617 25.4354 16.8885ZM25.4354 21.2021C25.4354 21.4289 25.252 21.6123 25.0252 21.6123H20.8346C20.6078 21.6123 20.4244 21.4289 20.4244 21.2021C20.4244 20.9754 20.6078 20.792 20.8346 20.792H25.0252C25.252 20.792 25.4354 20.9754 25.4354 21.2021ZM25.4354 25.5158C25.4354 25.7426 25.252 25.926 25.0252 25.926H20.8346C20.6078 25.926 20.4244 25.7426 20.4244 25.5158C20.4244 25.2891 20.6078 25.1057 20.8346 25.1057H25.0252C25.252 25.1057 25.4354 25.2891 25.4354 25.5158Z" fill="white"/>
</svg>
