<svg width="30" height="30" viewBox="0 0 30 30" fill="none" xmlns="http://www.w3.org/2000/svg">
<g clip-path="url(#clip0_17484_9806)">
<path d="M11.7185 0.585789C11.7185 0.909346 11.4562 1.17158 11.1327 1.17158C10.8091 1.17158 10.5469 0.909346 10.5469 0.585789C10.5469 0.262232 10.8091 0 11.1327 0C11.4562 0 11.7185 0.262232 11.7185 0.585789Z" fill="#0F282C"/>
<path d="M11.1621 22.2937C13.3236 22.2937 15.4005 21.6798 17.2009 20.5146L26.5136 29.8271C26.7423 30.0557 27.1133 30.056 27.3422 29.8271L29.8283 27.341C30.0572 27.1121 30.0572 26.7413 29.8283 26.5124L20.5158 17.1997C21.681 15.3996 22.2949 13.3225 22.2949 11.1609C22.2949 10.1792 22.1672 9.20785 21.9154 8.26806L24.0353 6.14816C24.3841 6.35461 24.7906 6.4734 25.2246 6.4734C26.5168 6.4734 27.5683 5.42215 27.5683 4.12965C27.5683 2.83739 26.5168 1.78591 25.2246 1.78591C23.9323 1.78591 22.8808 2.83739 22.8808 4.12965C22.8808 4.56384 22.9998 4.97056 23.2065 5.31961L21.5009 7.02523C20.1857 3.73575 17.3456 1.21416 13.894 0.338461C13.5802 0.258811 13.2616 0.448782 13.182 0.76235C13.1025 1.07615 13.2923 1.39498 13.6059 1.4744C16.8592 2.29975 19.5062 4.75954 20.5902 7.93595L17.6255 10.9007C17.2764 10.6942 16.8697 10.575 16.4355 10.575C16.01 10.575 15.6019 10.688 15.2449 10.8995L13.1804 8.835C13.3868 8.48596 13.5058 8.07946 13.5058 7.64527C13.5058 6.35301 12.4544 5.30153 11.1621 5.30153C9.86983 5.30153 8.81835 6.35301 8.81835 7.64527C8.81835 8.07946 8.93736 8.48618 9.14404 8.83523L7.07862 10.9007C6.72957 10.6942 6.32285 10.575 5.88866 10.575C4.5964 10.575 3.54492 11.6264 3.54492 12.9187C3.54492 14.2112 4.5964 15.2624 5.88866 15.2624C7.18093 15.2624 8.23241 14.2112 8.23241 12.9187C8.23241 12.485 8.11339 12.0785 7.90717 11.7297L9.97282 9.66378C10.3219 9.87023 10.7281 9.98902 11.1621 9.98902C11.5961 9.98902 12.0028 9.87 12.3516 9.66355L14.4161 11.7281C14.2048 12.0851 14.0918 12.4932 14.0918 12.9187C14.0918 14.2112 15.1433 15.2624 16.4355 15.2624C17.7278 15.2624 18.7793 14.2112 18.7793 12.9187C18.7793 12.485 18.6602 12.0785 18.454 11.7297L20.9388 9.2447C21.061 9.87321 21.123 10.5145 21.123 11.1609C21.123 16.6621 16.6651 21.1218 11.1621 21.1218C5.65337 21.1218 1.17187 16.6534 1.17187 11.1609C1.17187 6.60844 4.25285 2.63071 8.66431 1.4879C8.97765 1.40665 9.16579 1.0869 9.08453 0.773565C9.00328 0.460455 8.68353 0.272086 8.37043 0.353339C3.609 1.58678 0 5.93164 0 11.1609C0 17.2995 5.00724 22.2937 11.1621 22.2937ZM25.2246 2.95778C25.8707 2.95778 26.3964 3.48352 26.3964 4.12965C26.3964 4.77579 25.8707 5.30153 25.2246 5.30153C24.5784 5.30153 24.0527 4.77579 24.0527 4.12965C24.0527 3.48352 24.5784 2.95778 25.2246 2.95778ZM5.88866 14.0906C5.24253 14.0906 4.71679 13.5648 4.71679 12.9187C4.71679 12.2726 5.24253 11.7468 5.88866 11.7468C6.5348 11.7468 7.06054 12.2726 7.06054 12.9187C7.06054 13.5648 6.5348 14.0906 5.88866 14.0906ZM9.99022 7.64527C9.99022 6.99914 10.516 6.4734 11.1621 6.4734C11.8082 6.4734 12.334 6.99914 12.334 7.64527C12.334 8.29141 11.8082 8.81715 11.1621 8.81715C10.516 8.81715 9.99022 8.29141 9.99022 7.64527ZM16.4355 14.0906C15.7894 14.0906 15.2636 13.5648 15.2636 12.9187C15.2636 12.2717 15.7882 11.7468 16.4355 11.7468C17.0817 11.7468 17.6074 12.2726 17.6074 12.9187C17.6074 13.5648 17.0817 14.0906 16.4355 14.0906ZM26.9279 28.5843L20.416 22.0721L22.0733 20.4148L28.5852 26.9267L26.9279 28.5843ZM19.8193 18.1605L21.2448 19.586L19.5872 21.2436L18.1617 19.8181C18.7715 19.3249 19.3258 18.7703 19.8193 18.1605Z" fill="#0F282C"/>
</g>
<defs>
<clipPath id="clip0_17484_9806">
<rect width="30" height="30" fill="white"/>
</clipPath>
</defs>
</svg>
