<svg width="120" height="120" viewBox="0 0 120 120" fill="none" xmlns="http://www.w3.org/2000/svg">
<path d="M116.362 100.911H111.998V34.9112C111.998 32.0021 109.635 29.6385 106.726 29.6385H90.18V18.1839H102.18C103.271 18.1839 103.998 17.4567 103.998 16.3658V14.0021C106.544 13.2749 108.362 10.9112 108.362 8.00213C108.362 4.54759 105.635 1.82031 102.18 1.82031C98.7255 1.82031 95.9982 4.54759 95.9982 8.00213C95.9982 10.7294 97.8164 13.093 100.362 14.0021V14.5476H88.3619C87.271 14.5476 86.5437 15.2749 86.5437 16.3658V29.6385H75.271V14.0021C77.8164 13.2749 79.6346 10.9112 79.6346 8.00213C79.6346 4.54759 76.9073 1.82031 73.4528 1.82031C69.9982 1.82031 67.271 4.54759 67.271 8.00213C67.271 10.7294 69.0891 13.093 71.6346 14.0021V29.6385H45.6346V14.0021C48.18 13.2749 49.9982 10.9112 49.9982 8.00213C50.18 4.54759 47.271 1.82031 43.8164 1.82031C40.3619 1.82031 37.6346 4.54759 37.6346 8.00213C37.6346 10.7294 39.4528 13.093 41.9982 14.0021V29.6385H33.4528V16.3658C33.4528 15.2749 32.7255 14.5476 31.6346 14.5476H19.6346V14.0021C22.18 13.2749 23.9982 10.9112 23.9982 8.00213C23.9982 4.54759 21.271 1.82031 17.8164 1.82031C14.3619 1.82031 11.6346 4.54759 11.6346 8.00213C11.6346 10.7294 13.4528 13.093 15.9982 14.0021V16.3658C15.9982 17.4567 16.7255 18.1839 17.8164 18.1839H29.8164V29.6385H13.271C10.3619 29.6385 7.99822 32.0021 7.99822 34.9112V100.911H3.63459C2.54368 100.911 1.81641 101.638 1.81641 102.729C1.81641 111.275 8.54368 118.184 16.7255 118.184H103.271C111.453 118.184 118.18 111.275 118.18 102.729C118.18 101.82 117.453 100.911 116.362 100.911ZM99.6346 8.00213C99.6346 6.54759 100.726 5.45668 102.18 5.45668C103.635 5.45668 104.725 6.54759 104.725 8.00213C104.725 9.45668 103.635 10.5476 102.18 10.5476C100.726 10.5476 99.6346 9.45668 99.6346 8.00213ZM70.9073 8.00213C70.9073 6.54759 71.9982 5.45668 73.4528 5.45668C74.9073 5.45668 75.9982 6.54759 75.9982 8.00213C75.9982 9.45668 74.9073 10.5476 73.4528 10.5476C71.9982 10.5476 70.9073 9.45668 70.9073 8.00213ZM41.271 8.00213C41.271 6.54759 42.3619 5.45668 43.8164 5.45668C45.271 5.45668 46.3619 6.54759 46.3619 8.00213C46.3619 9.45668 45.271 10.5476 43.8164 10.5476C42.5437 10.5476 41.271 9.45668 41.271 8.00213ZM15.271 8.00213C15.271 6.54759 16.3619 5.45668 17.8164 5.45668C19.271 5.45668 20.3619 6.54759 20.3619 8.00213C20.3619 9.45668 19.271 10.5476 17.8164 10.5476C16.3619 10.5476 15.271 9.45668 15.271 8.00213ZM11.6346 34.9112C11.6346 34.0021 12.3619 33.2749 13.271 33.2749H106.544C107.453 33.2749 108.18 34.0021 108.18 34.9112V100.911H11.6346V34.9112ZM103.271 114.548H16.7255C11.0891 114.548 6.54368 110.184 5.63459 104.548H114.362C113.635 110.184 108.907 114.548 103.271 114.548Z" fill="#1E8A8A"/>
<path d="M34.9087 59.8203H26.1815C25.0906 59.8203 24.3633 60.5476 24.3633 61.6385V86.184C24.3633 87.2749 25.0906 88.0021 26.1815 88.0021H34.9087C35.9996 88.0021 36.7269 87.2749 36.7269 86.184V61.6385C36.7269 60.7294 35.8178 59.8203 34.9087 59.8203ZM33.0906 84.3658H27.9996V63.4567H33.0906V84.3658Z" fill="#1E8A8A"/>
<path d="M54.5455 46.1836H45.8182C44.7273 46.1836 44 46.9109 44 48.0018V86.1836C44 87.2745 44.7273 88.0018 45.8182 88.0018H54.5455C55.6364 88.0018 56.3636 87.2745 56.3636 86.1836V48.0018C56.3636 47.0927 55.6364 46.1836 54.5455 46.1836ZM52.7273 84.3654H47.6364V49.82H52.7273V84.3654Z" fill="#1E8A8A"/>
<path d="M74.1783 72.1836H65.451C64.3601 72.1836 63.6328 72.9109 63.6328 74.0018V86.1836C63.6328 87.2745 64.3601 88.0018 65.451 88.0018H74.1783C75.2692 88.0018 75.9964 87.2745 75.9964 86.1836V74.0018C75.9964 72.9109 75.2692 72.1836 74.1783 72.1836ZM72.3601 84.3654H67.2692V75.82H72.3601V84.3654Z" fill="#1E8A8A"/>
<path d="M93.9986 53.2734H85.2713C84.1804 53.2734 83.4531 54.0007 83.4531 55.0916V86.1825C83.4531 87.2734 84.1804 88.0007 85.2713 88.0007H93.9986C95.0895 88.0007 95.8168 87.2734 95.8168 86.1825V55.0916C95.8168 54.1825 94.9077 53.2734 93.9986 53.2734ZM92.1804 84.3644H87.0895V56.9098H92.1804V84.3644Z" fill="#1E8A8A"/>
</svg>
