<svg width="115" height="110" viewBox="0 0 115 110" fill="none" xmlns="http://www.w3.org/2000/svg">
<path d="M106.641 0H8.20312C3.67969 0 0 3.67969 0 8.20312V71.4328C0 75.9563 3.67969 79.6359 8.20312 79.6359H44.9227C44.775 86.8453 43.1484 97.6031 34.7766 97.6031H30.0891C26.8688 97.6031 24.2484 100.223 24.2484 103.444V105.769C24.2484 107.707 25.8258 109.284 27.7641 109.284H87.0797C89.018 109.284 90.5953 107.707 90.5953 105.769V103.444C90.5953 100.223 87.975 97.6031 84.7547 97.6031H80.0672C71.6953 97.6031 70.0687 86.8477 69.9211 79.6359H106.641C111.164 79.6359 114.844 75.9563 114.844 71.4328V8.20312C114.844 3.67969 111.164 0 106.641 0ZM84.7547 99.9445C86.6836 99.9445 88.2516 101.512 88.2516 103.441V105.766C88.2516 106.413 87.7266 106.938 87.0797 106.938H27.7641C27.1172 106.938 26.5922 106.413 26.5922 105.766V103.441C26.5922 101.512 28.1602 99.9445 30.0891 99.9445H84.7547ZM70.732 94.2211C71.5148 95.5875 72.4406 96.7148 73.4953 97.6008H41.3484C42.4031 96.7148 43.3289 95.5875 44.1117 94.2211C46.0898 90.7641 47.1492 85.8609 47.2664 79.6359H67.575C67.6922 85.8609 68.7516 90.7641 70.732 94.2211ZM112.5 71.4328C112.5 74.6648 109.873 77.2922 106.641 77.2922H8.20312C4.97109 77.2922 2.34375 74.6648 2.34375 71.4328V8.20312C2.34375 4.97344 4.97109 2.34375 8.20312 2.34375H106.641C109.873 2.34375 112.5 4.97109 112.5 8.20312V71.4328ZM106.641 5.625H8.20312C6.78047 5.625 5.625 6.78047 5.625 8.20312V65.1023C5.625 66.525 6.78047 67.6805 8.20312 67.6805H106.641C108.063 67.6805 109.219 66.525 109.219 65.1023V8.20312C109.219 6.78047 108.063 5.625 106.641 5.625ZM106.875 65.1023C106.875 65.2219 106.76 65.3367 106.641 65.3367H8.20312C8.08359 65.3367 7.96875 65.2219 7.96875 65.1023V8.20312C7.96875 8.08359 8.08359 7.96875 8.20312 7.96875H106.641C106.76 7.96875 106.875 8.08359 106.875 8.20312V65.1023ZM30.7945 35.6906C33.1852 35.6906 35.1305 33.7453 35.1305 31.3547C35.1305 31.0711 35.1023 30.7969 35.0484 30.5273L45.3492 25.3523C46.1438 26.2219 47.2805 26.7703 48.5461 26.7703C50.1117 26.7703 51.4828 25.9312 52.2469 24.6844L61.9641 27.3961C61.9688 29.7844 63.9117 31.725 66.3 31.725C68.6906 31.725 70.6359 29.7797 70.6359 27.3891C70.6359 26.8969 70.5492 26.4258 70.3969 25.9852L81.2836 18.4687C82.0359 19.0945 82.9992 19.4695 84.0516 19.4695C86.4422 19.4695 88.3875 17.5242 88.3875 15.1336C88.3875 12.743 86.4422 10.7977 84.0516 10.7977C81.6609 10.7977 79.7156 12.743 79.7156 15.1336C79.7156 15.6258 79.8023 16.0969 79.9547 16.5375L69.068 24.0539C68.3156 23.4281 67.3523 23.0531 66.3 23.0531C64.7344 23.0531 63.3633 23.8922 62.5992 25.1391L52.882 22.4273C52.8773 20.0391 50.9344 18.0984 48.5461 18.0984C46.1555 18.0984 44.2102 20.0437 44.2102 22.4344C44.2102 22.718 44.2383 22.9922 44.2922 23.2617L33.9914 28.4367C33.1969 27.5672 32.0602 27.0187 30.7945 27.0187C28.4039 27.0187 26.4586 28.9641 26.4586 31.3547C26.4586 33.7453 28.4016 35.6906 30.7945 35.6906ZM84.0492 13.1437C85.1484 13.1437 86.0414 14.0367 86.0414 15.1359C86.0414 16.2352 85.1484 17.1281 84.0492 17.1281C82.95 17.1281 82.057 16.2352 82.057 15.1359C82.057 14.0367 82.9523 13.1437 84.0492 13.1437ZM66.2977 25.3992C67.3969 25.3992 68.2898 26.2922 68.2898 27.3914C68.2898 28.4906 67.3969 29.3836 66.2977 29.3836C65.1984 29.3836 64.3055 28.4906 64.3055 27.3914C64.3055 26.2922 65.2008 25.3992 66.2977 25.3992ZM48.5461 20.4422C49.6453 20.4422 50.5383 21.3352 50.5383 22.4344C50.5383 23.5336 49.6453 24.4266 48.5461 24.4266C47.4469 24.4266 46.5539 23.5336 46.5539 22.4344C46.5539 21.3352 47.4469 20.4422 48.5461 20.4422ZM30.7945 29.3625C31.8937 29.3625 32.7867 30.2555 32.7867 31.3547C32.7867 32.4539 31.8937 33.3469 30.7945 33.3469C29.6953 33.3469 28.8023 32.4539 28.8023 31.3547C28.8023 30.2555 29.6953 29.3625 30.7945 29.3625ZM52.118 31.0969H44.9766C43.425 31.0969 42.1641 32.3578 42.1641 33.9094V59.693C42.1641 61.2445 43.425 62.5055 44.9766 62.5055H52.118C53.6695 62.5055 54.9305 61.2445 54.9305 59.693V33.9094C54.9305 32.3602 53.6672 31.0969 52.118 31.0969ZM52.5867 59.693C52.5867 59.9508 52.3758 60.1617 52.118 60.1617H44.9766C44.7187 60.1617 44.5078 59.9508 44.5078 59.693V33.9094C44.5078 33.6516 44.7187 33.4406 44.9766 33.4406H52.118C52.3758 33.4406 52.5867 33.6516 52.5867 33.9094V59.693ZM87.6211 24.0656H80.4797C78.9281 24.0656 77.6672 25.3266 77.6672 26.8781V59.693C77.6672 61.2445 78.9281 62.5055 80.4797 62.5055H87.6211C89.1727 62.5055 90.4336 61.2445 90.4336 59.693V26.8781C90.4336 25.3266 89.1727 24.0656 87.6211 24.0656ZM88.0898 59.693C88.0898 59.9508 87.8789 60.1617 87.6211 60.1617H80.4797C80.2219 60.1617 80.0109 59.9508 80.0109 59.693V26.8781C80.0109 26.6203 80.2219 26.4094 80.4797 26.4094H87.6211C87.8789 26.4094 88.0898 26.6203 88.0898 26.8781V59.693ZM69.8695 35.7844H62.7281C61.1766 35.7844 59.9156 37.0453 59.9156 38.5969V59.693C59.9156 61.2445 61.1766 62.5055 62.7281 62.5055H69.8695C71.4211 62.5055 72.682 61.2445 72.682 59.693V38.5969C72.682 37.0477 71.4211 35.7844 69.8695 35.7844ZM70.3383 59.693C70.3383 59.9508 70.1273 60.1617 69.8695 60.1617H62.7281C62.4703 60.1617 62.2594 59.9508 62.2594 59.693V38.5969C62.2594 38.3391 62.4703 38.1281 62.7281 38.1281H69.8695C70.1273 38.1281 70.3383 38.3391 70.3383 38.5969V59.693ZM34.3641 40.4719H27.2227C25.6711 40.4719 24.4102 41.7328 24.4102 43.2844V59.693C24.4102 61.2445 25.6711 62.5055 27.2227 62.5055H34.3641C35.9156 62.5055 37.1766 61.2445 37.1766 59.693V43.2844C37.1766 41.7352 35.9156 40.4719 34.3641 40.4719ZM34.8328 59.693C34.8328 59.9508 34.6219 60.1617 34.3641 60.1617H27.2227C26.9648 60.1617 26.7539 59.9508 26.7539 59.693V43.2844C26.7539 43.0266 26.9648 42.8156 27.2227 42.8156H34.3641C34.6219 42.8156 34.8328 43.0266 34.8328 43.2844V59.693Z" fill="#1E8A8A"/>
</svg>
