<svg width="120" height="120" viewBox="0 0 120 120" fill="none" xmlns="http://www.w3.org/2000/svg">
<path d="M109.219 5.35938H10.7812C6.25781 5.35938 2.57812 9.03906 2.57812 13.5625V76.7922C2.57812 81.3156 6.25781 84.9953 10.7812 84.9953H47.5008C47.3531 92.2047 45.7266 102.962 37.3547 102.962H32.6672C29.4469 102.962 26.8266 105.583 26.8266 108.803V111.128C26.8266 113.066 28.4039 114.644 30.3422 114.644H89.6578C91.5961 114.644 93.1734 113.066 93.1734 111.128V108.803C93.1734 105.583 90.5531 102.962 87.3328 102.962H82.6453C74.2734 102.962 72.6469 92.207 72.4992 84.9953H109.219C113.742 84.9953 117.422 81.3156 117.422 76.7922V13.5625C117.422 9.03906 113.742 5.35938 109.219 5.35938ZM87.3328 105.304C89.2617 105.304 90.8297 106.872 90.8297 108.801V111.126C90.8297 111.773 90.3047 112.298 89.6578 112.298H30.3422C29.6953 112.298 29.1703 111.773 29.1703 111.126V108.801C29.1703 106.872 30.7383 105.304 32.6672 105.304H87.3328ZM73.3102 99.5805C74.093 100.947 75.0187 102.074 76.0734 102.96H43.9266C44.9813 102.074 45.907 100.947 46.6898 99.5805C48.668 96.1234 49.7273 91.2203 49.8445 84.9953H70.1531C70.2703 91.2203 71.3297 96.1234 73.3102 99.5805ZM115.078 76.7922C115.078 80.0242 112.451 82.6516 109.219 82.6516H10.7812C7.54922 82.6516 4.92188 80.0242 4.92188 76.7922V13.5625C4.92188 10.3328 7.54922 7.70312 10.7812 7.70312H109.219C112.451 7.70312 115.078 10.3305 115.078 13.5625V76.7922ZM109.219 10.9844H10.7812C9.35859 10.9844 8.20312 12.1398 8.20312 13.5625V70.4617C8.20312 71.8844 9.35859 73.0398 10.7812 73.0398H109.219C110.641 73.0398 111.797 71.8844 111.797 70.4617V13.5625C111.797 12.1398 110.641 10.9844 109.219 10.9844ZM109.453 70.4617C109.453 70.5813 109.338 70.6961 109.219 70.6961H10.7812C10.6617 70.6961 10.5469 70.5813 10.5469 70.4617V13.5625C10.5469 13.443 10.6617 13.3281 10.7812 13.3281H109.219C109.338 13.3281 109.453 13.443 109.453 13.5625V70.4617ZM33.3727 41.05C35.7633 41.05 37.7086 39.1047 37.7086 36.7141C37.7086 36.4305 37.6805 36.1562 37.6266 35.8867L47.9273 30.7117C48.7219 31.5812 49.8586 32.1297 51.1242 32.1297C52.6898 32.1297 54.0609 31.2906 54.825 30.0437L64.5422 32.7555C64.5469 35.1437 66.4898 37.0844 68.8781 37.0844C71.2688 37.0844 73.2141 35.1391 73.2141 32.7484C73.2141 32.2562 73.1273 31.7852 72.975 31.3445L83.8617 23.8281C84.6141 24.4539 85.5773 24.8289 86.6297 24.8289C89.0203 24.8289 90.9656 22.8836 90.9656 20.493C90.9656 18.1023 89.0203 16.157 86.6297 16.157C84.2391 16.157 82.2937 18.1023 82.2937 20.493C82.2937 20.9852 82.3805 21.4562 82.5328 21.8969L71.6461 29.4133C70.8938 28.7875 69.9305 28.4125 68.8781 28.4125C67.3125 28.4125 65.9414 29.2516 65.1773 30.4984L55.4602 27.7867C55.4555 25.3984 53.5125 23.4578 51.1242 23.4578C48.7336 23.4578 46.7883 25.4031 46.7883 27.7937C46.7883 28.0773 46.8164 28.3516 46.8703 28.6211L36.5695 33.7961C35.775 32.9266 34.6383 32.3781 33.3727 32.3781C30.982 32.3781 29.0367 34.3234 29.0367 36.7141C29.0367 39.1047 30.9797 41.05 33.3727 41.05ZM86.6273 18.5031C87.7266 18.5031 88.6195 19.3961 88.6195 20.4953C88.6195 21.5945 87.7266 22.4875 86.6273 22.4875C85.5281 22.4875 84.6352 21.5945 84.6352 20.4953C84.6352 19.3961 85.5305 18.5031 86.6273 18.5031ZM68.8758 30.7586C69.975 30.7586 70.868 31.6516 70.868 32.7508C70.868 33.85 69.975 34.743 68.8758 34.743C67.7766 34.743 66.8836 33.85 66.8836 32.7508C66.8836 31.6516 67.7789 30.7586 68.8758 30.7586ZM51.1242 25.8016C52.2234 25.8016 53.1164 26.6945 53.1164 27.7937C53.1164 28.893 52.2234 29.7859 51.1242 29.7859C50.025 29.7859 49.132 28.893 49.132 27.7937C49.132 26.6945 50.025 25.8016 51.1242 25.8016ZM33.3727 34.7219C34.4719 34.7219 35.3648 35.6148 35.3648 36.7141C35.3648 37.8133 34.4719 38.7062 33.3727 38.7062C32.2734 38.7062 31.3805 37.8133 31.3805 36.7141C31.3805 35.6148 32.2734 34.7219 33.3727 34.7219ZM54.6961 36.4562H47.5547C46.0031 36.4562 44.7422 37.7172 44.7422 39.2687V65.0523C44.7422 66.6039 46.0031 67.8648 47.5547 67.8648H54.6961C56.2477 67.8648 57.5086 66.6039 57.5086 65.0523V39.2687C57.5086 37.7195 56.2453 36.4562 54.6961 36.4562ZM55.1648 65.0523C55.1648 65.3102 54.9539 65.5211 54.6961 65.5211H47.5547C47.2969 65.5211 47.0859 65.3102 47.0859 65.0523V39.2687C47.0859 39.0109 47.2969 38.8 47.5547 38.8H54.6961C54.9539 38.8 55.1648 39.0109 55.1648 39.2687V65.0523ZM90.1992 29.425H83.0578C81.5062 29.425 80.2453 30.6859 80.2453 32.2375V65.0523C80.2453 66.6039 81.5062 67.8648 83.0578 67.8648H90.1992C91.7508 67.8648 93.0117 66.6039 93.0117 65.0523V32.2375C93.0117 30.6859 91.7508 29.425 90.1992 29.425ZM90.668 65.0523C90.668 65.3102 90.457 65.5211 90.1992 65.5211H83.0578C82.8 65.5211 82.5891 65.3102 82.5891 65.0523V32.2375C82.5891 31.9797 82.8 31.7687 83.0578 31.7687H90.1992C90.457 31.7687 90.668 31.9797 90.668 32.2375V65.0523ZM72.4477 41.1437H65.3063C63.7547 41.1437 62.4938 42.4047 62.4938 43.9562V65.0523C62.4938 66.6039 63.7547 67.8648 65.3063 67.8648H72.4477C73.9992 67.8648 75.2602 66.6039 75.2602 65.0523V43.9562C75.2602 42.407 73.9992 41.1437 72.4477 41.1437ZM72.9164 65.0523C72.9164 65.3102 72.7055 65.5211 72.4477 65.5211H65.3063C65.0484 65.5211 64.8375 65.3102 64.8375 65.0523V43.9562C64.8375 43.6984 65.0484 43.4875 65.3063 43.4875H72.4477C72.7055 43.4875 72.9164 43.6984 72.9164 43.9562V65.0523ZM36.9422 45.8312H29.8008C28.2492 45.8312 26.9883 47.0922 26.9883 48.6437V65.0523C26.9883 66.6039 28.2492 67.8648 29.8008 67.8648H36.9422C38.4937 67.8648 39.7547 66.6039 39.7547 65.0523V48.6437C39.7547 47.0945 38.4937 45.8312 36.9422 45.8312ZM37.4109 65.0523C37.4109 65.3102 37.2 65.5211 36.9422 65.5211H29.8008C29.543 65.5211 29.332 65.3102 29.332 65.0523V48.6437C29.332 48.3859 29.543 48.175 29.8008 48.175H36.9422C37.2 48.175 37.4109 48.3859 37.4109 48.6437V65.0523Z" fill="white"/>
</svg>
