<svg width="80" height="80" viewBox="0 0 80 80" fill="none" xmlns="http://www.w3.org/2000/svg">
<path d="M59.149 20.2463C58.9148 20.0135 58.598 19.8828 58.2677 19.8828C57.9375 19.8828 57.6207 20.0135 57.3865 20.2463L40.5365 36.5838C40.2978 36.8159 40.1611 37.1332 40.1564 37.4661C40.1517 37.799 40.2794 38.1201 40.5115 38.3588C40.7436 38.5975 41.0609 38.7342 41.3938 38.7389C41.7267 38.7436 42.0478 38.6159 42.2865 38.3838L59.124 22.0088C59.3602 21.7779 59.4953 21.463 59.5 21.1327C59.5047 20.8025 59.3785 20.4838 59.149 20.2463Z" fill="#1E8A8A"/>
<path d="M68.2984 32.9984H66.3359C66.0014 32.9997 65.675 32.8952 65.4034 32.6999C65.1318 32.5046 64.9288 32.2285 64.8234 31.9109C64.2491 30.2027 63.5036 28.5568 62.5984 26.9984L70.2984 19.3859C71.4197 18.2633 72.0496 16.7414 72.0496 15.1547C72.0496 13.568 71.4197 12.0461 70.2984 10.9234L68.3234 9.01094C67.2026 7.90147 65.688 7.28122 64.1109 7.28594C63.3269 7.28508 62.5505 7.44051 61.8273 7.74313C61.104 8.04575 60.4483 8.4895 59.8984 9.04844L52.1484 16.6984C50.7188 15.92 49.226 15.2635 47.6859 14.7359C47.3697 14.6301 47.0952 14.4266 46.902 14.1548C46.7089 13.883 46.6069 13.5569 46.6109 13.2234V11.2484C46.6076 10.1599 46.1729 9.11708 45.402 8.34854C44.6311 7.58 43.587 7.14843 42.4984 7.14844H35.4859C34.3974 7.14843 33.3533 7.58 32.5824 8.34854C31.8115 9.11708 31.3767 10.1599 31.3734 11.2484V13.2109C31.3747 13.5455 31.2702 13.8719 31.0749 14.1435C30.8796 14.4151 30.6034 14.6181 30.2859 14.7234C29.1018 15.1271 27.9452 15.6072 26.8234 16.1609C26.5256 16.306 26.1901 16.3551 25.8632 16.3013C25.5363 16.2476 25.2341 16.0937 24.9984 15.8609L23.6234 14.4734C22.8486 13.7055 21.8018 13.2747 20.7109 13.2747C19.62 13.2747 18.5733 13.7055 17.7984 14.4734L12.8734 19.3984C12.4902 19.7805 12.1861 20.2344 11.9787 20.7342C11.7712 21.234 11.6644 21.7698 11.6644 22.3109C11.6644 22.8521 11.7712 23.3879 11.9787 23.8877C12.1861 24.3875 12.4902 24.8414 12.8734 25.2234L14.2484 26.6109C14.486 26.8462 14.6438 27.1499 14.6999 27.4795C14.7559 27.8091 14.7073 28.1479 14.5609 28.4484C14.0038 29.5671 13.5276 30.7242 13.1359 31.9109C13.0266 32.2284 12.8209 32.5039 12.5475 32.6988C12.2741 32.8938 11.9467 32.9985 11.6109 32.9984H9.63594C8.54523 32.9984 7.4992 33.4317 6.72796 34.203C5.95672 34.9742 5.52344 36.0202 5.52344 37.1109V44.0734C5.52344 45.1641 5.95672 46.2102 6.72796 46.9814C7.4992 47.7527 8.54523 48.1859 9.63594 48.1859H11.5984C11.933 48.1847 12.2594 48.2892 12.531 48.4845C12.8026 48.6798 13.0056 48.9559 13.1109 49.2734C13.5146 50.4575 13.9947 51.6141 14.5484 52.7359C14.6948 53.0365 14.7434 53.3753 14.6874 53.7049C14.6313 54.0345 14.4735 54.3382 14.2359 54.5734L12.8609 55.9609C12.4675 56.3374 12.154 56.7894 11.9392 57.2898C11.7244 57.7903 11.6128 58.3289 11.6109 58.8734C11.6163 59.4174 11.7295 59.955 11.9441 60.4549C12.1587 60.9549 12.4703 61.4073 12.8609 61.7859L17.7859 66.7109C18.5608 67.4788 19.6075 67.9097 20.6984 67.9097C21.7893 67.9097 22.8361 67.4788 23.6109 66.7109L24.9984 65.3234C25.2313 65.0865 25.5321 64.9279 25.8591 64.8697C26.1861 64.8115 26.5231 64.8565 26.8234 64.9984C27.9431 65.5534 29.1 66.0295 30.2859 66.4234C30.6034 66.5328 30.8789 66.7385 31.0738 67.0118C31.2688 67.2852 31.3735 67.6127 31.3734 67.9484V69.9109C31.3734 71.0016 31.8067 72.0477 32.578 72.8189C33.3492 73.5901 34.3952 74.0234 35.4859 74.0234H42.4984C43.0395 74.0251 43.5757 73.9199 44.0761 73.714C44.5765 73.508 45.0313 73.2054 45.4145 72.8233C45.7977 72.4413 46.1017 71.9874 46.3092 71.4876C46.5166 70.9878 46.6234 70.452 46.6234 69.9109V67.9609C46.6187 67.6258 46.7201 67.2978 46.9132 67.0238C47.1064 66.7499 47.3812 66.5441 47.6984 66.4359C48.8725 66.038 50.017 65.5576 51.1234 64.9984C51.4221 64.853 51.7588 64.805 52.0862 64.8611C52.4136 64.9171 52.7152 65.0745 52.9484 65.3109L54.3359 66.6984C55.1108 67.4663 56.1575 67.8972 57.2484 67.8972C58.3393 67.8972 59.3861 67.4663 60.1609 66.6984L65.0859 61.7734C65.8538 60.9986 66.2847 59.9518 66.2847 58.8609C66.2847 57.77 65.8538 56.7233 65.0859 55.9484L63.7484 54.5734C63.5109 54.3382 63.353 54.0345 63.297 53.7049C63.2409 53.3753 63.2895 53.0365 63.4359 52.7359C63.997 51.6175 64.4774 50.4604 64.8734 49.2734C64.9788 48.9559 65.1818 48.6798 65.4534 48.4845C65.725 48.2892 66.0514 48.1847 66.3859 48.1859H68.3484C69.4391 48.1859 70.4852 47.7527 71.2564 46.9814C72.0276 46.2102 72.4609 45.1641 72.4609 44.0734V37.1109C72.461 36.5666 72.353 36.0278 72.1432 35.5255C71.9334 35.0233 71.626 34.5677 71.2388 34.1851C70.8516 33.8026 70.3923 33.5007 69.8876 33.297C69.3828 33.0933 68.8427 32.9918 68.2984 32.9984ZM57.0484 34.6984C58.2953 38.532 58.2956 42.6621 57.0492 46.4958C55.8029 50.3295 53.374 53.6698 50.1111 56.0373C46.8483 58.4048 42.9193 59.6777 38.8881 59.6733C34.8568 59.6689 30.9306 58.3875 27.6729 56.013C24.4153 53.6384 21.9936 50.2928 20.7556 46.4564C19.5176 42.62 19.5268 38.4899 20.782 34.6591C22.0372 30.8282 24.4737 27.4935 27.742 25.1336C31.0103 22.7736 34.9422 21.5098 38.9734 21.5234C41.3438 21.5213 43.6932 21.9666 45.8984 22.8359L30.8984 37.7109C30.734 37.872 30.6172 38.0753 30.5609 38.2984L27.6984 49.6984C27.6337 49.9166 27.6297 50.1484 27.687 50.3687C27.7443 50.5889 27.8606 50.7894 28.0234 50.9484C28.1392 51.0665 28.2773 51.1605 28.4296 51.2249C28.5819 51.2892 28.7455 51.3227 28.9109 51.3234C29.0106 51.3355 29.1113 51.3355 29.2109 51.3234L40.7359 48.4859C40.9564 48.4391 41.1571 48.3256 41.3109 48.1609L56.5109 33.1609C56.7361 33.6632 56.9363 34.1764 57.1109 34.6984H57.0484ZM32.4109 41.0234L37.9359 46.4859L30.5984 48.2984L32.4109 41.0234ZM40.3984 45.4109L33.5109 38.5984L58.3109 14.0984L65.1984 20.9109L40.3984 45.4109ZM64.1484 9.78594C65.081 9.77669 65.9795 10.1361 66.6484 10.7859L68.5734 12.6984C69.2253 13.3522 69.5914 14.2377 69.5914 15.1609C69.5914 16.0841 69.2253 16.9697 68.5734 17.6234L67.0234 19.1484L60.0859 12.3359L61.6234 10.8109C61.9457 10.4858 62.3293 10.2277 62.752 10.0518C63.1747 9.87586 63.6281 9.7855 64.0859 9.78594H64.1484ZM69.9734 44.0734C69.9734 44.5011 69.8035 44.9112 69.5011 45.2136C69.1987 45.516 68.7886 45.6859 68.3609 45.6859H66.3359C65.4848 45.6965 64.658 45.9718 63.9703 46.4735C63.2827 46.9753 62.7683 47.6786 62.4984 48.4859C62.1493 49.5574 61.7318 50.6054 61.2484 51.6234C60.871 52.3919 60.7429 53.2589 60.8818 54.1037C61.0207 54.9485 61.4198 55.7288 62.0234 56.3359L63.4109 57.7234C63.5617 57.8733 63.6814 58.0515 63.7631 58.2478C63.8447 58.4441 63.8868 58.6546 63.8868 58.8672C63.8868 59.0798 63.8447 59.2903 63.7631 59.4866C63.6814 59.6829 63.5617 59.8611 63.4109 60.0109L58.3859 64.9984C58.2361 65.1492 58.0579 65.2689 57.8616 65.3506C57.6653 65.4322 57.4548 65.4743 57.2422 65.4743C57.0296 65.4743 56.8191 65.4322 56.6228 65.3506C56.4265 65.2689 56.2483 65.1492 56.0984 64.9984L54.7109 63.6109C54.1142 62.9921 53.337 62.5778 52.4906 62.4274C51.6442 62.277 50.7719 62.3981 49.9984 62.7734C48.9771 63.259 47.9248 63.6766 46.8484 64.0234C46.0323 64.2932 45.3227 64.8149 44.8218 65.5134C44.3209 66.212 44.0545 67.0514 44.0609 67.9109V69.8734C44.0711 70.3002 43.9129 70.7139 43.6205 71.025C43.3281 71.3361 42.925 71.5196 42.4984 71.5359H35.4859C35.0583 71.5359 34.6481 71.366 34.3457 71.0636C34.0433 70.7612 33.8734 70.3511 33.8734 69.9234V67.9609C33.8779 67.1018 33.6107 66.2633 33.1101 65.5651C32.6095 64.8669 31.901 64.3449 31.0859 64.0734C30.0096 63.7266 28.9573 63.309 27.9359 62.8234C27.1688 62.4404 26.3004 62.3091 25.4543 62.4482C24.6082 62.5874 23.8275 62.9899 23.2234 63.5984L21.8359 64.9984C21.6861 65.1492 21.5079 65.2689 21.3116 65.3506C21.1153 65.4322 20.9048 65.4743 20.6922 65.4743C20.4796 65.4743 20.2691 65.4322 20.0728 65.3506C19.8765 65.2689 19.6983 65.1492 19.5484 64.9984L14.6234 59.9984C14.4713 59.8509 14.3507 59.6741 14.269 59.4785C14.1874 59.283 14.1463 59.0728 14.1484 58.8609C14.1468 58.6472 14.188 58.4354 14.2696 58.2379C14.3512 58.0404 14.4715 57.8612 14.6234 57.7109L16.0109 56.3234C16.6212 55.7204 17.0248 54.9396 17.164 54.0931C17.3033 53.2465 17.1709 52.3776 16.7859 51.6109C16.3004 50.5896 15.8828 49.5373 15.5359 48.4609C15.2612 47.6479 14.7383 46.9416 14.0408 46.4415C13.3434 45.9414 12.5066 45.6728 11.6484 45.6734H9.63594C9.20828 45.6734 8.79813 45.5035 8.49573 45.2011C8.19333 44.8987 8.02344 44.4886 8.02344 44.0609V37.1109C8.02344 36.6833 8.19333 36.2731 8.49573 35.9707C8.79813 35.6683 9.20828 35.4984 9.63594 35.4984H11.5984C12.4575 35.5029 13.2961 35.2358 13.9942 34.7351C14.6924 34.2345 15.2145 33.526 15.4859 32.7109C15.8327 31.6305 16.2503 30.574 16.7359 29.5484C17.1199 28.7836 17.2517 27.9168 17.1125 27.0725C16.9732 26.2281 16.5701 25.4495 15.9609 24.8484L14.6234 23.4609C14.3219 23.1566 14.1528 22.7456 14.1528 22.3172C14.1528 21.8888 14.3219 21.4777 14.6234 21.1734L19.5484 16.2484C19.6983 16.0976 19.8765 15.978 20.0728 15.8963C20.2691 15.8146 20.4796 15.7726 20.6922 15.7726C20.9048 15.7726 21.1153 15.8146 21.3116 15.8963C21.5079 15.978 21.6861 16.0976 21.8359 16.2484L23.2234 17.6359C23.8285 18.2428 24.6091 18.6442 25.4547 18.7833C26.3004 18.9223 27.1683 18.7921 27.9359 18.4109C28.9573 17.9254 30.0096 17.5078 31.0859 17.1609C31.9 16.8879 32.6074 16.3653 33.1078 15.6675C33.6081 14.9697 33.876 14.1321 33.8734 13.2734V11.2484C33.8734 10.8208 34.0433 10.4106 34.3457 10.1082C34.6481 9.80583 35.0583 9.63594 35.4859 9.63594H42.4984C42.9185 9.64886 43.3173 9.82405 43.611 10.1247C43.9046 10.4254 44.0704 10.8282 44.0734 11.2484V13.2109C44.069 14.07 44.3361 14.9086 44.8367 15.6067C45.3374 16.3049 46.0458 16.827 46.8609 17.0984C48.0188 17.5012 49.1467 17.9858 50.2359 18.5484L47.8359 20.9109C45.0528 19.6476 42.0299 18.9995 38.9734 19.0109C34.4351 19.0206 30.0161 20.4653 26.3485 23.1384C22.681 25.8114 19.9527 29.5759 18.554 33.8933C17.1553 38.2108 17.1579 42.8599 18.5613 47.1758C19.9647 51.4917 22.6971 55.2532 26.3676 57.9222C30.0381 60.5913 34.4586 62.0312 38.997 62.0359C43.5353 62.0406 47.9589 60.6099 51.6349 57.9485C55.3109 55.2871 58.0511 51.5313 59.4635 47.2184C60.8759 42.9054 60.8881 38.2563 59.4984 33.9359C59.1819 32.9946 58.8019 32.0758 58.3609 31.1859L60.7359 28.8359C61.4377 30.0725 62.0275 31.3693 62.4984 32.7109C62.7732 33.524 63.2961 34.2303 63.9935 34.7304C64.6909 35.2305 65.5277 35.4991 66.3859 35.4984H68.3484C68.7761 35.4984 69.1862 35.6683 69.4886 35.9707C69.791 36.2731 69.9609 36.6833 69.9609 37.1109L69.9734 44.0734Z" fill="#1E8A8A"/>
</svg>
