<svg width="30" height="30" viewBox="0 0 30 30" fill="none" xmlns="http://www.w3.org/2000/svg">
<g clip-path="url(#clip0_17484_11033)">
<path d="M29.536 20.2825H28.2518C28.1448 19.9406 28.0078 19.6098 27.8422 19.2931L28.7502 18.3852C28.8373 18.2982 28.8862 18.18 28.8862 18.0569C28.8862 17.9337 28.8372 17.8157 28.7502 17.7285L26.8461 15.8246C26.6648 15.6433 26.3709 15.6433 26.1895 15.8246L25.2817 16.7325C24.9651 16.5669 24.6341 16.4299 24.2922 16.3229V15.0385C24.2922 14.7821 24.0844 14.5742 23.8279 14.5742H21.1354C20.879 14.5742 20.6712 14.7821 20.6712 15.0385V16.3229C20.3292 16.43 19.9983 16.567 19.6817 16.7325L18.7739 15.8246C18.6869 15.7375 18.5688 15.6886 18.4455 15.6886C18.3223 15.6886 18.2044 15.7375 18.1172 15.8246L16.2132 17.7285C16.1261 17.8156 16.0772 17.9336 16.0772 18.0569C16.0772 18.18 16.1262 18.2981 16.2132 18.3852L17.121 19.293C16.9555 19.6096 16.8185 19.9405 16.7114 20.2825H15.4272C15.1707 20.2825 14.9629 20.4904 14.9629 20.7468V23.4393C14.9629 23.6958 15.1707 23.9036 15.4272 23.9036H16.7114C16.8184 24.2454 16.9554 24.5763 17.121 24.8931L16.2132 25.8008C16.0319 25.9822 16.0319 26.2762 16.2132 26.4575L18.1172 28.3616C18.2044 28.4487 18.3224 28.4976 18.4456 28.4976C18.5688 28.4976 18.6868 28.4486 18.7739 28.3616L19.6817 27.4537C19.9985 27.6194 20.3294 27.7563 20.6713 27.8633V29.1476C20.6713 29.4041 20.8791 29.6119 21.1356 29.6119H23.8281C24.0845 29.6119 24.2924 29.4041 24.2924 29.1476V27.8633C24.6341 27.7563 24.965 27.6193 25.2818 27.4536L26.1896 28.3616C26.2766 28.4487 26.3948 28.4976 26.518 28.4976C26.6412 28.4976 26.7592 28.4486 26.8463 28.3616L28.7504 26.4576C28.8374 26.3704 28.8863 26.2524 28.8863 26.1292C28.8863 26.0061 28.8374 25.888 28.7504 25.8008L27.8424 24.8929C28.008 24.5762 28.145 24.2452 28.252 23.9036H29.5362C29.7927 23.9036 30.0005 23.6957 30.0005 23.4393V20.7468C30.0003 20.4903 29.7925 20.2825 29.536 20.2825ZM29.0717 22.975H27.9C27.6866 22.975 27.5007 23.1205 27.4494 23.3275C27.3264 23.8237 27.1306 24.2964 26.8676 24.7327C26.7573 24.9155 26.786 25.1499 26.9369 25.3009L27.7653 26.1292L26.5179 27.3765L25.6896 26.548C25.5387 26.3971 25.3042 26.3684 25.1214 26.4788C24.6851 26.742 24.2123 26.9378 23.7163 27.0606C23.5092 27.1119 23.3637 27.2979 23.3637 27.5113V28.6832H21.5998V27.5113C21.5998 27.2979 21.4543 27.1119 21.2472 27.0606C20.7508 26.9377 20.2782 26.7419 19.8422 26.4788C19.6593 26.3684 19.4249 26.397 19.2739 26.548L18.4456 27.3765L17.1982 26.1292L18.0266 25.3009C18.1776 25.1499 18.2061 24.9155 18.0958 24.7327C17.8329 24.2967 17.6371 23.8239 17.5141 23.3275C17.4627 23.1204 17.2768 22.975 17.0635 22.975H15.8916V21.2111H17.0634C17.2768 21.2111 17.4627 21.0656 17.5139 20.8586C17.6371 20.3618 17.8329 19.889 18.0957 19.4534C18.206 19.2706 18.1775 19.0362 18.0265 18.8852L17.1981 18.0569L18.4455 16.8096L19.2738 17.638C19.4247 17.789 19.6592 17.8177 19.8421 17.7072C20.2776 17.4444 20.7504 17.2486 21.2472 17.1254C21.4543 17.074 21.5997 16.8881 21.5997 16.6748V15.5029H23.3637V16.6748C23.3637 16.8881 23.5091 17.0741 23.7161 17.1254C24.2128 17.2487 24.6856 17.4444 25.1214 17.7072C25.3042 17.8175 25.5385 17.7887 25.6895 17.638L26.5179 16.8096L27.7652 18.0569L26.9369 18.8851C26.7859 19.0361 26.7573 19.2705 26.8676 19.4533C27.1305 19.8892 27.3263 20.3621 27.4494 20.8585C27.5007 21.0656 27.6866 21.211 27.9 21.211H29.0717V22.975Z" fill="#1E8A8A"/>
<path d="M22.4167 18.0859C20.2075 18.0859 18.4102 19.8834 18.4102 22.0928C18.4102 24.302 20.2074 26.0995 22.4167 26.0995C24.626 26.0995 26.4234 24.3021 26.4234 22.0928C26.4234 19.8834 24.626 18.0859 22.4167 18.0859ZM22.4167 25.1708C20.7195 25.1708 19.3387 23.79 19.3387 22.0927C19.3387 20.3954 20.7195 19.0145 22.4167 19.0145C24.114 19.0145 25.4948 20.3954 25.4948 22.0927C25.4948 23.79 24.114 25.1708 22.4167 25.1708Z" fill="#1E8A8A"/>
<path d="M24.8699 10.2609H22.3963C22.1855 9.52459 21.8926 8.81695 21.5221 8.14916L23.2711 6.40049C23.3582 6.31348 23.4071 6.19535 23.4071 6.07213C23.4071 5.94902 23.3582 5.83096 23.2712 5.74377L19.9775 2.45016C19.7961 2.26887 19.5021 2.26887 19.3209 2.45016L17.5719 4.199C16.9045 3.82875 16.1968 3.53578 15.4601 3.32478V0.851016C15.4601 0.594551 15.2523 0.386719 14.9958 0.386719H10.3383C10.0818 0.386719 9.87399 0.594551 9.87399 0.851016V3.32478C9.13705 3.5359 8.42924 3.82898 7.76215 4.19918L6.01342 2.45033C5.92635 2.3632 5.80828 2.31434 5.68506 2.31434C5.56189 2.31434 5.44383 2.36326 5.3567 2.45033L2.06338 5.74395C1.88203 5.92529 1.88203 6.2192 2.06338 6.40055L3.81211 8.14922C3.44186 8.8166 3.14883 9.52435 2.93789 10.2609H0.464297C0.207832 10.2609 0 10.4688 0 10.7252V15.3829C0 15.6393 0.207832 15.8471 0.464297 15.8471H2.93783C3.14883 16.5836 3.44186 17.2913 3.81211 17.9588L2.06338 19.7077C1.88203 19.8891 1.88203 20.183 2.06338 20.3643L5.3567 23.6579C5.44383 23.7451 5.56184 23.7939 5.68506 23.7939C5.80828 23.7939 5.92629 23.745 6.01342 23.6579L7.76209 21.9089C8.42982 22.2795 9.13764 22.5726 9.87399 22.7835V25.2572C9.87399 25.5137 10.0818 25.7215 10.3383 25.7215H14.0112C14.1634 25.7215 14.306 25.647 14.3927 25.5219C14.4794 25.3969 14.4994 25.2373 14.4461 25.0948C14.0878 24.1356 13.9061 23.1259 13.9061 22.094C13.9061 21.0907 14.0779 20.1076 14.417 19.172C14.4751 19.0115 14.4405 18.8321 14.3269 18.7047C14.2133 18.5773 14.039 18.5225 13.8728 18.5621C13.4396 18.6653 12.9967 18.7177 12.5562 18.7177C9.43354 18.7177 6.89303 16.1771 6.89303 13.0545C6.89303 9.93158 9.43354 7.3909 12.5562 7.3909C15.679 7.3909 18.2196 9.93158 18.2196 13.0545C18.2196 13.3157 18.2003 13.5843 18.1624 13.8529C18.1385 14.0218 18.2094 14.1904 18.3468 14.2917C18.4843 14.3929 18.6661 14.4104 18.8205 14.3375C19.9697 13.7941 21.2014 13.5186 22.4813 13.5186C23.2488 13.5186 24.0113 13.6206 24.7475 13.8218C24.8873 13.8601 25.0366 13.8308 25.1517 13.743C25.2667 13.6552 25.3342 13.5186 25.3342 13.3739V10.7253C25.3342 10.4688 25.1264 10.2609 24.8699 10.2609ZM24.4058 12.7856C23.7743 12.6555 23.1293 12.5899 22.4814 12.5899C21.3279 12.5899 20.2096 12.792 19.1467 13.1915C19.1477 13.1456 19.1481 13.0998 19.1481 13.0543C19.1481 9.41936 16.191 6.46219 12.5562 6.46219C8.92143 6.46219 5.96443 9.41941 5.96443 13.0543C5.96443 16.6891 8.92148 19.6461 12.5562 19.6461C12.8066 19.6461 13.0577 19.6317 13.3076 19.6028C13.0883 20.4114 12.9775 21.2463 12.9775 22.0938C12.9775 23.0147 13.1082 23.9197 13.3667 24.7929H10.8026V22.427C10.8026 22.2136 10.6571 22.0277 10.4501 21.9764C9.55828 21.7553 8.70902 21.4036 7.92598 20.9309C7.74311 20.8205 7.50867 20.8492 7.35768 21.0001L5.68512 22.673L3.04834 20.0361L4.7209 18.3633C4.87184 18.2124 4.90037 17.978 4.7901 17.7952C4.31777 17.0122 3.96615 16.1631 3.74496 15.2711C3.69363 15.064 3.50771 14.9186 3.29438 14.9186H0.928594V11.1895H3.29432C3.50766 11.1895 3.69357 11.044 3.7449 10.837C3.96621 9.94477 4.31783 9.09557 4.79004 8.31287C4.90031 8.13012 4.87172 7.89568 4.72084 7.74469L3.04828 6.07225L5.68506 3.43529L7.35762 5.10803C7.50855 5.25896 7.74293 5.28756 7.92592 5.17723C8.70809 4.70508 9.5574 4.3534 10.4501 4.13186C10.6572 4.08047 10.8026 3.89455 10.8026 3.68127V1.31543H14.5315V3.68133C14.5315 3.89467 14.6769 4.08059 14.884 4.13191C15.7763 4.35322 16.6256 4.7049 17.4082 5.17705C17.591 5.28732 17.8254 5.25855 17.9763 5.10785L19.6491 3.43518L22.2861 6.07219L20.6134 7.74469C20.4625 7.89562 20.4339 8.13006 20.5441 8.31287C21.0166 9.09604 21.3683 9.94535 21.5892 10.837C21.6405 11.0441 21.8265 11.1895 22.0398 11.1895H24.4057V12.7856H24.4058Z" fill="#1E8A8A"/>
<path d="M16.7573 10.7742C16.6353 10.5486 16.3536 10.4647 16.128 10.5867C15.9024 10.7087 15.8185 10.9905 15.9405 11.216C16.243 11.7752 16.4029 12.4092 16.4029 13.0494C16.4029 15.1774 14.6717 16.9086 12.5437 16.9086C10.4158 16.9086 8.68451 15.1774 8.68451 13.0494C8.68451 10.9215 10.4158 9.19025 12.5437 9.19025C13.4175 9.19025 14.2415 9.47496 14.9266 10.0136C15.1283 10.1721 15.4202 10.1371 15.5786 9.93557C15.7371 9.73395 15.7021 9.44203 15.5005 9.28359C14.6502 8.6151 13.6277 8.26172 12.5437 8.26172C9.90361 8.26172 7.75586 10.4095 7.75586 13.0495C7.75586 15.6895 9.90361 17.8373 12.5437 17.8373C15.1837 17.8373 17.3314 15.6895 17.3314 13.0495C17.3314 12.2554 17.1329 11.4686 16.7573 10.7742Z" fill="#1E8A8A"/>
<path d="M22.4171 19.8789C21.1963 19.8789 20.2031 20.8721 20.2031 22.0929C20.2031 23.3137 21.1963 24.307 22.4171 24.307C23.6379 24.307 24.6312 23.3137 24.6312 22.0929C24.6312 20.8721 23.6379 19.8789 22.4171 19.8789ZM22.4171 23.3783C21.7084 23.3783 21.1317 22.8017 21.1317 22.0929C21.1317 21.3841 21.7083 20.8074 22.4171 20.8074C23.126 20.8074 23.7026 21.384 23.7026 22.0929C23.7026 22.8017 23.1259 23.3783 22.4171 23.3783Z" fill="#1E8A8A"/>
</g>
<defs>
<clipPath id="clip0_17484_11033">
<rect width="30" height="30" fill="white"/>
</clipPath>
</defs>
</svg>
