<svg width="30" height="30" viewBox="0 0 30 30" fill="none" xmlns="http://www.w3.org/2000/svg">
<g clip-path="url(#clip0_17484_9790)">
<path d="M22.0483 17.2381C23.3721 14.7604 23.7617 11.8894 23.1459 9.14846C22.5301 6.40752 20.9501 3.97906 18.6936 2.30563C16.4372 0.632198 13.6546 -0.174794 10.8529 0.0317158C8.05124 0.238225 5.41703 1.44449 3.43033 3.43068C1.44664 5.41806 0.242539 8.05169 0.0372372 10.8522C-0.168064 13.6526 0.63908 16.4337 2.31174 18.6891C3.9844 20.9446 6.41135 22.5244 9.15079 23.141C11.8902 23.7575 14.76 23.3699 17.2377 22.0487L24.1957 29.0067C24.8353 29.6364 25.6979 29.9879 26.5955 29.9844C27.4931 29.9809 28.3529 29.6228 28.9877 28.9881C29.6224 28.3535 29.9805 27.4936 29.9841 26.596C29.9876 25.6984 29.6362 24.8358 29.0065 24.1961L22.0483 17.2381ZM4.42467 19.0018C3.46043 18.0462 2.69443 16.9096 2.17068 15.6572C1.64692 14.4048 1.37572 13.0613 1.37265 11.7038C1.36958 10.3463 1.63469 9.00151 2.15277 7.74674C2.67085 6.49198 3.43168 5.35191 4.39159 4.392C5.3515 3.43209 6.49157 2.67125 7.74634 2.15317C9.0011 1.6351 10.3458 1.36998 11.7034 1.37306C13.0609 1.37613 14.4044 1.64733 15.6568 2.17108C16.9092 2.69484 18.0458 3.46083 19.0014 4.42508C19.9656 5.38063 20.7316 6.51724 21.2554 7.76965C21.7791 9.02206 22.0503 10.3656 22.0534 11.7231C22.0565 13.0806 21.7914 14.4254 21.2733 15.6801C20.7552 16.9349 19.9944 18.075 19.0345 19.0349C18.0746 19.9948 16.9345 20.7556 15.6797 21.2737C14.425 21.7918 13.0802 22.0569 11.7227 22.0538C10.3652 22.0507 9.02165 21.7795 7.76924 21.2558C6.51683 20.732 5.38022 19.966 4.42467 19.0018ZM28.0119 28.0123C27.6374 28.386 27.13 28.5959 26.6009 28.5959C26.0719 28.5959 25.5645 28.386 25.1899 28.0123L18.4658 21.2881C19.5586 20.513 20.5127 19.559 21.2878 18.4662L28.012 25.1904C28.3843 25.5656 28.5932 26.0728 28.5932 26.6013C28.5932 27.1299 28.3843 27.6371 28.012 28.0123H28.0119ZM17.3541 6.47773C14.7584 6.67297 13.119 6.00265 12.344 4.42824C12.286 4.3104 12.1961 4.21115 12.0846 4.14175C11.9731 4.07235 11.8444 4.03556 11.7131 4.03556C11.5817 4.03556 11.453 4.07235 11.3415 4.14175C11.23 4.21115 11.1402 4.3104 11.0822 4.42824C10.3073 6.00265 8.66856 6.67326 6.07244 6.47773C5.89735 6.46455 5.72365 6.51731 5.58546 6.62564C5.44727 6.73398 5.35459 6.89007 5.32561 7.06326C4.86752 9.81131 5.2959 12.4818 6.56457 14.7854C7.70129 16.8498 9.43045 18.4651 11.4332 19.3334C11.5215 19.3717 11.6167 19.3914 11.7129 19.3914C11.8091 19.3914 11.9043 19.3717 11.9926 19.3334C13.9953 18.465 15.7243 16.8498 16.8612 14.7854C18.1299 12.4818 18.5582 9.81148 18.1002 7.06326C18.0715 6.89005 17.9791 6.73385 17.8409 6.62546C17.7028 6.51707 17.5291 6.46436 17.3541 6.47773ZM11.7131 17.9152C8.76471 16.4914 6.05879 12.8586 6.62592 7.91328C8.93223 7.96795 10.6375 7.33713 11.7131 6.03318C12.746 7.28539 14.3584 7.91662 16.5279 7.91656C16.6178 7.91656 16.7086 7.91547 16.8003 7.91328C17.3674 12.8586 14.6615 16.4909 11.7131 17.915V17.9152ZM14.7068 10.3821L11.9371 13.9129C11.8779 13.9885 11.8037 14.0512 11.7192 14.0971C11.6348 14.1429 11.5418 14.171 11.4461 14.1795C11.4253 14.1813 11.4046 14.1823 11.384 14.1823C11.2113 14.1823 11.0446 14.1187 10.9157 14.0037L8.80438 12.1192C8.66855 11.9941 8.58736 11.8207 8.57833 11.6363C8.56931 11.4519 8.63318 11.2713 8.75614 11.1336C8.87911 10.9959 9.05131 10.9121 9.23555 10.9002C9.4198 10.8884 9.60131 10.9495 9.74088 11.0704L11.2931 12.4559L13.6004 9.51453C13.7157 9.36856 13.8842 9.27426 14.069 9.25228C14.2537 9.2303 14.4397 9.28243 14.586 9.39726C14.7324 9.51209 14.8273 9.68025 14.85 9.86492C14.8726 10.0496 14.8211 10.2357 14.7068 10.3825V10.3821Z" fill="#0F282C"/>
</g>
<defs>
<clipPath id="clip0_17484_9790">
<rect width="30" height="30" fill="white"/>
</clipPath>
</defs>
</svg>
