<svg width="30" height="30" viewBox="0 0 30 30" fill="none" xmlns="http://www.w3.org/2000/svg">
<path d="M18.2402 19.3711V22.6465C18.2402 22.7578 18.1465 22.8516 18.0352 22.8516H17.3613C17.25 22.8516 17.1563 22.7578 17.1563 22.6465V19.3711C17.1563 19.2598 17.25 19.166 17.3613 19.166H18.0352C18.1465 19.166 18.2402 19.2539 18.2402 19.3711ZM20.4609 17.8652H19.7871C19.6758 17.8652 19.582 17.959 19.582 18.0703V22.6465C19.582 22.7578 19.6758 22.8516 19.7871 22.8516H20.4609C20.5723 22.8516 20.666 22.7578 20.666 22.6465V18.0703C20.666 17.9531 20.5781 17.8652 20.4609 17.8652ZM22.8926 13.916H22.2188C22.1074 13.916 22.0137 14.0098 22.0137 14.1211V22.6406C22.0137 22.752 22.1074 22.8457 22.2188 22.8457H22.8926C23.0039 22.8457 23.0977 22.752 23.0977 22.6406V14.1211C23.0977 14.0098 23.0039 13.916 22.8926 13.916ZM25.3184 15.9258H24.6445C24.5332 15.9258 24.4395 16.0195 24.4395 16.1309V22.6465C24.4395 22.7578 24.5332 22.8516 24.6445 22.8516H25.3184C25.4297 22.8516 25.5234 22.7578 25.5234 22.6465V16.1309C25.5234 16.0195 25.4297 15.9258 25.3184 15.9258ZM7.61133 8.30273C7.94531 4.88672 12.8906 5.05664 12.9902 8.50781C13.0078 9.97852 11.7656 11.2148 10.2949 11.2031C8.77734 11.2383 7.45898 9.82031 7.61133 8.30273ZM8.56055 8.39062C8.4668 10.6934 11.8242 10.9219 12.041 8.61914C12.1113 6.31055 8.79492 6.09961 8.56055 8.39062ZM29.9414 24.2695V25.7051C29.9414 26.6836 29.1445 27.4805 28.166 27.4805H1.83398C0.855469 27.4863 0.0585938 26.6895 0.0585938 25.7109V24.2754C0.0585938 24.0117 0.269531 23.8008 0.533203 23.8008H2.15039V9.19922C2.15039 8.55469 2.67773 8.02734 3.32227 8.02734H4.30664V7.73438C4.30664 7.30664 4.65234 6.96094 5.07422 6.96094H6.07031C6.11719 6.83789 6.16406 6.7207 6.2168 6.60938L5.51953 5.90625C5.21484 5.625 5.21484 5.10352 5.51953 4.81641L6.60938 3.72656C6.9082 3.42773 7.39453 3.42773 7.69922 3.7207L8.40234 4.42383C8.51953 4.37109 8.63086 4.32422 8.74805 4.27734V3.29297C8.74805 2.86523 9.09375 2.51953 9.52149 2.51953H11.0625C11.4902 2.51953 11.8359 2.86523 11.8359 3.29297V4.27734C11.9531 4.31836 12.0703 4.37109 12.1875 4.42383L12.8965 3.7207C13.1953 3.42188 13.6816 3.42188 13.9863 3.71484L15.082 4.81055C15.3809 5.12695 15.3809 5.60156 15.0879 5.90039L14.3789 6.60938C14.4316 6.7207 14.4785 6.83789 14.5254 6.96094H15.5156C15.9434 6.96094 16.2891 7.30664 16.2891 7.73438V8.0332H26.6777C27.3223 8.0332 27.8496 8.56055 27.8496 9.20508V23.8008H29.4727C29.7305 23.7949 29.9414 24.0117 29.9414 24.2695ZM5.26172 9.09961H6.42188C6.7793 9.08789 6.88477 9.43945 6.97266 9.71484C7.04297 10.002 7.30078 10.2539 7.27149 10.5527C7.25977 10.6523 7.21289 10.752 7.13672 10.8223L6.31641 11.6426L7.1543 12.4805L7.97461 11.6602C8.2207 11.4023 8.53711 11.5664 8.79492 11.707C9.04688 11.8652 9.41016 11.8594 9.60352 12.0879C9.66797 12.1699 9.70313 12.2695 9.70313 12.375V13.5352H10.8926V12.375C10.8926 12.1582 11.0332 11.9707 11.2441 11.918C11.5254 11.8418 11.7891 11.7305 12.0293 11.5957C12.2168 11.4785 12.4629 11.502 12.6211 11.6602L12.9316 11.9648L13.4473 12.4805C13.6582 12.2695 14.0801 11.8535 14.2852 11.6426C14.25 11.6074 13.5234 10.8809 13.4648 10.8223C13.1074 10.4648 13.5586 10.0371 13.6465 9.66211C13.7227 9.39258 13.8516 9.08203 14.1797 9.09375H15.3398C15.3398 8.79492 15.3398 8.20312 15.3398 7.9043H14.1797C13.9629 7.9043 13.7754 7.76367 13.7227 7.55273C13.6465 7.27148 13.5352 7.00195 13.3887 6.75C13.2832 6.5625 13.3125 6.32813 13.4648 6.17578L14.291 5.35547L13.4473 4.51172L12.6211 5.33203C12.4688 5.48438 12.2402 5.51367 12.0527 5.4082C11.7949 5.26172 11.5254 5.15039 11.2441 5.07422C11.0391 5.01562 10.8926 4.82813 10.8926 4.61719V3.46289H9.70313V4.62891C9.70313 4.8457 9.5625 5.0332 9.35156 5.08594C9.07617 5.16211 8.8125 5.27344 8.53711 5.41992C8.34961 5.51953 8.12109 5.49023 7.97461 5.33789L7.1543 4.51758L6.31641 5.36133L7.13672 6.18164C7.28906 6.33398 7.31836 6.56836 7.21289 6.75586C7.07813 6.99609 6.96094 7.26562 6.87305 7.57031C6.81445 7.77539 6.62695 7.91016 6.41602 7.91016H5.26172V9.09961ZM3.09961 23.7949H26.8945V9.19922C26.8945 9.07617 26.8008 8.98242 26.6777 8.98242H16.2891V9.27539C16.2891 9.70313 15.9434 10.0488 15.5156 10.0488H14.5254C14.4844 10.166 14.4316 10.2832 14.3789 10.3945L14.8477 10.8633L15.082 11.0977C15.375 11.3965 15.3809 11.8828 15.0879 12.1875L13.9922 13.2773C13.7461 13.5352 13.3066 13.582 13.0137 13.3711C12.8555 13.2539 12.3398 12.7148 12.1992 12.5801C12.082 12.627 11.9648 12.6797 11.8477 12.7266V13.7168C11.8477 14.1445 11.502 14.4902 11.0742 14.4902H9.5332C9.11133 14.4902 8.75977 14.1445 8.75977 13.7168V12.7266C8.64258 12.6855 8.52539 12.6328 8.4082 12.5801L7.71094 13.2773C7.42383 13.582 6.90234 13.5762 6.61524 13.2715L5.53125 12.1875C5.27344 11.9355 5.22656 11.5078 5.43164 11.209C5.4668 11.1387 6.15234 10.4648 6.22852 10.3887C6.17578 10.2773 6.12891 10.1602 6.08203 10.043H5.08594C4.6582 10.043 4.31836 9.68555 4.3125 9.26953V8.97656H3.32227C3.19922 8.97656 3.09961 9.07617 3.09961 9.19336V23.7949ZM28.9922 24.75C26.9707 24.75 3.0293 24.75 1.00781 24.75V25.7109C1.00781 26.168 1.37695 26.5371 1.83398 26.5371H28.166C28.6231 26.5371 28.9922 26.168 28.9922 25.7109V24.75ZM18.5625 12.5684L16.5996 12.7266C15.9785 12.791 16.0547 13.7051 16.6758 13.6758L17.3027 13.623L11.3145 19.6172L8.41992 16.7227C8.23242 16.5352 7.93359 16.5352 7.74609 16.7227L4.44727 20.0215C4.01367 20.4668 4.66992 21.1289 5.12109 20.6953L8.08594 17.7305L10.9805 20.625C11.168 20.8125 11.4668 20.8125 11.6543 20.625L18.0645 14.2148L18.0352 14.6895C18.0117 15.3105 18.9375 15.3691 18.9844 14.7422L19.0781 13.0664C19.1016 12.791 18.8438 12.5449 18.5625 12.5684Z" fill="#0F282C"/>
</svg>
