<svg width="50" height="50" viewBox="0 0 50 50" fill="none" xmlns="http://www.w3.org/2000/svg">
<g clip-path="url(#clip0_17484_9879)">
<path d="M49.9307 26.875H41C33.1989 26.875 26.875 33.199 26.875 41V49.9307C39.1874 49.0177 49.0177 39.1874 49.9307 26.875Z" fill="#1E8A8A"/>
<path d="M23.1281 49.9307V41C23.1281 33.199 16.8041 26.875 9.00301 26.875H0.0722656C0.985183 39.1874 10.8156 49.0177 23.1281 49.9307Z" fill="#1E8A8A"/>
<path d="M49.9307 23.1241C49.0177 10.8117 39.1874 0.981277 26.875 0.0683594V8.9991C26.875 16.8001 33.1989 23.1241 41 23.1241H49.9307Z" fill="#1E8A8A"/>
<path d="M23.1281 0.0683594C10.8156 0.981277 0.985183 10.8117 0.0722656 23.1241H9.00301C16.8041 23.1241 23.1281 16.8001 23.1281 8.9991V0.0683594Z" fill="#1E8A8A"/>
<path d="M16.9785 25.0001C20.4441 23.2685 23.2685 20.4441 25 16.9785C26.7316 20.4441 29.5559 23.2685 33.0216 25.0001C29.5559 26.7316 26.7316 29.556 25 33.0216C23.2685 29.556 20.4441 26.7316 16.9785 25.0001Z" fill="#1E8A8A"/>
</g>
<defs>
<clipPath id="clip0_17484_9879">
<rect width="50" height="50" fill="white"/>
</clipPath>
</defs>
</svg>
