<svg width="165" height="50" viewBox="0 0 165 50" fill="none" xmlns="http://www.w3.org/2000/svg">
<g clip-path="url(#clip0_17484_11213)">
<path d="M49.9307 26.875H41C33.1989 26.875 26.875 33.199 26.875 41V49.9307C39.1874 49.0177 49.0177 39.1874 49.9307 26.875Z" fill="white"/>
<path d="M23.1281 49.9307V41C23.1281 33.199 16.8041 26.875 9.00301 26.875H0.0722656C0.985183 39.1874 10.8156 49.0177 23.1281 49.9307Z" fill="white"/>
<path d="M49.9307 23.1241C49.0177 10.8117 39.1874 0.981277 26.875 0.0683594V8.9991C26.875 16.8001 33.1989 23.1241 41 23.1241H49.9307Z" fill="white"/>
<path d="M23.1281 0.0683594C10.8156 0.981277 0.985183 10.8117 0.0722656 23.1241H9.00301C16.8041 23.1241 23.1281 16.8001 23.1281 8.9991V0.0683594Z" fill="white"/>
<path d="M16.9785 25.0001C20.4441 23.2685 23.2685 20.4441 25 16.9785C26.7316 20.4441 29.5559 23.2685 33.0216 25.0001C29.5559 26.7316 26.7316 29.556 25 33.0216C23.2685 29.556 20.4441 26.7316 16.9785 25.0001Z" fill="white"/>
</g>
<path d="M61.77 36V14.13H73.95V17.37H64.8L65.49 16.68V33.45L64.8 32.76H73.98V36H61.77ZM64.8 26.34V23.31H72.9V26.34H64.8ZM76.3563 36V14.13H79.9263V36H76.3563ZM83.1825 36V20.07H86.7525V36H83.1825ZM84.9825 17.94C84.4225 17.94 83.9525 17.79 83.5725 17.49C83.1925 17.17 83.0025 16.74 83.0025 16.2C83.0025 15.62 83.1825 15.18 83.5425 14.88C83.9225 14.58 84.4025 14.43 84.9825 14.43C85.5625 14.43 86.0425 14.58 86.4225 14.88C86.8025 15.18 86.9925 15.62 86.9925 16.2C86.9925 16.74 86.8025 17.17 86.4225 17.49C86.0425 17.79 85.5625 17.94 84.9825 17.94ZM94.2987 36C93.1587 36 92.3187 35.74 91.7787 35.22C91.2387 34.68 90.9687 33.82 90.9687 32.64V22.92L88.8987 22.95V20.07H90.9687V15.57L94.5387 15.21V20.07H96.9687V22.95L94.5387 22.92V31.95C94.5387 32.39 94.6187 32.7 94.7787 32.88C94.9587 33.06 95.2387 33.15 95.6187 33.15H96.9687V36H94.2987ZM104.849 36.3C103.469 36.3 102.299 35.98 101.339 35.34C100.379 34.7 99.6486 33.77 99.1486 32.55C98.6686 31.31 98.4286 29.81 98.4286 28.05C98.4286 26.29 98.6686 24.8 99.1486 23.58C99.6486 22.34 100.369 21.4 101.309 20.76C102.249 20.1 103.409 19.77 104.789 19.77C106.309 19.77 107.529 20.14 108.449 20.88C109.389 21.62 110.059 22.66 110.459 24C110.859 25.34 111.009 26.91 110.909 28.71H101.969C101.969 29.89 102.079 30.84 102.299 31.56C102.539 32.26 102.879 32.78 103.319 33.12C103.759 33.44 104.269 33.6 104.849 33.6C105.609 33.6 106.199 33.38 106.619 32.94C107.039 32.5 107.319 31.88 107.459 31.08H110.849C110.709 32.28 110.369 33.27 109.829 34.05C109.289 34.81 108.589 35.38 107.729 35.76C106.889 36.12 105.929 36.3 104.849 36.3ZM101.969 26.94L101.639 26.46H107.759L107.459 26.97C107.459 25.85 107.349 24.97 107.129 24.33C106.909 23.67 106.599 23.2 106.199 22.92C105.799 22.62 105.329 22.47 104.789 22.47C104.229 22.47 103.739 22.62 103.319 22.92C102.899 23.22 102.569 23.7 102.329 24.36C102.109 25 101.989 25.86 101.969 26.94ZM112.13 36L117.86 14.13H123.14L128.9 36H125.12L121.34 20.43L120.62 17.1H120.41L119.69 20.43L115.91 36H112.13ZM116.75 31.26L117.29 28.35H123.71L124.28 31.26H116.75ZM129.969 36L134.529 27.75L130.359 20.07H134.409L136.689 25.05L136.989 25.74H137.139L137.409 25.05L139.689 20.07H143.559L139.509 27.69L143.919 36H139.869L137.319 30.66L137.019 29.88H136.839L136.509 30.66L133.869 36H129.969ZM145.936 36V20.07H149.506V36H145.936ZM147.736 17.94C147.176 17.94 146.706 17.79 146.326 17.49C145.946 17.17 145.756 16.74 145.756 16.2C145.756 15.62 145.936 15.18 146.296 14.88C146.676 14.58 147.156 14.43 147.736 14.43C148.316 14.43 148.796 14.58 149.176 14.88C149.556 15.18 149.746 15.62 149.746 16.2C149.746 16.74 149.556 17.17 149.176 17.49C148.796 17.79 148.316 17.94 147.736 17.94ZM157.803 36.3C156.883 36.3 156.063 36.18 155.343 35.94C154.623 35.7 154.003 35.36 153.483 34.92C152.983 34.48 152.593 33.94 152.313 33.3C152.053 32.64 151.923 31.91 151.923 31.11H155.313C155.333 31.73 155.443 32.24 155.643 32.64C155.843 33.04 156.123 33.34 156.483 33.54C156.863 33.72 157.313 33.81 157.833 33.81C158.573 33.81 159.123 33.64 159.483 33.3C159.843 32.94 160.023 32.47 160.023 31.89C160.023 31.39 159.923 30.99 159.723 30.69C159.523 30.39 159.203 30.13 158.763 29.91C158.323 29.67 157.733 29.44 156.993 29.22C155.993 28.94 155.143 28.61 154.443 28.23C153.743 27.85 153.203 27.35 152.823 26.73C152.443 26.11 152.253 25.33 152.253 24.39C152.253 23.43 152.483 22.61 152.943 21.93C153.403 21.23 154.043 20.7 154.863 20.34C155.703 19.96 156.703 19.77 157.863 19.77C158.963 19.77 159.913 19.96 160.713 20.34C161.533 20.7 162.173 21.25 162.633 21.99C163.093 22.73 163.333 23.64 163.353 24.72H160.023C160.003 24.12 159.903 23.64 159.723 23.28C159.543 22.92 159.293 22.66 158.973 22.5C158.653 22.32 158.263 22.23 157.803 22.23C157.123 22.23 156.613 22.4 156.273 22.74C155.933 23.08 155.763 23.52 155.763 24.06C155.763 24.52 155.873 24.9 156.093 25.2C156.333 25.5 156.683 25.75 157.143 25.95C157.623 26.15 158.193 26.35 158.853 26.55C159.933 26.85 160.823 27.21 161.523 27.63C162.223 28.03 162.743 28.54 163.083 29.16C163.423 29.78 163.593 30.56 163.593 31.5C163.593 32.5 163.363 33.36 162.903 34.08C162.443 34.8 161.773 35.35 160.893 35.73C160.033 36.11 159.003 36.3 157.803 36.3Z" fill="white"/>
<defs>
<clipPath id="clip0_17484_11213">
<rect width="50" height="50" fill="white"/>
</clipPath>
</defs>
</svg>
