<svg width="165" height="50" viewBox="0 0 165 50" fill="none" xmlns="http://www.w3.org/2000/svg">
<g clip-path="url(#clip0_17484_18142)">
<path d="M49.9308 26.875H41C33.1989 26.875 26.875 33.199 26.875 41V49.9308C39.1874 49.0178 49.0178 39.1874 49.9308 26.875Z" fill="#1E8A8A"/>
<path d="M23.1261 49.9308V41C23.1261 33.199 16.8021 26.875 9.00106 26.875H0.0703125C0.98323 39.1874 10.8137 49.0178 23.1261 49.9308Z" fill="#1E8A8A"/>
<path d="M49.9308 23.1241C49.0178 10.8117 39.1874 0.981277 26.875 0.0683594V8.9991C26.875 16.8001 33.1989 23.1241 41 23.1241H49.9308Z" fill="#1E8A8A"/>
<path d="M23.1261 0.0683594C10.8137 0.981277 0.98323 10.8117 0.0703125 23.1241H9.00106C16.8021 23.1241 23.1261 16.8001 23.1261 8.9991V0.0683594Z" fill="#1E8A8A"/>
<path d="M16.9844 24.9982C20.45 23.2666 23.2744 20.4422 25.0059 16.9766C26.7375 20.4422 29.5617 23.2666 33.0275 24.9982C29.5617 26.7297 26.7375 29.5541 25.0059 33.0197C23.2744 29.5541 20.45 26.7297 16.9844 24.9982Z" fill="#1E8A8A"/>
</g>
<path d="M61.77 36.5V14.63H73.95V17.87H64.8L65.49 17.18V33.95L64.8 33.26H73.98V36.5H61.77ZM64.8 26.84V23.81H72.9V26.84H64.8ZM76.3563 36.5V14.63H79.9263V36.5H76.3563ZM83.1825 36.5V20.57H86.7525V36.5H83.1825ZM84.9825 18.44C84.4225 18.44 83.9525 18.29 83.5725 17.99C83.1925 17.67 83.0025 17.24 83.0025 16.7C83.0025 16.12 83.1825 15.68 83.5425 15.38C83.9225 15.08 84.4025 14.93 84.9825 14.93C85.5625 14.93 86.0425 15.08 86.4225 15.38C86.8025 15.68 86.9925 16.12 86.9925 16.7C86.9925 17.24 86.8025 17.67 86.4225 17.99C86.0425 18.29 85.5625 18.44 84.9825 18.44ZM94.2987 36.5C93.1587 36.5 92.3187 36.24 91.7787 35.72C91.2387 35.18 90.9687 34.32 90.9687 33.14V23.42L88.8987 23.45V20.57H90.9687V16.07L94.5387 15.71V20.57H96.9687V23.45L94.5387 23.42V32.45C94.5387 32.89 94.6187 33.2 94.7787 33.38C94.9587 33.56 95.2387 33.65 95.6187 33.65H96.9687V36.5H94.2987ZM104.849 36.8C103.469 36.8 102.299 36.48 101.339 35.84C100.379 35.2 99.6486 34.27 99.1486 33.05C98.6686 31.81 98.4286 30.31 98.4286 28.55C98.4286 26.79 98.6686 25.3 99.1486 24.08C99.6486 22.84 100.369 21.9 101.309 21.26C102.249 20.6 103.409 20.27 104.789 20.27C106.309 20.27 107.529 20.64 108.449 21.38C109.389 22.12 110.059 23.16 110.459 24.5C110.859 25.84 111.009 27.41 110.909 29.21H101.969C101.969 30.39 102.079 31.34 102.299 32.06C102.539 32.76 102.879 33.28 103.319 33.62C103.759 33.94 104.269 34.1 104.849 34.1C105.609 34.1 106.199 33.88 106.619 33.44C107.039 33 107.319 32.38 107.459 31.58H110.849C110.709 32.78 110.369 33.77 109.829 34.55C109.289 35.31 108.589 35.88 107.729 36.26C106.889 36.62 105.929 36.8 104.849 36.8ZM101.969 27.44L101.639 26.96H107.759L107.459 27.47C107.459 26.35 107.349 25.47 107.129 24.83C106.909 24.17 106.599 23.7 106.199 23.42C105.799 23.12 105.329 22.97 104.789 22.97C104.229 22.97 103.739 23.12 103.319 23.42C102.899 23.72 102.569 24.2 102.329 24.86C102.109 25.5 101.989 26.36 101.969 27.44ZM112.13 36.5L117.86 14.63H123.14L128.9 36.5H125.12L121.34 20.93L120.62 17.6H120.41L119.69 20.93L115.91 36.5H112.13ZM116.75 31.76L117.29 28.85H123.71L124.28 31.76H116.75ZM129.969 36.5L134.529 28.25L130.359 20.57H134.409L136.689 25.55L136.989 26.24H137.139L137.409 25.55L139.689 20.57H143.559L139.509 28.19L143.919 36.5H139.869L137.319 31.16L137.019 30.38H136.839L136.509 31.16L133.869 36.5H129.969ZM145.936 36.5V20.57H149.506V36.5H145.936ZM147.736 18.44C147.176 18.44 146.706 18.29 146.326 17.99C145.946 17.67 145.756 17.24 145.756 16.7C145.756 16.12 145.936 15.68 146.296 15.38C146.676 15.08 147.156 14.93 147.736 14.93C148.316 14.93 148.796 15.08 149.176 15.38C149.556 15.68 149.746 16.12 149.746 16.7C149.746 17.24 149.556 17.67 149.176 17.99C148.796 18.29 148.316 18.44 147.736 18.44ZM157.803 36.8C156.883 36.8 156.063 36.68 155.343 36.44C154.623 36.2 154.003 35.86 153.483 35.42C152.983 34.98 152.593 34.44 152.313 33.8C152.053 33.14 151.923 32.41 151.923 31.61H155.313C155.333 32.23 155.443 32.74 155.643 33.14C155.843 33.54 156.123 33.84 156.483 34.04C156.863 34.22 157.313 34.31 157.833 34.31C158.573 34.31 159.123 34.14 159.483 33.8C159.843 33.44 160.023 32.97 160.023 32.39C160.023 31.89 159.923 31.49 159.723 31.19C159.523 30.89 159.203 30.63 158.763 30.41C158.323 30.17 157.733 29.94 156.993 29.72C155.993 29.44 155.143 29.11 154.443 28.73C153.743 28.35 153.203 27.85 152.823 27.23C152.443 26.61 152.253 25.83 152.253 24.89C152.253 23.93 152.483 23.11 152.943 22.43C153.403 21.73 154.043 21.2 154.863 20.84C155.703 20.46 156.703 20.27 157.863 20.27C158.963 20.27 159.913 20.46 160.713 20.84C161.533 21.2 162.173 21.75 162.633 22.49C163.093 23.23 163.333 24.14 163.353 25.22H160.023C160.003 24.62 159.903 24.14 159.723 23.78C159.543 23.42 159.293 23.16 158.973 23C158.653 22.82 158.263 22.73 157.803 22.73C157.123 22.73 156.613 22.9 156.273 23.24C155.933 23.58 155.763 24.02 155.763 24.56C155.763 25.02 155.873 25.4 156.093 25.7C156.333 26 156.683 26.25 157.143 26.45C157.623 26.65 158.193 26.85 158.853 27.05C159.933 27.35 160.823 27.71 161.523 28.13C162.223 28.53 162.743 29.04 163.083 29.66C163.423 30.28 163.593 31.06 163.593 32C163.593 33 163.363 33.86 162.903 34.58C162.443 35.3 161.773 35.85 160.893 36.23C160.033 36.61 159.003 36.8 157.803 36.8Z" fill="#0C1E21"/>
<defs>
<clipPath id="clip0_17484_18142">
<rect width="50" height="50" fill="white"/>
</clipPath>
</defs>
</svg>
